<svg xmlns="http://www.w3.org/2000/svg" viewBox="0 0 500 500"><g id="freepik--background-simple--inject-7"><path d="M216.49,22.68S30.19,141.69,36.28,171.1s63,55.4,50.81,79.34S28.15,332.51,32.22,376.28s84.68,73.19,169.37,69.08S400.76,418,443.45,364s42-101.91,8.8-125.16-4.74-23.26-7.45-108.06S414.31,16.53,352.66,35s-83.32,24.62-81.29,6.84S249,9.69,216.49,22.68Z" style="fill:#90CAF9"></path><path d="M216.49,22.68S30.19,141.69,36.28,171.1s63,55.4,50.81,79.34S28.15,332.51,32.22,376.28s84.68,73.19,169.37,69.08S400.76,418,443.45,364s42-101.91,8.8-125.16-4.74-23.26-7.45-108.06S414.31,16.53,352.66,35s-83.32,24.62-81.29,6.84S249,9.69,216.49,22.68Z" style="fill:#fff;opacity:0.7000000000000001"></path></g><g id="freepik--Floor--inject-7"><path d="M477.28,435H17.64a.5.5,0,1,1,0-1H477.28a.5.5,0,0,1,0,1Z" style="fill:#263238"></path></g><g id="freepik--Checklist--inject-7"><path d="M419.82,146.46H404.64V131.28h15.18Zm-14.18-1h13.18V132.28H405.64Z" style="fill:#263238"></path><path d="M419.82,167H404.64V151.84h15.18Zm-14.18-1h13.18V152.84H405.64Z" style="fill:#263238"></path><rect x="423.57" y="138.37" width="40.41" height="1" style="fill:#263238"></rect><rect x="423.57" y="158.22" width="40.41" height="1" style="fill:#263238"></rect></g><g id="freepik--Documents--inject-7"><path d="M93.88,110.29H56V57H93.88Zm-36.88-1H92.88V58H57Z" style="fill:#263238"></path><rect x="63.04" y="69.44" width="23.2" height="1" style="fill:#263238"></rect><rect x="63.04" y="77.77" width="23.2" height="1" style="fill:#263238"></rect><rect x="63.04" y="86.09" width="23.2" height="1" style="fill:#263238"></rect><rect x="63.04" y="94.42" width="23.2" height="1" style="fill:#263238"></rect><polygon points="87.37 115.41 49.8 115.41 49.8 63.83 55.77 63.83 55.77 64.83 50.8 64.83 50.8 114.41 86.37 114.41 86.37 110.13 87.37 110.13 87.37 115.41" style="fill:#263238"></polygon></g><g id="freepik--Clock--inject-7"><path d="M434.21,118.94a30.74,30.74,0,1,1,30.73-30.73A30.77,30.77,0,0,1,434.21,118.94Zm0-60.47a29.74,29.74,0,1,0,29.73,29.74A29.77,29.77,0,0,0,434.21,58.47Z" style="fill:#263238"></path><path d="M434.21,114.35a26.15,26.15,0,1,1,26.14-26.14A26.18,26.18,0,0,1,434.21,114.35Zm0-51.29a25.15,25.15,0,1,0,25.14,25.15A25.18,25.18,0,0,0,434.21,63.06Z" style="fill:#263238"></path><polygon points="434.71 96.53 433.71 96.53 433.71 88.71 418.74 88.71 418.74 87.71 434.71 87.71 434.71 96.53" style="fill:#263238"></polygon></g><g id="freepik--speech-bubble-2--inject-7"><path d="M420.94,177.77h28.44a4.81,4.81,0,0,1,4.82,4.81v19.27a4.82,4.82,0,0,1-4.82,4.82H432.69L425,217.43V206.67h-4.1a4.82,4.82,0,0,1-4.82-4.82V182.58A4.81,4.81,0,0,1,420.94,177.77Z" style="fill:#263238"></path><path d="M418.76,176.2H447.2A4.82,4.82,0,0,1,452,181v19.27a4.82,4.82,0,0,1-4.82,4.82H430.5l-7.64,10.75V205.11h-4.1a4.82,4.82,0,0,1-4.82-4.82V181A4.82,4.82,0,0,1,418.76,176.2Z" style="fill:#fff"></path><path d="M422.86,216.37a.4.4,0,0,1-.15,0,.49.49,0,0,1-.35-.47V205.61h-3.6a5.32,5.32,0,0,1-5.32-5.32V181a5.32,5.32,0,0,1,5.32-5.32H447.2a5.32,5.32,0,0,1,5.31,5.32v19.27a5.32,5.32,0,0,1-5.31,5.32H430.76l-7.49,10.54A.5.5,0,0,1,422.86,216.37Zm-4.1-39.67a4.32,4.32,0,0,0-4.32,4.32v19.27a4.32,4.32,0,0,0,4.32,4.32h4.1a.5.5,0,0,1,.5.5v9.19l6.73-9.48a.52.52,0,0,1,.41-.21h16.7a4.32,4.32,0,0,0,4.31-4.32V181a4.32,4.32,0,0,0-4.31-4.32Z" style="fill:#263238"></path><path d="M431.18,199.08h-.06a1.49,1.49,0,0,1-1.17-.64L424.78,191a1.51,1.51,0,0,1,.38-2.09,1.48,1.48,0,0,1,2.08.37l4,5.79,11.91-14.48a1.5,1.5,0,1,1,2.32,1.9l-13.17,16A1.52,1.52,0,0,1,431.18,199.08Z" style="fill:#263238"></path></g><g id="freepik--speeh-bubble-1--inject-7"><path d="M84.65,147.6H46.5a4.82,4.82,0,0,0-4.82,4.82v19.27a4.82,4.82,0,0,0,4.82,4.82H72.9l7.64,10.75V176.51h4.11a4.82,4.82,0,0,0,4.82-4.82V152.42A4.82,4.82,0,0,0,84.65,147.6Z" style="fill:#263238"></path><path d="M86.83,146H48.69a4.82,4.82,0,0,0-4.82,4.82v19.27A4.82,4.82,0,0,0,48.69,175h26.4l7.64,10.75V175h4.1a4.82,4.82,0,0,0,4.82-4.82V150.86A4.82,4.82,0,0,0,86.83,146Z" style="fill:#fff"></path><path d="M82.73,186.2a.49.49,0,0,1-.41-.21l-7.49-10.54H48.69a5.32,5.32,0,0,1-5.32-5.32V150.86a5.32,5.32,0,0,1,5.32-5.32H86.83a5.32,5.32,0,0,1,5.32,5.32v19.27a5.32,5.32,0,0,1-5.32,5.32h-3.6V185.7a.5.5,0,0,1-.35.48Zm-34-39.66a4.32,4.32,0,0,0-4.32,4.32v19.27a4.32,4.32,0,0,0,4.32,4.32h26.4a.52.52,0,0,1,.41.21l6.73,9.47V175a.5.5,0,0,1,.5-.5h4.1a4.33,4.33,0,0,0,4.32-4.32V150.86a4.33,4.33,0,0,0-4.32-4.32Z" style="fill:#263238"></path><path d="M60.88,161.35A1.88,1.88,0,1,0,59,163.22,1.88,1.88,0,0,0,60.88,161.35Z" style="fill:#263238"></path><path d="M69.31,161.35a1.88,1.88,0,1,0-1.88,1.87A1.88,1.88,0,0,0,69.31,161.35Z" style="fill:#263238"></path><path d="M77.73,161.35a1.87,1.87,0,1,0-1.87,1.87A1.87,1.87,0,0,0,77.73,161.35Z" style="fill:#263238"></path></g><g id="freepik--Page--inject-7"><rect x="117.15" y="53.46" width="264.94" height="359.4" style="fill:#263238"></rect><rect x="124.9" y="47.82" width="264.94" height="359.4" style="fill:#fff"></rect><path d="M389.84,407.72H124.9a.5.5,0,0,1-.5-.5V47.82a.51.51,0,0,1,.5-.5H389.84a.5.5,0,0,1,.5.5v359.4A.5.5,0,0,1,389.84,407.72Zm-264.44-1H389.34V48.32H125.4Z" style="fill:#263238"></path><path d="M238.31,266H160.88a.5.5,0,0,1-.5-.5V187a.5.5,0,0,1,.5-.5h77.43a.5.5,0,0,1,.5.5v78.5A.5.5,0,0,1,238.31,266Zm-76.93-1h76.43v-77.5H161.38Z" style="fill:#263238"></path><path d="M238.31,266H160.88a.49.49,0,0,1-.44-.26.51.51,0,0,1,0-.52L185,227.4a.5.5,0,0,1,.81,0l11.35,14.31,17.69-31.89a.51.51,0,0,1,.44-.26h0a.48.48,0,0,1,.43.25l23,39.53a.45.45,0,0,1,.07.25v15.94A.5.5,0,0,1,238.31,266Zm-76.51-1h76v-15.3L215.32,211l-17.63,31.78a.5.5,0,0,1-.83.07l-11.38-14.36Z" style="fill:#263238"></path><path d="M176.28,218.08a10.59,10.59,0,1,1,10.59-10.58A10.6,10.6,0,0,1,176.28,218.08Zm0-20.17a9.59,9.59,0,1,0,9.59,9.59A9.6,9.6,0,0,0,176.28,197.91Z" style="fill:#263238"></path><path d="M357.71,140.8H161a.51.51,0,0,1-.5-.5.5.5,0,0,1,.5-.5H357.71a.5.5,0,0,1,.5.5A.51.51,0,0,1,357.71,140.8Z" style="fill:#263238"></path><path d="M357.71,152.6H161a.5.5,0,0,1,0-1H357.71a.5.5,0,0,1,0,1Z" style="fill:#263238"></path><path d="M357.71,164.41H161a.51.51,0,0,1-.5-.5.5.5,0,0,1,.5-.5H357.71a.5.5,0,0,1,.5.5A.51.51,0,0,1,357.71,164.41Z" style="fill:#263238"></path><path d="M357.71,176.21H161a.5.5,0,0,1,0-1H357.71a.5.5,0,0,1,0,1Z" style="fill:#263238"></path><path d="M357.71,283.11H161a.5.5,0,0,1-.5-.5.51.51,0,0,1,.5-.5H357.71a.51.51,0,0,1,.5.5A.5.5,0,0,1,357.71,283.11Z" style="fill:#263238"></path><path d="M357.71,294.92H161a.51.51,0,0,1-.5-.5.5.5,0,0,1,.5-.5H357.71a.5.5,0,0,1,.5.5A.51.51,0,0,1,357.71,294.92Z" style="fill:#263238"></path><path d="M357.71,306.72H161a.5.5,0,0,1-.5-.5.51.51,0,0,1,.5-.5H357.71a.51.51,0,0,1,.5.5A.5.5,0,0,1,357.71,306.72Z" style="fill:#263238"></path><path d="M357.71,318.53H161a.51.51,0,0,1-.5-.5.5.5,0,0,1,.5-.5H357.71a.5.5,0,0,1,.5.5A.51.51,0,0,1,357.71,318.53Z" style="fill:#263238"></path><path d="M298,193.92H246.87a.5.5,0,0,1-.5-.5.5.5,0,0,1,.5-.5H298a.5.5,0,0,1,.5.5A.51.51,0,0,1,298,193.92Z" style="fill:#263238"></path><path d="M298,208.35H246.87a.5.5,0,0,1-.5-.5.5.5,0,0,1,.5-.5H298a.5.5,0,0,1,.5.5A.51.51,0,0,1,298,208.35Z" style="fill:#263238"></path><path d="M298,222.78H246.87a.5.5,0,0,1-.5-.5.5.5,0,0,1,.5-.5H298a.5.5,0,0,1,.5.5A.51.51,0,0,1,298,222.78Z" style="fill:#263238"></path><path d="M298,237.2H246.87a.5.5,0,0,1-.5-.5.5.5,0,0,1,.5-.5H298a.51.51,0,0,1,.5.5A.5.5,0,0,1,298,237.2Z" style="fill:#263238"></path><path d="M298,251.63H246.87a.5.5,0,0,1-.5-.5.5.5,0,0,1,.5-.5H298a.51.51,0,0,1,.5.5A.5.5,0,0,1,298,251.63Z" style="fill:#263238"></path><path d="M298,266.06H246.87a.5.5,0,0,1,0-1H298a.5.5,0,0,1,0,1Z" style="fill:#263238"></path><path d="M357.71,193.92H306.55a.5.5,0,0,1-.5-.5.5.5,0,0,1,.5-.5h51.16a.5.5,0,0,1,.5.5A.51.51,0,0,1,357.71,193.92Z" style="fill:#263238"></path><path d="M357.71,208.35H306.55a.5.5,0,0,1-.5-.5.5.5,0,0,1,.5-.5h51.16a.5.5,0,0,1,.5.5A.51.51,0,0,1,357.71,208.35Z" style="fill:#263238"></path><path d="M357.71,222.78H306.55a.5.5,0,0,1-.5-.5.5.5,0,0,1,.5-.5h51.16a.5.5,0,0,1,.5.5A.51.51,0,0,1,357.71,222.78Z" style="fill:#263238"></path><path d="M357.71,237.2H306.55a.5.5,0,0,1-.5-.5.5.5,0,0,1,.5-.5h51.16a.51.51,0,0,1,.5.5A.5.5,0,0,1,357.71,237.2Z" style="fill:#263238"></path><path d="M357.71,251.63H306.55a.5.5,0,0,1-.5-.5.5.5,0,0,1,.5-.5h51.16a.51.51,0,0,1,.5.5A.5.5,0,0,1,357.71,251.63Z" style="fill:#263238"></path><path d="M357.71,266.06H306.55a.5.5,0,0,1,0-1h51.16a.5.5,0,0,1,0,1Z" style="fill:#263238"></path><path d="M212.11,330.33H161a.5.5,0,0,1-.5-.5.51.51,0,0,1,.5-.5h51.16a.5.5,0,0,1,.5.5A.5.5,0,0,1,212.11,330.33Z" style="fill:#263238"></path><path d="M212.11,343.71H161a.5.5,0,0,1-.5-.5.51.51,0,0,1,.5-.5h51.16a.5.5,0,0,1,.5.5A.5.5,0,0,1,212.11,343.71Z" style="fill:#263238"></path><path d="M212.11,357.09H161a.5.5,0,0,1,0-1h51.16a.5.5,0,1,1,0,1Z" style="fill:#263238"></path><path d="M212.11,370.47H161a.5.5,0,0,1,0-1h51.16a.5.5,0,0,1,0,1Z" style="fill:#263238"></path><path d="M212.11,383.85H161a.5.5,0,1,1,0-1h51.16a.5.5,0,0,1,0,1Z" style="fill:#263238"></path><path d="M212.11,397.23H161a.51.51,0,0,1-.5-.5.5.5,0,0,1,.5-.5h51.16a.5.5,0,0,1,.5.5A.5.5,0,0,1,212.11,397.23Z" style="fill:#263238"></path><path d="M170.34,117.51h-7.41V70.41h7.41V90.6h8.41V70.41h7.53v47.1h-7.53V97.32h-8.41Z" style="fill:#263238"></path><path d="M199.07,90.26h10.16V97H199.07v13.79h12.78v6.73H191.66V70.41h20.19v6.73H199.07Z" style="fill:#263238"></path><path d="M240.38,117.51h-7.47L231.63,109h-9.08l-1.28,8.54h-6.8L222,70.41h10.83Zm-16.89-14.94h7.13l-3.56-23.82Z" style="fill:#263238"></path><path d="M243.81,70.41h11.71c7.4,0,11,4.1,11,11.64v23.82c0,7.54-3.63,11.64-11,11.64H243.81Zm7.4,6.73v33.64h4.17c2.36,0,3.77-1.21,3.77-4.57V81.71c0-3.36-1.41-4.57-3.77-4.57Z" style="fill:#263238"></path><path d="M271.26,70.41h7.4v40.37h12.18v6.73H271.26Z" style="fill:#263238"></path><path d="M294.07,70.41h7.4v47.1h-7.4Z" style="fill:#263238"></path><path d="M313.45,83.39v34.12h-6.67V70.41h9.29l7.6,28.19V70.41h6.6v47.1h-7.61Z" style="fill:#263238"></path><path d="M343,90.26h10.16V97H343v13.79h12.79v6.73H335.58V70.41h20.19v6.73H343Z" style="fill:#263238"></path><path d="M317.24,169.31a1,1,0,0,1-.17-2,14.91,14.91,0,0,1,3.93-.17h36.32a1,1,0,0,1,0,2H320.91a13.61,13.61,0,0,0-3.5.15Z" style="fill:#90CAF9"></path><path d="M378.22,153.64H367.63a1,1,0,0,1,0-2h10.59a1,1,0,0,1,0,2Z" style="fill:#90CAF9"></path><path d="M377.33,156.77h-9.85a1,1,0,0,1,0-2h9.85a1,1,0,0,1,0,2Z" style="fill:#90CAF9"></path><path d="M367.78,160a1,1,0,0,1,0-2l5-.07,4.87-.06h4.19a1,1,0,0,1,0,2h-4.17l-4.87.06-5,.07Z" style="fill:#90CAF9"></path><path d="M382.57,163.19H367.63a1,1,0,0,1,0-2h14.94a1,1,0,0,1,0,2Z" style="fill:#90CAF9"></path><path d="M360.86,169.79a1,1,0,0,1-.86-.48,1,1,0,0,1,.34-1.37,34.46,34.46,0,0,1,10.19-4.11,1,1,0,0,1,.44,1.95,32.42,32.42,0,0,0-9.6,3.87A1,1,0,0,1,360.86,169.79Z" style="fill:#90CAF9"></path><path d="M360.12,170.6a1,1,0,0,1-.84-1.55l2.49-3.8a1,1,0,1,1,1.67,1.1l-1.39,2.13,5.83-.35a1,1,0,0,1,1.05.94,1,1,0,0,1-.94,1.06l-7.81.47Z" style="fill:#90CAF9"></path><path d="M194,317.42a130.57,130.57,0,0,1-32-3.77c-3.27-.82-7-1.93-9.54-4.68a5.76,5.76,0,0,1-1.81-4.15c.12-2.62,2.42-4.58,6.5-5.53,9.62-2.25,19.6-2.21,29.24-2.17l42.62.19a1,1,0,0,1,.32,1.94,17.18,17.18,0,0,1,8.46,2.95c1.63,1.18,2.45,2.56,2.37,4-.11,2-2,3.29-2.65,3.71-4.93,3.3-10.95,4.46-16.21,5.29A176.83,176.83,0,0,1,194,317.42Zm-11.48-18.31c-8.31,0-16.79.23-24.92,2.13-1.45.34-4.85,1.38-4.95,3.67a3.94,3.94,0,0,0,1.27,2.69c2.2,2.35,5.58,3.36,8.57,4.11,17.33,4.37,37,4.88,58.5,1.5,5-.79,10.82-1.9,15.41-5,1.15-.77,1.73-1.48,1.77-2.16.05-.95-.95-1.83-1.55-2.26-2.82-2-6.77-2.91-12.07-2.69-1.4.06-2.83.18-4.21.3a48.52,48.52,0,0,1-9.19.2,1,1,0,1,1,.21-2,48,48,0,0,0,8.81-.2l2-.16-35.74-.16Z" style="fill:#90CAF9"></path><path d="M214.05,358.52a1,1,0,0,1-.51-.14,1,1,0,0,1-.45-1.13l1.32-4.7a1,1,0,0,1,1.24-.7,1,1,0,0,1,.69,1.24L216,354.3c3.26-3,6.67-5.88,10.18-8.55a1,1,0,1,1,1.21,1.59,137.78,137.78,0,0,0-12.64,10.9A1.05,1.05,0,0,1,214.05,358.52Z" style="fill:#90CAF9"></path><path d="M214,370.52a.94.94,0,0,1-.51-.14,1,1,0,0,1-.44-1.19,33.15,33.15,0,0,1,1.28-3.16,1,1,0,0,1,1.82,0,27.08,27.08,0,0,1,11.58-5.66,1,1,0,0,1,.42,2,25.09,25.09,0,0,0-13.4,7.83A1,1,0,0,1,214,370.52Z" style="fill:#90CAF9"></path><path d="M214.32,385.22a1.11,1.11,0,0,1-.46-.11,1,1,0,0,1-.43-1.35,35.61,35.61,0,0,1,5.89-8.26,1,1,0,1,1,1.44,1.38,34,34,0,0,0-5.55,7.8A1,1,0,0,1,214.32,385.22Z" style="fill:#90CAF9"></path><path d="M225.41,386.38a.94.94,0,0,1-.61-.21,98.23,98.23,0,0,0-14.5-9.27,1,1,0,0,1-.43-1.35,1,1,0,0,1,1.35-.42,99.59,99.59,0,0,1,14.8,9.46,1,1,0,0,1,.18,1.4A1,1,0,0,1,225.41,386.38Z" style="fill:#90CAF9"></path></g><g id="freepik--Plant--inject-7"><path d="M427.85,349.59c1.61.7,5.54.61,5.54.61s-.85-2.57-.92-2.73c-.86-1.8-3.59-4.78-5.81-4.48a2.65,2.65,0,0,0-2.13,3.32C424.9,347.85,426.48,349,427.85,349.59Z" style="fill:#263238"></path><path d="M429.2,361c1.67.24,5.18-.77,5.46-.86a45.31,45.31,0,0,0,2.13,5.89c.48,1.12,1,2.23,1.53,3.33-.32-.46-.6-.88-.65-.94-1.31-1.51-4.73-3.66-6.79-2.79a2.66,2.66,0,0,0-1.17,3.77c.76,1.38,2.58,2.07,4.06,2.28s4.51-.58,5.3-.81l.63,1.27c1,2,2,4,3,6,.33.71.63,1.42.94,2.12l-.57-.81c-1.31-1.51-4.73-3.66-6.79-2.79a2.65,2.65,0,0,0-1.17,3.77c.76,1.38,2.58,2.07,4.06,2.28a16.86,16.86,0,0,0,5.15-.77c.29.73.59,1.47.83,2.19.16.5.35,1,.48,1.48s.28,1,.41,1.49c.23.95.48,1.94.68,2.88.14.65.27,1.27.39,1.9-.32-.7-1-2.08-1-2.18-1.06-1.7-4.11-4.34-6.28-3.79a2.65,2.65,0,0,0-1.73,3.54c.54,1.49,2.24,2.44,3.67,2.88s5.05,0,5.48,0c.21,1,.41,2.06.57,3,.13.72.24,1.4.35,2.05h1.39c-.13-.73-.27-1.49-.43-2.29-.21-1.06-.45-2.18-.71-3.33a32.24,32.24,0,0,0,3.06-1.44,19,19,0,0,0,4.46,2.87c-.4,1-.8,1.94-1.19,2.83-.2.47-.4.92-.6,1.36h1.47c.12-.28.24-.55.35-.84.42-1,.83-2.07,1.25-3.18.42.09,3.87.79,5.48.43,1.45-.33,3.22-1.16,3.87-2.6a2.65,2.65,0,0,0-1.46-3.66c-2.13-.71-5.37,1.7-6.55,3.31-.07.09-.72,1.21-1.11,1.92.17-.45.33-.89.5-1.36.34-.92.65-1.85,1-2.86.15-.48.29-1,.44-1.48s.27-1,.4-1.55c.29-1.21.52-2.45.73-3.71a17.41,17.41,0,0,0,5.2,1.2c1.49-.11,3.36-.66,4.22-2a2.65,2.65,0,0,0-.89-3.84c-2-1-5.56.86-7,2.27-.09.09-1,1.22-1.47,1.85.12-.76.24-1.52.33-2.28.28-2.22.49-4.48.71-6.73.06-.69.14-1.37.21-2.06.29.11,3.7,1.38,5.37,1.26,1.49-.11,3.36-.65,4.22-2a2.64,2.64,0,0,0-.89-3.84c-2-1-5.55.87-7,2.28-.11.1-1.41,1.72-1.71,2.15.15-1.51.33-3,.56-4.49a48.12,48.12,0,0,1,1.29-5.92c.13.06,3.68,1.4,5.4,1.27,1.49-.1,3.36-.65,4.22-2a2.64,2.64,0,0,0-.89-3.84c-2-1-5.56.86-7,2.27-.11.11-1.51,1.86-1.74,2.19l.09-.34a33.6,33.6,0,0,1,2.34-5.59c.51-1,1.05-1.93,1.6-2.81.64.32,3.56,1.73,5.12,1.8s3.41-.28,4.41-1.51a2.65,2.65,0,0,0-.46-3.91c-1.87-1.24-5.62.25-7.19,1.5-.08.06-.87.85-1.44,1.43.26-.4.51-.81.76-1.19.94-1.41,1.88-2.64,2.73-3.73.48-.61.94-1.16,1.36-1.66.79,0,4-.11,5.34-.76s2.9-1.82,3.23-3.37a2.65,2.65,0,0,0-2.22-3.26c-2.22-.24-4.87,2.81-5.68,4.64-.07.15-.89,2.75-.85,2.75h.05c-.42.48-.87,1-1.34,1.57-.87,1.07-1.85,2.29-2.82,3.68a48,48,0,0,0-2.92,4.65,34.72,34.72,0,0,0-2.49,5.62.19.19,0,0,0,0,.07c0-.66,0-2.49,0-2.63-.26-2-1.92-5.67-4.12-6.07A2.65,2.65,0,0,0,456,353c-.13,1.57,1,3.15,2.13,4.15s4.74,2.2,5,2.29a46.92,46.92,0,0,0-1.47,6.08c-.22,1.2-.39,2.41-.56,3.63,0-.56,0-1.07,0-1.14-.25-2-1.92-5.67-4.12-6.07a2.64,2.64,0,0,0-3.05,2.49c-.13,1.57,1,3.15,2.12,4.15s4.09,2,4.87,2.24c-.05.47-.12.94-.17,1.41-.27,2.24-.53,4.49-.85,6.68-.11.77-.25,1.53-.39,2.29,0-.51,0-.93,0-1-.25-2-1.92-5.66-4.12-6.07a2.65,2.65,0,0,0-3.05,2.5c-.13,1.57,1,3.15,2.12,4.14a16.71,16.71,0,0,0,4.73,2.2c-.16.78-.32,1.55-.52,2.29-.14.5-.24,1-.42,1.49s-.31,1-.47,1.47c-.34.93-.68,1.89-1,2.78-.24.62-.48,1.21-.72,1.81.12-.77.33-2.28.33-2.41a10.27,10.27,0,0,0-1.38-5,2.92,2.92,0,0,0,0-.59,2.66,2.66,0,0,0-3.24-2.25c-2.17.58-3.54,4.38-3.64,6.37,0,.12.07,1.41.13,2.22-.11-.47-.21-.93-.33-1.41-.22-1-.48-1.91-.75-2.93l-.45-1.48c-.14-.5-.35-1-.52-1.52-.43-1.17-.92-2.33-1.44-3.49a17.45,17.45,0,0,0,5-1.87c1.19-.91,2.44-2.4,2.43-4a2.64,2.64,0,0,0-2.86-2.71c-2.22.24-4.16,3.79-4.56,5.74,0,.13-.16,1.56-.21,2.35-.32-.69-.64-1.39-1-2.08-1-2-2.07-4-3.12-6-.33-.61-.64-1.23-1-1.84.3-.07,3.84-.89,5.17-1.91s2.44-2.4,2.43-4a2.64,2.64,0,0,0-2.86-2.71c-2.23.24-4.16,3.79-4.56,5.75,0,.14-.22,2.21-.24,2.74-.7-1.35-1.39-2.7-2-4.06a48.52,48.52,0,0,1-2.19-5.64c.14,0,3.84-.88,5.21-1.93,1.18-.9,2.44-2.39,2.43-4a2.66,2.66,0,0,0-2.86-2.72c-2.23.25-4.16,3.79-4.56,5.75,0,.15-.24,2.38-.24,2.79,0-.12-.09-.23-.12-.34a33.7,33.7,0,0,1-1.13-6c-.13-1.11-.18-2.18-.22-3.22.71-.09,3.93-.52,5.26-1.32s2.69-2.12,2.85-3.69a2.64,2.64,0,0,0-2.54-3c-2.24,0-4.55,3.31-5.17,5.21,0,.1-.26,1.19-.41,2,0-.47,0-1,0-1.41,0-1.69.11-3.24.22-4.62.06-.78.14-1.48.22-2.14.64-.44,3.23-2.27,4-3.58s1.41-3.11.83-4.58a2.64,2.64,0,0,0-3.64-1.5c-2,1-2.52,5-2.19,7,0,.17.78,2.79.82,2.77l0,0c-.09.63-.18,1.31-.26,2.05-.13,1.37-.28,2.93-.32,4.63a47.11,47.11,0,0,0,.14,5.49,34.27,34.27,0,0,0,1,6.05l0,.07c-.36-.55-1.39-2.06-1.49-2.17-1.3-1.51-4.72-3.66-6.78-2.79a2.65,2.65,0,0,0-1.18,3.76C425.91,360.07,427.73,360.75,429.2,361Z" style="fill:#263238"></path><path d="M467.6,350.45s.72-2.61.74-2.78c.28-2-.36-6-2.37-6.95a2.66,2.66,0,0,0-3.61,1.6c-.54,1.49.15,3.31,1,4.56C464.27,348.35,467.6,350.45,467.6,350.45Z" style="fill:#263238"></path><polygon points="461.54 434.48 441.37 434.48 445.4 397.19 457.5 397.19 461.54 434.48" style="fill:#263238"></polygon></g><g id="freepik--Symbols--inject-7"><circle cx="365.87" cy="238.09" r="7.8" transform="translate(-63.42 158.99) rotate(-22.61)" style="fill:#fff"></circle><path d="M365.87,246.39a8.3,8.3,0,1,1,8.3-8.3A8.3,8.3,0,0,1,365.87,246.39Zm0-15.6a7.3,7.3,0,1,0,7.3,7.3A7.31,7.31,0,0,0,365.87,230.79Z" style="fill:#263238"></path><path d="M365.75,243.62v-1.07a2.21,2.21,0,0,1-1.67-.72,3.3,3.3,0,0,1-.6-2l1.65-.25a4.16,4.16,0,0,0,.1.9.9.9,0,0,0,.25.5.59.59,0,0,0,.41.15.39.39,0,0,0,.39-.2,1.07,1.07,0,0,0,.09-.43,1.6,1.6,0,0,0-.25-.92,4.3,4.3,0,0,0-.7-.75l-.76-.65a6.62,6.62,0,0,1-.59-.6,2.69,2.69,0,0,1-.43-.71,2.6,2.6,0,0,1-.16-1,2.18,2.18,0,0,1,.59-1.61,2.41,2.41,0,0,1,1.58-.66v-1h.55v1a1.91,1.91,0,0,1,1,.29,1.77,1.77,0,0,1,.57.62,3.18,3.18,0,0,1,.26.79c0,.28.07.54.08.77l-1.67.21c0-.26,0-.49-.05-.68a1.13,1.13,0,0,0-.15-.45.41.41,0,0,0-.37-.14.41.41,0,0,0-.39.22.87.87,0,0,0-.13.46,1.23,1.23,0,0,0,.26.83,6.55,6.55,0,0,0,.58.6l.73.64a6.5,6.5,0,0,1,.68.71,3.49,3.49,0,0,1,.49.84,3,3,0,0,1,.18,1.07,2.24,2.24,0,0,1-.24,1,2,2,0,0,1-.68.78,2.42,2.42,0,0,1-1.05.36v1.08Z" style="fill:#263238"></path><circle cx="348.49" cy="222.27" r="8.81" transform="translate(-55.1 311.52) rotate(-45)" style="fill:#fff"></circle><path d="M348.49,231.57a9.31,9.31,0,1,1,9.3-9.3A9.31,9.31,0,0,1,348.49,231.57Zm0-17.61a8.31,8.31,0,1,0,8.3,8.31A8.32,8.32,0,0,0,348.49,214Z" style="fill:#263238"></path><path d="M348.34,228.5v-1.2a2.47,2.47,0,0,1-1.88-.81,3.71,3.71,0,0,1-.68-2.31l1.87-.28a4,4,0,0,0,.11,1,1.09,1.09,0,0,0,.28.56.64.64,0,0,0,.46.17.42.42,0,0,0,.44-.23,1.13,1.13,0,0,0,.11-.48,1.79,1.79,0,0,0-.29-1,4.09,4.09,0,0,0-.79-.85l-.86-.74a7,7,0,0,1-.66-.68,3.06,3.06,0,0,1-.49-.8,3,3,0,0,1-.18-1.1,2.41,2.41,0,0,1,.67-1.81,2.67,2.67,0,0,1,1.78-.74V216h.62v1.14a2.33,2.33,0,0,1,1.14.33,1.83,1.83,0,0,1,.63.7,3.12,3.12,0,0,1,.3.89,7.57,7.57,0,0,1,.09.87l-1.89.24c0-.3,0-.55-.05-.77a1.09,1.09,0,0,0-.18-.51.42.42,0,0,0-.4-.16.47.47,0,0,0-.45.25,1,1,0,0,0-.15.52,1.43,1.43,0,0,0,.3.94,6.91,6.91,0,0,0,.65.68l.83.71a8.28,8.28,0,0,1,.76.81,3.33,3.33,0,0,1,.55,1,3.21,3.21,0,0,1,.21,1.2,2.6,2.6,0,0,1-.27,1.19,2.35,2.35,0,0,1-.76.87,2.72,2.72,0,0,1-1.2.41v1.21Z" style="fill:#263238"></path><circle cx="372.03" cy="201.89" r="11.63" style="fill:#fff"></circle><path d="M372,214a12.13,12.13,0,1,1,12.13-12.13A12.14,12.14,0,0,1,372,214Zm0-23.26a11.13,11.13,0,1,0,11.13,11.13A11.14,11.14,0,0,0,372,190.76Z" style="fill:#263238"></path><path d="M371.84,210.13v-1.6a3.26,3.26,0,0,1-2.49-1.07,4.92,4.92,0,0,1-.89-3.05l2.46-.37a6.77,6.77,0,0,0,.14,1.36,1.55,1.55,0,0,0,.38.74.88.88,0,0,0,.61.22.56.56,0,0,0,.58-.3,1.62,1.62,0,0,0,.14-.65,2.39,2.39,0,0,0-.38-1.36,5.88,5.88,0,0,0-1-1.12l-1.14-1a10.53,10.53,0,0,1-.88-.89,3.87,3.87,0,0,1-.63-1.06,4,4,0,0,1-.24-1.44,3.24,3.24,0,0,1,.87-2.4,3.59,3.59,0,0,1,2.36-1v-1.53h.82v1.51a3,3,0,0,1,1.5.43,2.4,2.4,0,0,1,.84.93,4,4,0,0,1,.39,1.18,8.18,8.18,0,0,1,.12,1.15l-2.49.3a9.21,9.21,0,0,0-.08-1,1.43,1.43,0,0,0-.22-.67.6.6,0,0,0-.54-.22.66.66,0,0,0-.6.34,1.46,1.46,0,0,0-.19.68,1.83,1.83,0,0,0,.4,1.24,8.11,8.11,0,0,0,.86.9l1.09,1a9.18,9.18,0,0,1,1,1.06,4.71,4.71,0,0,1,.73,1.25,4.44,4.44,0,0,1,.27,1.6,3.5,3.5,0,0,1-.35,1.56,3.05,3.05,0,0,1-1,1.15,3.53,3.53,0,0,1-1.57.54v1.61Z" style="fill:#263238"></path></g><g id="freepik--character-3--inject-7"><path d="M382.51,303.9s-6.88,18.93-7.07,31.93,8,63.48,8.22,65.58,6.12,38.43,6.12,38.43l-2.1,1.72s-.58,1-1,1.72-5.73,3.82-7.26,4.21-.39,1.72,1,2.1,12.62,1.34,15.68,1.91,4.59-.95,4.4-3.82a67.27,67.27,0,0,0-1.53-8.61c-.19-.76-1.34-5.54-1.53-6.69S398.77,388,398.77,388l19.63,47.12s-1.34,1.15-1.34,2.11.19,3.06.19,3.06-6.5,3.82-5.54,5.16,7.07,2.48,7.07,2.48,6.5,1.15,8,.77,2.49-1.34,2.11-3.63-2.11-7.65-2.11-7.65-2.29-8.41-2.48-9.75S415.59,389,415.21,385s-.58-5.74-.58-7.08,7.84-32.69,8-42.06a88.73,88.73,0,0,0-3.05-22.94c-1-3.25-2.29-7.36-2.29-7.36Z" style="fill:#263238"></path><path d="M397.27,452.12A6.44,6.44,0,0,1,396,452c-1.52-.28-5.08-.66-8.53-1s-6.49-.69-7.2-.89c-1-.29-2.06-1.1-2-2,0-.25.12-.86,1.1-1.11,1.51-.38,6.55-3.33,6.95-3.95.38-.77.94-1.71,1-1.75a.69.69,0,0,1,.11-.13l1.88-1.53c-.6-3.66-5.89-36.16-6.08-38.18,0-.4-.4-2.81-.91-6.14-2.23-14.66-7.46-49-7.31-59.5.19-12.93,7-31.9,7.11-32.09a.46.46,0,0,1,.49-.33l34.8,1.63a.5.5,0,0,1,.45.34c0,.05,1.35,4.16,2.3,7.38a90.16,90.16,0,0,1,3.08,23.09c-.14,6.76-4.13,24.41-6.51,35-.81,3.6-1.51,6.72-1.53,7.1,0,1.09.14,2.46.4,5.2l.18,1.82c.26,2.73,4.46,21.63,7,32.92,1.37,6.14,2.08,9.37,2.14,9.79.19,1.29,2.45,9.6,2.48,9.69s1.73,5.39,2.11,7.69-.45,3.7-2.48,4.2c-1.59.4-7.56-.63-8.23-.75-1.06-.2-6.38-1.26-7.4-2.69a1.09,1.09,0,0,1-.16-.86c.34-1.59,4.27-4.07,5.59-4.86-.06-.63-.17-2-.17-2.79a3.69,3.69,0,0,1,1.25-2.24l-18.63-44.69c-.46,13.18-1.39,40.87-1.26,42s1.32,5.84,1.52,6.64a67,67,0,0,1,1.55,8.69,4.29,4.29,0,0,1-1.17,3.63A3.74,3.74,0,0,1,397.27,452.12Zm-9.21-10.23c-.14.24-.58,1-.89,1.61-.5,1-6.15,4.11-7.59,4.47a.63.63,0,0,0-.36.17,1.94,1.94,0,0,0,1.33,1c.62.18,3.88.52,7,.86,3.46.37,7,.75,8.6,1a3.43,3.43,0,0,0,3-.49,3.35,3.35,0,0,0,.83-2.81,68.28,68.28,0,0,0-1.52-8.51c-.2-.81-1.34-5.58-1.54-6.74s1.18-40,1.34-44.45a.5.5,0,0,1,.41-.48.52.52,0,0,1,.55.3L418.86,435a.49.49,0,0,1-.13.57c-.38.33-1.17,1.18-1.17,1.73,0,.92.19,3,.19,3a.51.51,0,0,1-.24.48c-3.25,1.91-5.56,3.95-5.39,4.43.58.82,4.3,1.83,6.76,2.29s6.77,1,7.81.77,2.11-.84,1.73-3.06-2.07-7.53-2.08-7.58c-.1-.36-2.31-8.48-2.51-9.83-.05-.4-1-4.51-2.12-9.71-2.68-12.05-6.73-30.26-7-33l-.17-1.82c-.27-2.77-.41-4.17-.41-5.31,0-.41.48-2.54,1.56-7.31,2.21-9.82,6.34-28.1,6.48-34.76a88.77,88.77,0,0,0-3-22.79c-.79-2.68-1.85-6-2.18-7l-34.09-1.59c-.92,2.63-6.75,19.61-6.92,31.42-.15,10.41,5.07,44.69,7.3,59.33.55,3.6.88,5.77.92,6.2.19,2.06,6,38,6.11,38.39a.5.5,0,0,1-.17.47Z" style="fill:#263238"></path><path d="M399,383.75h0a.51.51,0,0,1-.47-.53l1.34-29.82L401.9,339a.52.52,0,0,1,.33-.4l5.35-1.91a.5.5,0,0,1,.34.94l-5.07,1.81-2.06,14-1.33,29.78A.51.51,0,0,1,399,383.75Z" style="fill:#fff"></path><polygon points="348.29 252.35 361.1 268.62 372.45 261.6 359.9 245.72 348.29 252.35" style="fill:#263238"></polygon><path d="M361.1,269.12a.49.49,0,0,1-.39-.19L347.9,252.66a.48.48,0,0,1-.1-.4.5.5,0,0,1,.24-.34l11.61-6.64a.5.5,0,0,1,.64.13l12.55,15.88a.49.49,0,0,1,.1.4.47.47,0,0,1-.23.34l-11.35,7A.48.48,0,0,1,361.1,269.12ZM349,252.5,361.21,268l10.5-6.49-11.94-15.1Z" style="fill:#263238"></path><polygon points="359.76 248.13 351.56 252.98 353.23 255.31 361.57 250.16 359.76 248.13" style="fill:#fff"></polygon><path d="M353.23,255.56a.26.26,0,0,1-.2-.1l-1.67-2.33a.28.28,0,0,1,0-.2.22.22,0,0,1,.12-.16l8.19-4.85a.25.25,0,0,1,.31.05l1.82,2a.27.27,0,0,1,.06.2.28.28,0,0,1-.12.18l-8.34,5.14A.2.2,0,0,1,353.23,255.56Zm-1.3-2.5L353.3,255l7.88-4.86-1.47-1.66Z" style="fill:#263238"></path><polygon points="367.16 262.97 365.34 260.79 363.15 262.09 364.96 264.34 367.16 262.97" style="fill:#fff"></polygon><path d="M365,264.59a.23.23,0,0,1-.19-.09L363,262.25a.21.21,0,0,1,0-.2.25.25,0,0,1,.11-.17l2.19-1.31a.26.26,0,0,1,.33.06l1.82,2.18a.29.29,0,0,1,.05.2.25.25,0,0,1-.11.17l-2.21,1.37A.2.2,0,0,1,365,264.59Zm-1.43-2.43L365,264l1.77-1.1-1.5-1.8Z" style="fill:#263238"></path><polygon points="365.21 259.06 367.3 257.76 365.45 255.67 363.4 256.89 365.21 259.06" style="fill:#fff"></polygon><path d="M365.21,259.31a.25.25,0,0,1-.19-.09l-1.81-2.17a.24.24,0,0,1-.06-.2.26.26,0,0,1,.12-.17l2.05-1.22a.25.25,0,0,1,.31,0l1.86,2.09a.28.28,0,0,1,.06.2.32.32,0,0,1-.12.18l-2.09,1.3A.28.28,0,0,1,365.21,259.31ZM363.78,257l1.48,1.78,1.65-1L365.4,256Z" style="fill:#263238"></path><polygon points="364.35 259.6 362.53 257.41 360.41 258.68 362.21 260.93 364.35 259.6" style="fill:#fff"></polygon><path d="M362.21,261.18a.23.23,0,0,1-.19-.1l-1.81-2.24a.29.29,0,0,1,0-.2.24.24,0,0,1,.12-.17l2.12-1.27a.26.26,0,0,1,.32.05l1.82,2.19a.24.24,0,0,1,.06.2.23.23,0,0,1-.12.17l-2.13,1.33A.23.23,0,0,1,362.21,261.18Zm-1.43-2.43,1.49,1.85,1.71-1.06-1.51-1.8Z" style="fill:#263238"></path><polygon points="359.36 257.38 361.43 256.1 359.66 253.97 357.6 255.19 359.36 257.38" style="fill:#fff"></polygon><path d="M359.36,257.63a.25.25,0,0,1-.2-.1l-1.76-2.19a.28.28,0,0,1,0-.2.26.26,0,0,1,.12-.17l2.06-1.22a.25.25,0,0,1,.32.06l1.77,2.13a.24.24,0,0,1,.06.2.23.23,0,0,1-.12.17l-2.07,1.28A.22.22,0,0,1,359.36,257.63ZM358,255.26l1.45,1.79,1.63-1-1.45-1.75Z" style="fill:#263238"></path><polygon points="368.02 262.44 370.05 261.17 368.2 259.08 366.21 260.27 368.02 262.44" style="fill:#fff"></polygon><path d="M368,262.69a.28.28,0,0,1-.19-.09L366,260.43a.21.21,0,0,1,0-.2.25.25,0,0,1,.11-.18l2-1.18a.26.26,0,0,1,.32,0l1.85,2.09a.26.26,0,0,1,.06.21.23.23,0,0,1-.12.17l-2,1.27A.28.28,0,0,1,368,262.69Zm-1.43-2.36,1.48,1.78,1.6-1-1.52-1.72Z" style="fill:#263238"></path><polygon points="362.29 255.57 364.47 254.22 362.66 252.19 360.53 253.45 362.29 255.57" style="fill:#fff"></polygon><path d="M362.29,255.82a.25.25,0,0,1-.19-.09l-1.76-2.12a.24.24,0,0,1-.06-.2.26.26,0,0,1,.12-.17l2.13-1.26a.25.25,0,0,1,.31.05l1.82,2a.26.26,0,0,1,.06.21.24.24,0,0,1-.12.17l-2.18,1.35A.2.2,0,0,1,362.29,255.82Zm-1.38-2.3,1.43,1.72,1.75-1.07-1.48-1.66Z" style="fill:#263238"></path><polygon points="362.29 262.61 359.83 264.08 361.53 266.48 364.11 264.87 362.29 262.61" style="fill:#fff"></polygon><path d="M361.53,266.72a.25.25,0,0,1-.2-.1l-1.7-2.4a.21.21,0,0,1,0-.19.25.25,0,0,1,.11-.17l2.46-1.46a.24.24,0,0,1,.32.06l1.82,2.26a.28.28,0,0,1,.05.2.25.25,0,0,1-.11.17l-2.57,1.6A.35.35,0,0,1,361.53,266.72Zm-1.34-2.56,1.41,2,2.13-1.33-1.5-1.87Z" style="fill:#263238"></path><polygon points="359.54 259.2 357.07 260.67 358.78 263.07 361.36 261.46 359.54 259.2" style="fill:#fff"></polygon><path d="M358.78,263.32a.26.26,0,0,1-.21-.11l-1.7-2.39a.28.28,0,0,1,0-.2.22.22,0,0,1,.12-.16l2.46-1.48a.25.25,0,0,1,.32.06l1.82,2.26a.25.25,0,0,1,.06.2.27.27,0,0,1-.12.17l-2.58,1.61A.33.33,0,0,1,358.78,263.32Zm-1.35-2.57,1.42,2L361,261.4l-1.51-1.87Z" style="fill:#263238"></path><polygon points="356.73 255.7 354.46 257.04 356.13 259.37 358.5 257.91 356.73 255.7" style="fill:#fff"></polygon><path d="M356.13,259.62a.26.26,0,0,1-.2-.1l-1.67-2.33a.28.28,0,0,1,0-.2.24.24,0,0,1,.12-.16l2.26-1.34a.25.25,0,0,1,.32.06l1.78,2.2a.29.29,0,0,1,.05.2.26.26,0,0,1-.12.17l-2.37,1.46A.2.2,0,0,1,356.13,259.62Zm-1.3-2.5L356.2,259l1.93-1.2L356.67,256Z" style="fill:#263238"></path><path d="M375,283.68s-12.55-14-13.44-14.87.25-3.45,0-4.72-1.92-3.06-2.3-3.83-.64-3.57-1.53-3.83a1.73,1.73,0,0,0-2,1.79,6.61,6.61,0,0,0,.77,2.68l.76,2.17L352,257.45a2,2,0,0,0-.76,2.05c.38,1.14,1.27,6.25,1.78,7.78s.89,3.06,2.81,4.21a22.52,22.52,0,0,1,3.19,2.29l8.62,17.66S372.37,284.15,375,283.68Z" style="fill:#fff"></path><path d="M367.63,291.94h0a.53.53,0,0,1-.42-.28l-8.58-17.57a22.22,22.22,0,0,0-3-2.17,6.55,6.55,0,0,1-2.92-4.16l-.1-.32c-.29-.85-.66-2.68-1-4.44-.3-1.46-.59-2.84-.76-3.35a2.52,2.52,0,0,1,.93-2.59.51.51,0,0,1,.68.05l3.55,3.82a6.87,6.87,0,0,1-.72-2.71,2.38,2.38,0,0,1,.92-1.9,2.07,2.07,0,0,1,1.76-.37c.88.26,1.2,1.62,1.51,2.94a7.5,7.5,0,0,0,.33,1.15,10,10,0,0,0,.68,1,8.94,8.94,0,0,1,1.66,2.95,6.3,6.3,0,0,1-.15,2.15c-.15.88-.34,2,0,2.31.89.9,12.95,14.33,13.47,14.9a.5.5,0,0,1-.29.82c-2,.36-5.76,5.56-7,7.54A.53.53,0,0,1,367.63,291.94ZM352,258.18a1.28,1.28,0,0,0-.28,1.16c.19.56.47,1.9.79,3.45s.73,3.54,1,4.33l.1.33a5.57,5.57,0,0,0,2.48,3.61,22.43,22.43,0,0,1,3.27,2.35.57.57,0,0,1,.12.15l8.23,16.88c1.2-1.75,4.16-5.83,6.44-7-2.33-2.6-12.15-13.53-12.92-14.3s-.5-2-.29-3.19a6.27,6.27,0,0,0,.15-1.78,8.44,8.44,0,0,0-1.49-2.56,10.39,10.39,0,0,1-.77-1.15,7.68,7.68,0,0,1-.4-1.36c-.14-.58-.5-2.1-.82-2.21a1,1,0,0,0-.87.21,1.34,1.34,0,0,0-.53,1.1,6.32,6.32,0,0,0,.7,2.44l.8,2.24a.5.5,0,0,1-.84.51Z" style="fill:#263238"></path><path d="M372,258.59l-1,1.92s1.46,1.52,2.85,2.71a4,4,0,0,0,3.07.88,11.09,11.09,0,0,0,1.94.39c.48,0,1.46-1.79,1.46-1.79l1.67-1.42S375.29,256.38,372,258.59Z" style="fill:#fff"></path><path d="M378.79,265a10.09,10.09,0,0,1-1.94-.39,4.49,4.49,0,0,1-3.36-1c-1.4-1.19-2.83-2.68-2.89-2.74a.5.5,0,0,1-.09-.58l1-1.92a.49.49,0,0,1,.16-.19c3.57-2.37,10.26,2.5,10.55,2.71a.48.48,0,0,1,.2.38.5.5,0,0,1-.17.4L380.67,263c-.72,1.29-1.33,2-1.83,2Zm-1.91-1.4a.34.34,0,0,1,.14,0,7.94,7.94,0,0,0,1.78.37,7.88,7.88,0,0,0,1-1.53.41.41,0,0,1,.12-.14l1.17-1c-1.57-1-6.27-3.89-8.77-2.38l-.79,1.48c.47.49,1.55,1.55,2.57,2.42a3.46,3.46,0,0,0,2.65.77Z" style="fill:#263238"></path><path d="M375.46,255.79s-3.84.17-5.61.3-4.19.85-3.38,1.88,2.82.64,3.92.64a45.75,45.75,0,0,1,4.84.75,10.48,10.48,0,0,1-2.67,1.61c-1.42.54-4,1.54-2.55,2.12a5.51,5.51,0,0,0,3.8.13,9.09,9.09,0,0,1,3.2-.67,9.43,9.43,0,0,0,3.27.15l2.11-.19,6.59,9,8-1.35s-12-11.5-14.5-12.83S375.46,255.79,375.46,255.79Z" style="fill:#fff"></path><path d="M389,272a.51.51,0,0,1-.4-.2L382.15,263l-1.82.16a9,9,0,0,1-2.82-.06l-.56-.09a7.62,7.62,0,0,0-2.7.56l-.28.09a6,6,0,0,1-4.14-.15c-.62-.24-.75-.61-.75-.87,0-.78,1.06-1.32,3.3-2.18a9,9,0,0,0,1.64-.86,30.1,30.1,0,0,0-3.63-.53h0l-.71,0c-1.17.07-2.78.16-3.6-.86a1.08,1.08,0,0,1-.19-1.13c.58-1.31,3.79-1.55,3.92-1.56,1.76-.13,5.59-.29,5.63-.3h0c.19,0,4.68.21,7.21,1.59s14.11,12.43,14.61,12.9a.51.51,0,0,1,.13.51.5.5,0,0,1-.39.35l-8,1.36Zm-6.59-10a.49.49,0,0,1,.4.21L389.2,271l6.68-1.14c-2.63-2.49-11.63-11-13.67-12.06-2.25-1.22-6.42-1.45-6.75-1.46s-3.9.17-5.58.29-3,.7-3.07,1h0s0,0,.05.09c.49.62,1.81.55,2.77.49l.76,0h0a44.86,44.86,0,0,1,4.94.76.51.51,0,0,1,.39.37.52.52,0,0,1-.16.5,11.19,11.19,0,0,1-2.82,1.7,13.64,13.64,0,0,0-2.55,1.18h0a5.06,5.06,0,0,0,3.47.13l.28-.09a8.14,8.14,0,0,1,3.12-.6c.24,0,.44.06.63.09a7.72,7.72,0,0,0,2.55.05l2.1-.19Zm-12.36.53Z" style="fill:#263238"></path><path d="M430.68,276.41c-1.27-6.84-1.27-14.79-2.39-17.18s-14.16-6.84-16.38-6.36c0,0-30.87,7.79-30.71,9.7s-2.07,25.94-2.07,25.94a18.6,18.6,0,0,0-4.13-4.83,19.4,19.4,0,0,0-5.79,5.41c-.63.88-1.15,1.66-1.58,2.35,2.95,4.26,5.59,7.95,6.57,9,2.71,2.86,8.43,5.72,8.43,5.72s9.87,6.37,21.64,4.14,13.05-4.77,13.05-4.77l2.21-6.37s3.63-2.58,4.58-4S432,283.26,430.68,276.41Z" style="fill:#90CAF9"></path><path d="M399.21,311.27a34.4,34.4,0,0,1-16.85-4.69c-.19-.09-5.79-2.91-8.52-5.8-.88-.93-3.11-4-6.63-9.06a.52.52,0,0,1,0-.55c.48-.76,1-1.56,1.61-2.37a19.68,19.68,0,0,1,6-5.57.49.49,0,0,1,.53.07,19.77,19.77,0,0,1,3.45,3.72c.79-8.58,2.05-23,1.93-24.4-.05-.64-.13-1.61,15.66-6.1,7.61-2.16,15.35-4.12,15.42-4.14,2.41-.52,15.7,3.92,17,6.64.64,1.38.91,4.26,1.25,7.91.28,2.95.59,6.29,1.17,9.39h0c1.24,6.64-4.77,16.3-6.64,19.1-.9,1.35-3.91,3.57-4.58,4.05l-2.16,6.22c-.17.35-1.75,2.89-13.43,5.1A27.14,27.14,0,0,1,399.21,311.27Zm-31-19.85c3.38,4.88,5.51,7.8,6.34,8.67,2.61,2.77,8.23,5.6,8.29,5.63s9.89,6.25,21.32,4.09c11.13-2.11,12.68-4.5,12.7-4.52l2.17-6.29a.53.53,0,0,1,.19-.25s3.57-2.54,4.46-3.88c1.29-1.94,7.68-11.94,6.49-18.36-.59-3.15-.9-6.51-1.18-9.48-.32-3.42-.6-6.37-1.17-7.59-1-2.06-13.6-6.57-15.83-6.08-13.9,3.51-29.13,7.93-30.3,9.28.09,2.54-2,24.94-2.08,25.91a.49.49,0,0,1-.93.2,18.89,18.89,0,0,0-3.76-4.47,19.91,19.91,0,0,0-5.32,5.1C369.11,290.08,368.65,290.77,368.23,291.42Z" style="fill:#263238"></path><path d="M426.52,272.89l-.12,0a.5.5,0,0,1-.36-.61l1-3.77a.51.51,0,0,1,.61-.36.5.5,0,0,1,.36.61l-1,3.77A.5.5,0,0,1,426.52,272.89Z" style="fill:#263238"></path><path d="M419.72,299.09l-.13,0a.51.51,0,0,1-.36-.61l5.64-21.69a.5.5,0,0,1,1,.26l-5.64,21.68A.5.5,0,0,1,419.72,299.09Z" style="fill:#263238"></path><path d="M388.68,222.8A10.87,10.87,0,0,0,386,229c-.15,3.5-.47,8.43-1,9.22s-3.5,2.39-2.7,3.82,3.5,2.71,3.5,2.71,2.86,8.27,4.29,8.75,5.41-1.75,5.41-1.75l1.59,6.84,15-3-1.6-8.11s4.3-6.84,1.6-18-11.62-11.13-16.07-9.86A28.37,28.37,0,0,0,388.68,222.8Z" style="fill:#fff"></path><path d="M397.11,259.1a.51.51,0,0,1-.49-.39l-1.44-6.21c-1.27.67-3.93,1.91-5.23,1.48-1.5-.5-3.77-6.67-4.54-8.87-.66-.33-2.79-1.48-3.53-2.82s.75-2.61,1.86-3.52a5.82,5.82,0,0,0,.85-.79c.24-.4.61-3,.89-9a11.31,11.31,0,0,1,2.83-6.52l.09-.08a28.92,28.92,0,0,1,7.46-3.24c1.38-.4,6.22-1.49,10.55,1,3,1.76,5.09,4.85,6.14,9.18,2.52,10.37-.88,17-1.55,18.19l1.56,7.93a.5.5,0,0,1-.4.58l-15,3Zm-1.59-7.85a.46.46,0,0,1,.2.05.5.5,0,0,1,.29.34l1.48,6.37,14-2.83-1.5-7.62a.53.53,0,0,1,.07-.37c0-.06,4.15-6.81,1.53-17.59-1-4.06-2.9-6.94-5.68-8.56-4-2.32-8.48-1.31-9.77-.94a28.6,28.6,0,0,0-7.12,3.08,10.44,10.44,0,0,0-2.54,5.85c-.25,5.56-.59,8.75-1,9.46a5.06,5.06,0,0,1-1.07,1c-.84.69-2,1.63-1.63,2.27A8.84,8.84,0,0,0,386,244.3a.53.53,0,0,1,.26.29c1.34,3.88,3.26,8.19,4,8.44s3.44-.83,5-1.71A.51.51,0,0,1,395.52,251.25Z" style="fill:#263238"></path><ellipse cx="387.8" cy="237.04" rx="0.56" ry="1.67" style="fill:#263238"></ellipse><path d="M388.13,246.9a2.08,2.08,0,0,1-.54-.07.51.51,0,0,1-.35-.62.5.5,0,0,1,.61-.35c.14,0,1.37.28,2.12-1.46a.5.5,0,0,1,.92.39A3,3,0,0,1,388.13,246.9Z" style="fill:#263238"></path><path d="M389.79,234.44a.51.51,0,0,1-.46-.31,1,1,0,0,0-.61-.64,2.47,2.47,0,0,0-1.68.39.5.5,0,1,1-.54-.84,3.34,3.34,0,0,1,2.51-.5,2,2,0,0,1,1.25,1.2.52.52,0,0,1-.27.66A.71.71,0,0,1,389.79,234.44Z" style="fill:#263238"></path><path d="M380.09,219.78s1,3.66,2.23,4.61,3.65,2.39,3.65,2.39l1.75-2.39a5.16,5.16,0,0,0,2.07,5.41c3,2.39,5.73,7.64,5.73,7.64s-2.23,14-1.43,17.34,3.5,4,10.66,3.18S427,256.05,427,248.89s-6.52-13.52-8.75-17.82-2.23-17.5-16.07-18.45C395.83,212.18,384.2,214.76,380.09,219.78Z" style="fill:#263238"></path><path d="M400.18,258.77c-3.75,0-5.88-.95-6.58-3.88-.77-3.23,1.14-15.7,1.4-17.37-.45-.84-2.89-5.25-5.52-7.33a5.91,5.91,0,0,1-2.38-4.11l-.72,1a.5.5,0,0,1-.66.14c-.1-.06-2.43-1.46-3.7-2.42s-2.31-4.49-2.42-4.89a.5.5,0,0,1,.1-.44c4.28-5.22,16-7.79,22.54-7.34,11.21.77,13.63,9.35,15.22,15a22.46,22.46,0,0,0,1.25,3.7,39.56,39.56,0,0,0,2.68,4.1c2.73,3.87,6.13,8.68,6.13,13.95,0,7.15-13.29,8.56-21.24,9.41l-1.48.16A43.91,43.91,0,0,1,400.18,258.77Zm-12.46-34.88a.46.46,0,0,1,.23.06.48.48,0,0,1,.25.59,4.64,4.64,0,0,0,1.9,4.87c3.07,2.42,5.75,7.58,5.86,7.8a.47.47,0,0,1,.05.31c0,.13-2.2,13.94-1.44,17.14.7,2.93,3.06,3.59,10.12,2.8l1.49-.16c7.11-.75,20.34-2.16,20.34-8.41,0-4.95-3.3-9.62-5.95-13.37a39.92,39.92,0,0,1-2.74-4.22,21.48,21.48,0,0,1-1.33-3.89c-1.61-5.72-3.82-13.57-14.33-14.29-6.08-.42-17.37,2-21.53,6.78.32,1.12,1.12,3.45,2,4.09s2.5,1.68,3.22,2.12l1.48-2A.49.49,0,0,1,387.72,223.89Z" style="fill:#263238"></path><path d="M383.36,306.7a5.7,5.7,0,0,1-.78,0,.5.5,0,0,1-.44-.55.48.48,0,0,1,.55-.44s2.8.27,4-1c1-1.09,5.13-18.29,7.51-28.87a.49.49,0,0,1,.59-.38.5.5,0,0,1,.38.6c-1,4.64-6.31,27.89-7.77,29.35A6,6,0,0,1,383.36,306.7Z" style="fill:#263238"></path><path d="M382.32,300a.51.51,0,0,1-.35-.13c-2-1.89-2.79-5.8-3.12-8.5a13,13,0,0,0,0,5.31.5.5,0,0,1-1,.23,15.87,15.87,0,0,1,.82-8.57.5.5,0,0,1,1,.18c0,.08.19,7.93,3,10.62a.5.5,0,0,1-.34.86Z" style="fill:#263238"></path><path d="M388.36,281.05a.49.49,0,0,1-.38-.18,16.44,16.44,0,0,1-1.56-2.26.5.5,0,0,1,.86-.5,15.91,15.91,0,0,0,1.47,2.12.52.52,0,0,1-.07.71A.54.54,0,0,1,388.36,281.05Z" style="fill:#263238"></path><path d="M385.64,276.54a.48.48,0,0,1-.45-.28,57.13,57.13,0,0,1-3.36-9.76.51.51,0,0,1,.37-.6.5.5,0,0,1,.6.38,56.35,56.35,0,0,0,3.29,9.55.5.5,0,0,1-.24.67A.52.52,0,0,1,385.64,276.54Z" style="fill:#263238"></path></g><g id="freepik--character-2--inject-7"><path d="M283.77,398.06s-22.63-12.33-25.24-11.32-6.38,7.26-5.8,10.3,4.64,20.89,4.78,21.76,25.25,9.72,25.25,9.72Z" style="fill:#263238"></path><path d="M282.76,429l-.17,0c-25.38-8.95-25.51-9.77-25.57-10.11s-.8-3.66-1.65-7.49c-1.25-5.56-2.79-12.47-3.13-14.26-.64-3.34,3.35-9.79,6.11-10.86s21.85,9.26,25.66,11.34a.49.49,0,0,1,.26.46l-1,30.46a.53.53,0,0,1-.22.4A.57.57,0,0,1,282.76,429ZM258,418.57c1.39,1,15.26,6.06,24.3,9.26l1-29.48c-10.8-5.88-23-11.73-24.55-11.14-2.35.91-6,6.89-5.49,9.74.34,1.78,1.88,8.68,3.12,14.23C257.25,415.23,257.84,417.86,258,418.57Z" style="fill:#263238"></path><path d="M278.55,426.12a.5.5,0,0,1-.32-.11c-6.07-4.92-18.85-23.26-19.39-24a.5.5,0,0,1,.83-.57c.13.19,13.23,19,19.19,23.83a.5.5,0,0,1-.31.89Z" style="fill:#fff"></path><path d="M232.11,317.05s2.45.34,2.45,1.27-1.35,4.06-1.61,4.82-2.36-.51-2.36-1.27A36.86,36.86,0,0,1,232.11,317.05Z" style="fill:#fff"></path><path d="M232.56,323.88l-.23,0c-.86-.14-2.24-1.11-2.24-2a32.11,32.11,0,0,1,1.55-5,.51.51,0,0,1,.54-.32c.67.09,2.88.49,2.88,1.76a16.74,16.74,0,0,1-1.27,4c-.16.42-.3.77-.36,1A.86.86,0,0,1,232.56,323.88Zm-.13-6.27a29.74,29.74,0,0,0-1.34,4.26,1.46,1.46,0,0,0,.59.62,2.11,2.11,0,0,0,.84.38c.07-.21.2-.52.34-.9a19.09,19.09,0,0,0,1.2-3.65C234.06,318.15,233.36,317.8,232.43,317.61Z" style="fill:#263238"></path><path d="M234.56,318.32s1.44,2,1.27,3a10.45,10.45,0,0,1-2,3.56c-.25.08-.85-1.78-.85-1.78Z" style="fill:#fff"></path><path d="M233.8,325.42a.82.82,0,0,1-.28-.06c-.14-.07-.46-.24-1-2.07a.55.55,0,0,1,0-.31l1.61-4.82a.47.47,0,0,1,.4-.33.48.48,0,0,1,.48.2c.26.37,1.55,2.26,1.35,3.42-.15.94-1.76,3.74-2.36,3.94A.45.45,0,0,1,233.8,325.42Zm-.32-2.28a10,10,0,0,0,.37,1,10.34,10.34,0,0,0,1.49-2.83,3.83,3.83,0,0,0-.64-1.8Z" style="fill:#263238"></path><path d="M235.83,321.36s.93,1.7.51,2.54-1.19,2.29-1.78,2.2-.08-.84-.08-.84Z" style="fill:#fff"></path><path d="M234.62,326.6h-.13a.8.8,0,0,1-.65-.46A1.3,1.3,0,0,1,234,325l1.34-3.84a.47.47,0,0,1,.43-.33.49.49,0,0,1,.48.25c.17.33,1,2,.51,3C236,325.61,235.38,326.6,234.62,326.6Zm-.14-1.35h0Zm1.38-2.46-.82,2.37a11.37,11.37,0,0,0,.85-1.48A1.37,1.37,0,0,0,235.86,322.79Z" style="fill:#263238"></path><path d="M287.25,344.24s-12.62-2.47-13.78-1.74S251.28,366,251.28,366s-5.37-9.43-9.43-18.14A136.59,136.59,0,0,1,235.17,330s-4.2-12.77-7.11-11.61-5.8,10-3.77,12,7.26,7.54,7.26,7.54,3.48,20.45,8.27,29.45,8.41,17.12,9.72,16.54,23.21-19.59,23.21-19.59-1.16,11.17-.29,13.64,3.48,7,3.77,7.69.87,33.22.87,33.22a58.74,58.74,0,0,0-18.43-4.21c-10.73-.72-29.3,3.77-30.61,5.37s-2.17,9.86-.43,11.46,15.23,14.36,18.42,14.36,48.89,13.2,50.92,14.22,12.19,10.88,14.95,11.32,5.36.43,7.25-1.6-1.45-6.38-3.77-10.59a17.78,17.78,0,0,0-6.53-6.82c-1-.58-3.34-7-3.34-7S322.65,440.85,327,434s1.89-15.24.29-19.59-4.06-9.72-4.06-9.72,6.09-23.79,5.08-29.3-13.35-30.32-13.78-30.9-.44-.58-1.31-.58-2.9.29-2.9.29Z" style="fill:#fff"></path><path d="M314.45,472.2a17.35,17.35,0,0,1-2.61-.24c-1.71-.27-5.47-3.39-10.21-7.45a47.35,47.35,0,0,0-4.88-3.91c-1.88-.94-47.7-14.17-50.7-14.17-2.11,0-8.06-4.56-18.17-13.95l-.59-.54c-1.95-1.79-1.1-10.32.39-12.15s20.45-6.26,31-5.55a61.77,61.77,0,0,1,17.88,3.95c-.24-12.75-.64-31.36-.84-32.32-.07-.16-.41-.81-.81-1.56a54,54,0,0,1-3-6.1c-.72-2.07-.13-9.59.15-12.61-4.56,3.95-21.17,18.3-22.39,18.84s-2.85-2.18-7-10.29c-1-2-2.16-4.22-3.36-6.47-4.6-8.65-7.94-27.43-8.29-29.45-.75-.78-5.3-5.58-7.14-7.42-1.15-1.15-.85-3.66-.56-5.05.65-3.18,2.45-7,4.5-7.81a1.66,1.66,0,0,1,1.34.07c2.9,1.35,6.08,10.77,6.43,11.84a137,137,0,0,0,6.65,17.79c3.43,7.35,7.84,15.3,9.07,17.5,3.61-3.9,20.72-22.38,21.84-23.08s10.21.91,14.09,1.67h23a27.58,27.58,0,0,1,2.9-.29c1,0,1.15,0,1.71.78.67.9,12.86,25.6,13.87,31.11s-4.45,27-5,29.35c.42.93,2.57,5.69,4,9.59,3,8.22,2.9,15-.34,20-4,6.3-18.25,10.67-21.23,11.52,1.06,2.84,2.42,5.89,2.93,6.2a18.28,18.28,0,0,1,6.72,7c.45.81.93,1.63,1.41,2.44,2.09,3.51,4.06,6.82,2.29,8.73A6.58,6.58,0,0,1,314.45,472.2Zm-58.33-57c-11.1,0-26.75,4.15-27.67,5.27-1.13,1.38-2,9.37-.48,10.77l.59.55c12.83,11.91,16.47,13.68,17.49,13.68,3.31,0,49.09,13.24,51.15,14.27a46,46,0,0,1,5.08,4.05c3.44,2.95,8.14,7,9.71,7.22,2.48.39,5,.49,6.81-1.44,1.27-1.36-.52-4.36-2.41-7.54-.48-.82-1-1.65-1.43-2.47a17.3,17.3,0,0,0-6.34-6.62c-1.09-.63-3-5.69-3.56-7.23a.51.51,0,0,1,0-.4.5.5,0,0,1,.31-.26c.17,0,17-4.67,21.18-11.24,3.06-4.8,3.14-11.24.24-19.15-1.57-4.28-4-9.62-4-9.68a.47.47,0,0,1,0-.33c.06-.24,6.05-23.75,5.07-29.09s-13-29.69-13.7-30.7c-.28-.37-.28-.37-.9-.37-.82,0-2.81.28-2.83.28H287.16c-6-1.17-12.64-2.16-13.43-1.8-.89.6-13.7,14.33-22.09,23.41a.54.54,0,0,1-.42.16.53.53,0,0,1-.38-.25c-.05-.1-5.42-9.55-9.45-18.17a140.27,140.27,0,0,1-6.7-17.92c-.91-2.78-3.77-10.24-5.89-11.23a.65.65,0,0,0-.55-.05c-1.44.58-3.22,3.82-3.89,7.08-.41,2-.31,3.55.29,4.14,2,2,7.21,7.5,7.26,7.56a.5.5,0,0,1,.13.26c0,.2,3.52,20.47,8.22,29.29,1.2,2.26,2.32,4.46,3.36,6.48,2.32,4.52,4.94,9.64,5.79,9.83.92-.47,14.28-11.92,23-19.5A.5.5,0,0,1,273,364a.48.48,0,0,1,.26.49c-.32,3.08-1,11.49-.31,13.42a53.24,53.24,0,0,0,2.89,6c.51,1,.77,1.46.87,1.7.3.73.73,23.6.91,33.4a.51.51,0,0,1-.23.43.48.48,0,0,1-.48,0,58.84,58.84,0,0,0-18.25-4.16C257.84,415.19,257,415.16,256.12,415.16Z" style="fill:#263238"></path><path d="M224.07,329.31s-2-5.49-2.11-6.42a45.71,45.71,0,0,1-.34-5.33A36.55,36.55,0,0,1,228.3,315c1.69-.34,2.54-1.77,2.79-.76a3.43,3.43,0,0,1-.84,2.88c-.68.93-3.55,1.6-3.55,1.6v4.15l4.06,1.69" style="fill:#fff"></path><path d="M224.07,329.81a.48.48,0,0,1-.46-.32,66.53,66.53,0,0,1-2.15-6.56l0-.49c-.46-4.79-.36-4.94-.21-5.16.36-.54,5.79-2.51,7-2.75a4.78,4.78,0,0,0,1.59-.71c.45-.29.85-.53,1.27-.36a.91.91,0,0,1,.51.68,3.93,3.93,0,0,1-.93,3.29c-.63.86-2.55,1.46-3.45,1.7v3.42l3.75,1.57a.5.5,0,1,1-.39.92l-4.06-1.69a.51.51,0,0,1-.3-.46v-4.15a.49.49,0,0,1,.38-.48c1.12-.27,2.87-.88,3.26-1.42a3,3,0,0,0,.79-2.36l-.31.19a5.66,5.66,0,0,1-1.92.84,41.62,41.62,0,0,0-6.32,2.34c0,.51.09,2,.33,4.5l.05.49c.06.63,1.31,4.2,2.08,6.3a.49.49,0,0,1-.29.64A.57.57,0,0,1,224.07,329.81Z" style="fill:#263238"></path><path d="M319.17,469.87c1.89-2-1.45-6.38-3.77-10.59a17.78,17.78,0,0,0-6.53-6.82c-.94-.54-3-6.07-3.3-6.86-4.1.22-13.7.7-14.83.48,0,0-1.75,1.3-1,5.08s4.06,6.67,7.25,9c2,1,12.19,10.88,14.95,11.32S317.28,471.9,319.17,469.87Z" style="fill:#fff"></path><path d="M314.45,472.2a17.35,17.35,0,0,1-2.61-.24c-1.71-.27-5.47-3.39-10.21-7.45a47.35,47.35,0,0,0-4.88-3.91c-3.33-2.41-6.76-5.37-7.52-9.35s1.12-5.51,1.21-5.57a.45.45,0,0,1,.39-.09c.75.15,6.25,0,14.71-.49a.48.48,0,0,1,.5.33c1.28,3.47,2.6,6.31,3.08,6.6a18.28,18.28,0,0,1,6.72,7c.45.81.93,1.63,1.41,2.44,2.09,3.51,4.06,6.82,2.29,8.73h0A6.58,6.58,0,0,1,314.45,472.2Zm-23.54-25.6c-.35.38-1.24,1.66-.7,4.46.7,3.64,4,6.43,7.06,8.69a45.38,45.38,0,0,1,5,4c3.44,2.95,8.14,7,9.71,7.22,2.48.39,5,.49,6.81-1.44,1.27-1.36-.52-4.36-2.41-7.54-.48-.82-1-1.65-1.43-2.47a17.3,17.3,0,0,0-6.34-6.62c-.94-.54-2.48-4.34-3.39-6.78C300.4,446.38,292.73,446.75,290.91,446.6Zm28.26,23.27h0Z" style="fill:#263238"></path><path d="M296.39,452.17c2.32,2.9,2.18,4.5,4.36,8.27s9.84,10.18,13.28,11.25a6.26,6.26,0,0,0,5.14-1.82c1.89-2-1.45-6.38-3.77-10.59a17.78,17.78,0,0,0-6.53-6.82c-.94-.54-3-6.07-3.3-6.86-2.21.12-6,.31-9.24.43C296,446.59,294.3,449.55,296.39,452.17Z" style="fill:#fff"></path><path d="M314.46,472.19H314a.61.61,0,0,1-.13,0c-3.64-1.13-11.37-7.67-13.57-11.47a34.45,34.45,0,0,1-1.91-3.94,15,15,0,0,0-2.4-4.27h0c-2.3-2.87-.48-6.1-.09-6.71a.5.5,0,0,1,.4-.24c3.08-.11,6.72-.3,9.23-.43a.48.48,0,0,1,.5.33c1.28,3.47,2.6,6.31,3.08,6.6a18.28,18.28,0,0,1,6.72,7c.45.81.93,1.63,1.41,2.44,2.09,3.51,4.06,6.82,2.29,8.73A6.48,6.48,0,0,1,314.46,472.19Zm-.34-1a5.71,5.71,0,0,0,4.68-1.66c1.27-1.36-.52-4.36-2.41-7.54-.48-.82-1-1.65-1.43-2.47a17.3,17.3,0,0,0-6.34-6.62c-.94-.54-2.48-4.34-3.39-6.78-2.42.13-5.73.29-8.61.4a4.77,4.77,0,0,0,.16,5.34,16.41,16.41,0,0,1,2.55,4.5,29.57,29.57,0,0,0,1.85,3.83C303.23,463.75,310.68,470.07,314.12,471.19Z" style="fill:#263238"></path><path d="M323.23,404.73s6.09-23.79,5.08-29.3-13.35-30.32-13.78-30.9-.44-.58-1.31-.58-2.9.29-2.9.29H287.25s-12.62-2.47-13.78-1.74S251.28,366,251.28,366s-2.05-3.6-4.58-8.4a20.48,20.48,0,0,0-8.54,6.19,34.25,34.25,0,0,0,1.66,3.66c4.78,9,8.41,17.12,9.72,16.54s23.21-19.59,23.21-19.59-1.16,11.17-.29,13.64,3.48,7,3.77,7.69c.18.45.47,13.09.66,22.65,3.33,1.59,12.58,5.17,26,3.73,10.81-1.15,17.36-4.44,20.7-6.68Z" style="fill:#fff"></path><path d="M296.71,413a47.08,47.08,0,0,1-20-4.12.51.51,0,0,1-.29-.44c-.39-19.45-.58-22.23-.64-22.52s-.41-.81-.81-1.56a54,54,0,0,1-3-6.1c-.72-2.07-.13-9.59.15-12.61-4.56,3.95-21.17,18.3-22.39,18.84s-2.85-2.18-7-10.29c-1-2-2.16-4.22-3.36-6.47A37.65,37.65,0,0,1,237.7,364a.48.48,0,0,1,.08-.5,21,21,0,0,1,8.75-6.34.5.5,0,0,1,.62.23c1.9,3.62,3.54,6.58,4.22,7.79,3.61-3.9,20.72-22.38,21.84-23.08s10.29.92,14.14,1.68h23a27.58,27.58,0,0,1,2.9-.29c1,0,1.15,0,1.71.78.67.9,12.86,25.6,13.87,31.11s-4.45,27-5,29.35l.25.54a.51.51,0,0,1-.18.62c-3.66,2.45-10.27,5.62-20.93,6.76A58.87,58.87,0,0,1,296.71,413Zm-19.32-4.89c3.52,1.63,12.52,4.94,25.41,3.56,10.12-1.09,16.48-4,20.12-6.37l-.14-.31a.47.47,0,0,1,0-.33c.06-.24,6.05-23.75,5.07-29.09s-13-29.69-13.7-30.7c-.28-.37-.28-.37-.9-.37-.82,0-2.81.28-2.83.28H287.25c-6.07-1.18-12.73-2.17-13.52-1.81-.89.6-13.7,14.33-22.09,23.41a.5.5,0,0,1-.8-.09s-2-3.47-4.37-8a20.25,20.25,0,0,0-7.73,5.66,32.67,32.67,0,0,0,1.52,3.33c1.2,2.26,2.32,4.46,3.36,6.48,2.32,4.52,4.94,9.64,5.79,9.83.92-.47,14.28-11.92,23-19.5A.5.5,0,0,1,273,364a.48.48,0,0,1,.26.49c-.32,3.08-1,11.49-.31,13.42a53.24,53.24,0,0,0,2.89,6c.51,1,.77,1.46.87,1.7S276.94,386.16,277.39,408.06Z" style="fill:#263238"></path><polyline points="323.23 404.73 318.44 382.97 315.4 353.67" style="fill:#fff"></polyline><path d="M323.23,405.23a.51.51,0,0,1-.49-.39L318,383.08l-3.06-29.36a.5.5,0,1,1,1-.1l3.05,29.3,4.78,21.7a.5.5,0,0,1-.38.6Z" style="fill:#263238"></path><path d="M323.23,404.73s.15-.58.4-1.59c-2.09,1-8,3.45-19.11,6.38s-23-.54-27.65-2.23c.13,6.36.23,11.66.23,11.66a58.74,58.74,0,0,0-18.43-4.21c-10.73-.72-29.3,3.77-30.61,5.37s-2.17,9.86-.43,11.46,15.23,14.36,18.42,14.36c1.83,0,17.62,4.34,31.15,8.23-.09-.26-.17-.54-.25-.83-.58-2.32.87-8.7.87-8.7a76.68,76.68,0,0,0,16.69,1.74,93.89,93.89,0,0,0,11-.87S322.65,440.85,327,434s1.89-15.24.29-19.59S323.23,404.73,323.23,404.73Z" style="fill:#263238"></path><path d="M277.19,454.66l-.13,0c-16.8-4.83-29.55-8.21-31-8.21-2.11,0-8.06-4.56-18.17-13.95l-.59-.54c-1.95-1.79-1.11-10.32.39-12.15s20.45-6.26,31-5.55a61.77,61.77,0,0,1,17.88,3.95c0-1.68-.12-6-.22-10.89a.5.5,0,0,1,.67-.48c4.54,1.63,16.28,5.12,27.35,2.22s17-5.42,19-6.35a.49.49,0,0,1,.53.07.48.48,0,0,1,.16.5l-.35,1.42c.42.94,2.57,5.7,4,9.6,3,8.22,2.9,15-.34,20-4.4,6.9-21.05,11.48-21.76,11.67a93.21,93.21,0,0,1-11.13.89,76.45,76.45,0,0,1-16.32-1.65c-.32,1.51-1.23,6.17-.77,8,.07.28.15.54.23.79a.53.53,0,0,1-.11.51A.51.51,0,0,1,277.19,454.66Zm-21.07-39.5c-11.1,0-26.75,4.15-27.67,5.27-1.13,1.38-2,9.37-.48,10.77l.59.55c12.83,11.91,16.47,13.68,17.49,13.68,1.9,0,17.36,4.25,30.41,8-.58-2.43.82-8.65.88-8.91a.5.5,0,0,1,.59-.38,76.3,76.3,0,0,0,16.56,1.73,94.41,94.41,0,0,0,11-.87c.12,0,16.93-4.66,21.13-11.23,3.06-4.8,3.14-11.24.24-19.15-1.57-4.28-4-9.62-4-9.68a.47.47,0,0,1,0-.33s.05-.21.15-.59a129.42,129.42,0,0,1-18.26,6c-10.81,2.85-22.21-.26-27.25-2,.12,6,.21,10.94.21,10.94a.51.51,0,0,1-.23.43.48.48,0,0,1-.48,0,58.84,58.84,0,0,0-18.25-4.16C257.84,415.19,257,415.16,256.12,415.16Z" style="fill:#263238"></path><path d="M276.66,445a.57.57,0,0,1-.18,0c-.18-.07-18.79-7.29-24.4-9.88a21.72,21.72,0,0,0-6.07-1.69c-2.53-.42-4.91-.81-7.54-3.18a.5.5,0,0,1,.66-.74c2.42,2.17,4.56,2.53,7,2.93a23.4,23.4,0,0,1,6.33,1.77c5.58,2.58,24.16,9.78,24.34,9.86a.49.49,0,0,1,.29.64A.51.51,0,0,1,276.66,445Z" style="fill:#fff"></path><path d="M248.8,377.59a.49.49,0,0,1-.49-.43c-.42-3.12,2.38-11,2.5-11.33a.49.49,0,0,1,.63-.3.51.51,0,0,1,.31.64c0,.08-2.84,8-2.45,10.86a.51.51,0,0,1-.43.56Z" style="fill:#263238"></path><path d="M246,374.35a.5.5,0,0,1-.5-.5c0-3.13,2.58-7.74,2.69-7.93a.51.51,0,0,1,.69-.19.49.49,0,0,1,.18.68s-2.56,4.58-2.56,7.44A.5.5,0,0,1,246,374.35Z" style="fill:#263238"></path><path d="M272.75,364.9a.48.48,0,0,1-.41-.21.5.5,0,0,1,.12-.7l7.63-5.32a.5.5,0,0,1,.7.12.51.51,0,0,1-.12.7L273,364.81A.47.47,0,0,1,272.75,364.9Z" style="fill:#263238"></path><path d="M274.51,365.25a.53.53,0,0,1-.46-.3.51.51,0,0,1,.26-.66l7.28-3.24a.51.51,0,0,1,.67.25.5.5,0,0,1-.26.66l-7.29,3.24A.46.46,0,0,1,274.51,365.25Z" style="fill:#263238"></path><path d="M320.26,389.85l3,14.88s1.66-6.48,3.1-13.46A9.1,9.1,0,0,1,320.26,389.85Z" style="fill:#fff"></path><path d="M323.23,405.23h0a.49.49,0,0,1-.48-.4l-3-14.89a.5.5,0,0,1,.78-.5,8.67,8.67,0,0,0,5.7,1.34.49.49,0,0,1,.57.59c-1.43,6.92-3.09,13.42-3.1,13.49A.5.5,0,0,1,323.23,405.23ZM321,390.83l2.33,11.62c.57-2.36,1.52-6.36,2.41-10.59A9.39,9.39,0,0,1,321,390.83Z" style="fill:#263238"></path><path d="M231.94,313.67l-9.48,16.46a1,1,0,0,0,.38,1.38h0a1,1,0,0,0,1.39-.4l9-16.76.42-2Z" style="fill:#90CAF9"></path><path d="M223.33,332.14a1.52,1.52,0,0,1-1.45-1.11,1.54,1.54,0,0,1,.15-1.15l9.48-16.46a.47.47,0,0,1,.13-.15l1.69-1.27a.51.51,0,0,1,.57,0,.5.5,0,0,1,.22.53l-.42,1.94a.5.5,0,0,1,0,.13l-9,16.76a1.48,1.48,0,0,1-.92.74A1.52,1.52,0,0,1,223.33,332.14Zm9-18.13-9.42,16.37a.46.46,0,0,0-.05.38.45.45,0,0,0,.24.31.48.48,0,0,0,.39.05.5.5,0,0,0,.3-.25l8.95-16.7.13-.56Z" style="fill:#263238"></path><path d="M228.81,326.19s-.93-4-.93-4.23,1.27-3.72,1.52-4.57-.42-2.71,1.36-2.45,1.94,2.28,1.77,3.13a12.39,12.39,0,0,1-.76,2.11,40.73,40.73,0,0,1,2.71,5.08c.84,2.11-1.27,6.17-1.27,6.17" style="fill:#fff"></path><path d="M233.21,331.93a.46.46,0,0,1-.23-.06.49.49,0,0,1-.21-.67c.55-1.08,1.87-4.2,1.24-5.76a40.11,40.11,0,0,0-2.66-5,.51.51,0,0,1,0-.48,12,12,0,0,0,.72-2,2.8,2.8,0,0,0-.36-2,1.41,1.41,0,0,0-1-.59.77.77,0,0,0-.55.06c-.17.15-.17.64-.17,1a3.62,3.62,0,0,1-.09,1c-.1.35-.37,1.13-.66,2s-.8,2.3-.84,2.52.49,2.24.92,4.06a.5.5,0,0,1-1,.23c-.62-2.68-.94-4.14-.94-4.34a16.92,16.92,0,0,1,.89-2.8c.28-.81.55-1.57.65-1.91a3,3,0,0,0,.05-.72,2.26,2.26,0,0,1,.51-1.79,1.63,1.63,0,0,1,1.35-.3,2.42,2.42,0,0,1,1.67,1,3.79,3.79,0,0,1,.52,2.72,11.49,11.49,0,0,1-.68,2,39.72,39.72,0,0,1,2.6,4.93c.92,2.3-1.2,6.42-1.29,6.59A.5.5,0,0,1,233.21,331.93Z" style="fill:#263238"></path><path d="M277.37,318.2a2.72,2.72,0,0,1-1-.19,3.41,3.41,0,0,1-2-2.68,7.49,7.49,0,0,1,.48-4.09,7.39,7.39,0,0,1,2.46-3.31,3.37,3.37,0,0,1,3.25-.61c2,.8,2.67,3.77,1.48,6.77h0a7.45,7.45,0,0,1-2.45,3.31A3.88,3.88,0,0,1,277.37,318.2Zm2.19-10.07a2.91,2.91,0,0,0-1.65.61,6.41,6.41,0,0,0-2.11,2.87,6.34,6.34,0,0,0-.43,3.53,2.46,2.46,0,0,0,1.35,1.94,2.43,2.43,0,0,0,2.3-.49,6.46,6.46,0,0,0,2.11-2.87h0c.95-2.39.53-4.9-.91-5.47A1.84,1.84,0,0,0,279.56,308.13Z" style="fill:#263238"></path><path d="M282.32,305.65a42.89,42.89,0,0,0-1.74,4.64c-.87,2.76-2.9,5.37-4.35,5.51s-3.48-.14-3.34,1.45,2.18,3.49,2.18,3.49-.15,11,1.45,12.18,5.66,1,5.66,1l.29,7.54,8.27-.14a14.8,14.8,0,0,1-1.31-10.59c1.6-5.66,4.93-8.85,2.76-15.67S282.32,305.65,282.32,305.65Z" style="fill:#fff"></path><path d="M282.47,342a.5.5,0,0,1-.5-.48l-.27-7.06c-1.18,0-4.09-.11-5.48-1.11-1.63-1.19-1.68-9.51-1.65-12.38-.51-.51-2-2.15-2.18-3.65a1.59,1.59,0,0,1,.35-1.22,3.61,3.61,0,0,1,2.61-.72l.83-.05c1.09-.11,3.05-2.39,3.92-5.17a41.39,41.39,0,0,1,1.77-4.7.51.51,0,0,1,.61-.27c.33.12,8,2.78,10.18,9.76,1.62,5.06.27,8.27-1.16,11.66a36.26,36.26,0,0,0-1.59,4.29,14.42,14.42,0,0,0,1.26,10.2.5.5,0,0,1,0,.5.51.51,0,0,1-.43.26l-8.26.14Zm-.29-8.54a.5.5,0,0,1,.5.48L283,341l7-.12a15.13,15.13,0,0,1-1-10.24,36.35,36.35,0,0,1,1.63-4.41c1.41-3.36,2.63-6.26,1.13-11-1.78-5.58-7.51-8.28-9.12-8.94-.3.7-.92,2.21-1.53,4.15-.85,2.68-3,5.68-4.78,5.86-.28,0-.59,0-.89.05-.76,0-1.62.07-1.9.39,0,0-.13.15-.1.47.1,1.15,1.49,2.67,2,3.16a.52.52,0,0,1,.16.37c-.07,5.3.37,11.15,1.24,11.78,1.2.86,4.26,1,5.35.92Z" style="fill:#263238"></path><polygon points="283.92 344.38 286.82 388.34 300.89 386.45 293.78 343.51 283.92 344.38" style="fill:#90CAF9"></polygon><path d="M286.82,388.84a.52.52,0,0,1-.32-.11.5.5,0,0,1-.18-.36l-2.9-43.95a.5.5,0,0,1,.45-.54l9.87-.87a.53.53,0,0,1,.54.42l7.1,42.94a.48.48,0,0,1-.09.38.5.5,0,0,1-.33.2l-14.08,1.88Zm-2.37-44,2.83,42.93,13-1.74-6.95-42Z" style="fill:#263238"></path><path d="M291.32,337.27c-.44,0-11.32-.14-11.61,1.74s-1.68,3.72-.81,4.15a120.32,120.32,0,0,0,13.29,2.38C292.62,345.4,291.32,337.27,291.32,337.27Z" style="fill:#90CAF9"></path><path d="M292.13,346a123.79,123.79,0,0,1-13.46-2.43c-.93-.47-.5-1.58-.08-2.65a10.32,10.32,0,0,0,.63-2c.22-1.49,4.27-2.2,12-2.17a.62.62,0,0,1,.58.43c1.37,8.54,1,8.67.53,8.82Zm-1.59-8.27c-7.64,0-10.27.88-10.34,1.32a10.57,10.57,0,0,1-.68,2.23,4.2,4.2,0,0,0-.4,1.41c.69.32,10.54,2.1,12.66,2.3,0-1-.42-4.25-.89-7.26Z" style="fill:#263238"></path><path d="M290.59,319.64a.64.64,0,0,1-.23-.05l-15.25-7.72a.51.51,0,0,1-.23-.67.51.51,0,0,1,.68-.23l15.26,7.72a.52.52,0,0,1,.22.68A.51.51,0,0,1,290.59,319.64Z" style="fill:#263238"></path><path d="M298.71,297.52s-3-4.35-6.52-4.64S282,293,280.73,299.7s3.62,13.06,5.22,14.51,4.21,6.67,1.59,10.44-4.49,7.84-2.75,11,4.06,5.66,3.77,8.85-2.9,6.53-2.9,6.53,4.64,4.49,13.49,4.49a32.6,32.6,0,0,0,16.1-4.78,9.34,9.34,0,0,1-1-7.55c1.16-4.64,2.75-9.57,1-13.63s-5.07-3.49-2.9-9a20.33,20.33,0,0,0-1.45-18C307.42,296.94,298.71,297.52,298.71,297.52Z" style="fill:#263238"></path><path d="M299.15,356.05c-8.95,0-13.64-4.45-13.84-4.63a.52.52,0,0,1-.05-.67s2.53-3.26,2.8-6.27c.2-2.22-1-4.08-2.32-6.23-.46-.75-.94-1.51-1.39-2.33-2.06-3.78.6-8.4,2.78-11.55,2.48-3.58-.12-8.52-1.52-9.79s-6.77-7.87-5.38-15c1.43-7.29,8.87-7.48,12-7.22s6,3.7,6.73,4.63c1.57-.05,9.08,0,12.37,5.33a20.78,20.78,0,0,1,1.49,18.43c-1.31,3.31-.55,4.13.71,5.48a10.17,10.17,0,0,1,2.18,3.14c1.63,3.8.49,8.22-.62,12.5-.12.49-.25,1-.37,1.45a9,9,0,0,0,.93,7.13.48.48,0,0,1,.1.38.52.52,0,0,1-.22.33A32.72,32.72,0,0,1,299.15,356.05ZM286.34,351a20.46,20.46,0,0,0,12.81,4.07,32.29,32.29,0,0,0,15.41-4.44,10.11,10.11,0,0,1-.81-7.51c.12-.48.25-1,.37-1.46,1.07-4.12,2.17-8.37.67-11.86a9.29,9.29,0,0,0-2-2.85c-1.32-1.41-2.45-2.62-.91-6.52a19.8,19.8,0,0,0-1.42-17.55c-3.28-5.33-11.64-4.84-11.72-4.84a.5.5,0,0,1-.45-.21s-2.95-4.16-6.16-4.43c-2.86-.24-9.65-.09-10.92,6.42s3.75,12.84,5.06,14c1.64,1.48,4.54,7,1.68,11.1-3.19,4.59-4.08,8-2.73,10.5.43.79.9,1.55,1.36,2.28,1.39,2.21,2.7,4.3,2.47,6.85A14.81,14.81,0,0,1,286.34,351Z" style="fill:#263238"></path></g><g id="freepik--character-1--inject-7"><path d="M116.47,242.16l28.28,37.72s.29,9.15-2.21,12.28-7.95,2.79-15-1.52c-1.42-.86-13.41-14.54-13.41-14.54l.63-23.61S117.25,244.5,116.47,242.16Z" style="fill:#90CAF9"></path><path d="M137.69,294.76c-2.85,0-6.42-1.24-10.45-3.69-1.45-.87-12.29-13.23-13.52-14.64a.48.48,0,0,1-.13-.34l.63-23.61a.59.59,0,0,1,0-.14c.69-2.18,2.35-8.23,1.75-10a.51.51,0,0,1,.25-.6.5.5,0,0,1,.63.15l28.28,37.72a.56.56,0,0,1,.1.29c0,.38.27,9.37-2.32,12.6A6.36,6.36,0,0,1,137.69,294.76ZM114.6,275.92c4.8,5.48,12.17,13.7,13.16,14.3,6.62,4,12,4.62,14.39,1.63,2.19-2.73,2.12-10.59,2.1-11.8L117.1,243.84a43.51,43.51,0,0,1-1.88,8.73Z" style="fill:#263238"></path><path d="M125.65,286.24h-.09a.49.49,0,0,1-.4-.58c0-.2.92-5,3.43-7.36a.5.5,0,0,1,.69.73c-2.27,2.1-3.13,6.76-3.14,6.81A.49.49,0,0,1,125.65,286.24Z" style="fill:#263238"></path><path d="M122.36,281.23a.5.5,0,0,1-.39-.82c.13-.15,3.12-3.79,7.25-4.33a.5.5,0,1,1,.13,1c-3.73.49-6.57,3.94-6.6,4A.51.51,0,0,1,122.36,281.23Z" style="fill:#263238"></path><path d="M79.69,235.6S52.74,247,52.74,248.6,39,290.09,39.49,292s7.36,1.18,10.8,1.18S62.6,268.62,62.6,268.62l6.05,38.09,45.1-.11s8.1-54.21,5.76-60.62S100,234.66,100,234.66Z" style="fill:#90CAF9"></path><path d="M68.65,307.21a.5.5,0,0,1-.49-.42l-5.76-36.2c-2.39,6.46-8.88,23.06-12.11,23.06-.67,0-1.48,0-2.35.05-5,.17-8.49.15-8.93-1.61-.27-1.07,2.35-9.45,8.32-27.82,2.39-7.36,4.87-15,4.91-15.68,0-1.55,14.82-8.17,27.26-13.45a.47.47,0,0,1,.17,0l20.33-.94.16,0c.71.2,17.41,5,19.82,11.62s-5.41,58.66-5.74,60.88a.5.5,0,0,1-.49.42l-45.1.11ZM62.6,268.12h0a.5.5,0,0,1,.45.42l6,37.67,44.24-.11c.75-5.1,7.88-54,5.72-60s-17.83-10.62-19.08-11l-20.16.93c-9.8,4.16-25.51,11.19-26.56,12.6-.12.94-1.58,5.49-5,15.88s-8.44,26-8.3,27.29c.28,1.09,5.25.92,7.92.83.88,0,1.71-.05,2.39-.05,1.94,0,7.54-12.31,11.84-24.2A.5.5,0,0,1,62.6,268.12Z" style="fill:#263238"></path><path d="M54.85,286.05a.48.48,0,0,1-.42-.23,8.45,8.45,0,0,0-5.92-3.66.48.48,0,0,1-.39-.58.49.49,0,0,1,.58-.4,9.57,9.57,0,0,1,6.57,4.1.5.5,0,0,1-.15.69A.47.47,0,0,1,54.85,286.05Z" style="fill:#263238"></path><path d="M44.65,282a.5.5,0,0,1-.06-1,12.69,12.69,0,0,1,2.07,0,.49.49,0,0,1,.47.52.48.48,0,0,1-.53.47,13.19,13.19,0,0,0-1.89,0Z" style="fill:#263238"></path><path d="M54.81,283.36a.52.52,0,0,1-.42-.22A10.29,10.29,0,0,0,48.48,279a.5.5,0,1,1,.19-1,11.11,11.11,0,0,1,6.55,4.59.51.51,0,0,1-.41.79Z" style="fill:#263238"></path><path d="M62.6,269.12a.52.52,0,0,1-.47-.31l-2.94-7a.49.49,0,0,1,.27-.65.5.5,0,0,1,.65.26l3,7a.52.52,0,0,1-.27.66A.65.65,0,0,1,62.6,269.12Z" style="fill:#263238"></path><path d="M102.83,292.33a.49.49,0,0,1-.37-.16.5.5,0,0,1,0-.71,21.06,21.06,0,0,0,1.77-1.78.49.49,0,0,1,.7-.05.51.51,0,0,1,.06.71,21.93,21.93,0,0,1-1.87,1.87A.5.5,0,0,1,102.83,292.33Z" style="fill:#263238"></path><path d="M81.11,305.28a.49.49,0,0,1-.45-.3.49.49,0,0,1,.24-.66c.13-.05,12.49-5.7,19.8-11.37a.5.5,0,0,1,.61.79c-7.4,5.74-19.87,11.44-20,11.49A.54.54,0,0,1,81.11,305.28Z" style="fill:#263238"></path><path d="M77.88,303.43a.5.5,0,0,1-.35-.86l8.54-8.3a.5.5,0,0,1,.71,0,.5.5,0,0,1,0,.7l-8.54,8.31A.52.52,0,0,1,77.88,303.43Z" style="fill:#263238"></path><path d="M57.66,293.15a9.12,9.12,0,0,1-2.46-3.22c-1.14-2.27-6-5.16-10.21-5s-5.5,4.55-5.5,7,2.09,4.17,3.42,5.12,11.22,3,11.22,3l3.72-5.6Z" style="fill:#fff"></path><path d="M54.13,300.58H54c-1-.21-10-2.1-11.42-3.08C41.06,296.38,39,294.6,39,292c0-2.91,1.59-7.31,6-7.51s9.42,2.72,10.68,5.25a8.73,8.73,0,0,0,2.31,3,.5.5,0,0,1,.2.33l.19,1.33a.49.49,0,0,1-.08.35l-3.72,5.6A.52.52,0,0,1,54.13,300.58ZM45.4,285.45H45c-4.11.18-5,4.76-5,6.51,0,2.17,1.83,3.73,3.21,4.71.87.63,6.89,2.05,10.7,2.84l3.43-5.16-.13-.94a10.23,10.23,0,0,1-2.45-3.27C53.8,288.24,49.42,285.45,45.4,285.45Z" style="fill:#263238"></path><path d="M104.05,199.08s3.12,6.43,3.49,8.08a5.18,5.18,0,0,1-.18,2.93s3.85,3.3,3.85,5-2,2.75-2,2.75,2.38,9,1.47,10.46-7.16,1.28-7.16,1.28l-5.81,21.92-3.52-10.18-13-10.09,1.1-5.87s-9.91-15-10.28-18.9,10.46-13.94,16.88-14.86,15.42-1.83,16.52,2.57S104.05,199.08,104.05,199.08Z" style="fill:#fff"></path><path d="M97.69,252a.51.51,0,0,1-.47-.34l-3.48-10-12.93-10a.49.49,0,0,1-.18-.49l1.06-5.67c-1.15-1.76-9.89-15.21-10.24-19-.42-4.41,10.9-14.49,17.3-15.4,7.8-1.12,15.93-1.64,17.07,2.94a5.81,5.81,0,0,1-.23,4.43,2.68,2.68,0,0,1-.87.88,67.51,67.51,0,0,1,3.31,7.73,6,6,0,0,1-.09,2.89c1,.9,3.77,3.48,3.77,5.11a4,4,0,0,1-1.94,3c.55,2.12,2.23,9,1.31,10.49s-5.55,1.55-7.2,1.53l-5.71,21.54a.49.49,0,0,1-.46.37Zm-16-21,12.8,9.91a.44.44,0,0,1,.17.23l3,8.63L103,229.41a.53.53,0,0,1,.5-.37c2.86.08,6.24-.29,6.71-1s-.38-5.75-1.52-10.06a.5.5,0,0,1,.24-.57s1.76-1,1.76-2.31c0-1-2.26-3.36-3.68-4.58a.49.49,0,0,1-.14-.57,4.63,4.63,0,0,0,.16-2.63c-.35-1.58-3.42-7.9-3.45-8a.54.54,0,0,1,0-.43.49.49,0,0,1,.33-.27c.09,0,1.87-.56.92-4.35s-9-3.18-15.95-2.19c-6.23.89-16.79,10.79-16.46,14.32.28,2.94,6.79,13.5,10.2,18.67a.5.5,0,0,1,.07.36Z" style="fill:#263238"></path><path d="M104.05,199.08s2.39-.55,1.29-5-10.09-3.49-16.52-2.57-17.24,11-16.88,14.86,10.28,18.9,10.28,18.9l5.5-3.12a15.1,15.1,0,0,1-3.48-3.12A4.48,4.48,0,0,1,85,213c1.47-1.29,3.49,1.83,4,2a4.72,4.72,0,0,0,2.75-.19c.55-.36-1.1-5.13-1.1-5.87s4-2,4.59-2.93S93,204.4,91.39,203.3,104.05,199.08,104.05,199.08Z" style="fill:#263238"></path><path d="M82.22,225.82a.52.52,0,0,1-.42-.22c-.41-.62-10-15.2-10.35-19.13-.42-4.41,10.9-14.49,17.3-15.4,7.8-1.12,15.93-1.64,17.07,2.94a5.81,5.81,0,0,1-.23,4.43,2.43,2.43,0,0,1-1.43,1.13h0c-5.25,1.15-11,2.69-12.21,3.49.47.28,1,.54,1.53.8,1.17.57,2.1,1,2.3,1.69a.9.9,0,0,1-.11.76c-.32.54-1.19,1-2.6,1.68a10.29,10.29,0,0,0-1.9,1.07,17.61,17.61,0,0,0,.43,1.74c.84,3.13,1,4.1.44,4.48a5.2,5.2,0,0,1-3.19.24c-.25-.08-.48-.31-.93-.77-1-1-2-1.92-2.62-1.35-1.24,1.09-2.16,3.55-.68,5.37a14.75,14.75,0,0,0,3.36,3,.49.49,0,0,1,.24.44.5.5,0,0,1-.25.43l-5.5,3.12A.57.57,0,0,1,82.22,225.82ZM97.48,191.3a63.2,63.2,0,0,0-8.58.76c-6.23.89-16.79,10.79-16.46,14.32.28,2.87,6.48,13,9.94,18.27l4.4-2.49a16.12,16.12,0,0,1-2.93-2.76,5,5,0,0,1,.79-6.75c1.43-1.25,3.1.47,4,1.4a4.65,4.65,0,0,0,.56.53,4.91,4.91,0,0,0,2.18-.08,20.16,20.16,0,0,0-.75-3.44,11.48,11.48,0,0,1-.47-2.07c0-.66.85-1.1,2.47-1.9a8.63,8.63,0,0,0,2.19-1.29,6.47,6.47,0,0,0-1.78-1,16,16,0,0,1-1.92-1,.73.73,0,0,1-.35-.74c.2-1,4.63-2.52,13.17-4.38.12,0,1.85-.6.91-4.35C104.29,192,101.28,191.3,97.48,191.3Zm6.57,7.78h0Zm0,0h0Z" style="fill:#263238"></path><polygon points="103.5 229.54 95.25 227.71 102.03 234.86 103.5 229.54" style="fill:#263238"></polygon><path d="M102,235.36a.51.51,0,0,1-.36-.15l-6.79-7.16a.5.5,0,0,1,.47-.83l8.26,1.83a.54.54,0,0,1,.32.23.49.49,0,0,1,0,.39L102.52,235a.52.52,0,0,1-.36.36Zm-5.3-6.81,5.06,5.32,1.09-4Z" style="fill:#263238"></path><path d="M104.93,211c.25.93,0,1.81-.62,2s-1.26-.48-1.51-1.41,0-1.81.63-2S104.69,210.07,104.93,211Z" style="fill:#263238"></path><path d="M101.12,208.81a4.46,4.46,0,0,1,4.77-.74" style="fill:#263238"></path><path d="M101.12,209.31a.5.5,0,0,1-.34-.87,4.93,4.93,0,0,1,5.33-.81.49.49,0,0,1,.22.67.5.5,0,0,1-.67.22,3.91,3.91,0,0,0-4.21.66A.51.51,0,0,1,101.12,209.31Z" style="fill:#263238"></path><path d="M108.09,220.73a8.49,8.49,0,0,1-4.22-1.83" style="fill:#263238"></path><path d="M108.09,221.23H108a9,9,0,0,1-4.5-2,.49.49,0,0,1,.7-.7,8.22,8.22,0,0,0,3.94,1.69.5.5,0,0,1-.07,1Z" style="fill:#263238"></path><polygon points="81.12 231.19 77.63 238.16 89.6 251.98 94.17 241.28 81.12 231.19" style="fill:#fff"></polygon><path d="M89.6,252.48a.52.52,0,0,1-.38-.17l-12-13.82a.48.48,0,0,1-.06-.55l3.48-7a.51.51,0,0,1,.34-.27.47.47,0,0,1,.41.1l13,10.09a.5.5,0,0,1,.16.59l-4.57,10.7a.51.51,0,0,1-.38.3ZM78.23,238.09l11.22,13,4.11-9.61L81.29,232Z" style="fill:#263238"></path><polygon points="97.69 251.46 106.25 239.45 102.03 234.86 97.69 251.46" style="fill:#fff"></polygon><path d="M97.69,252a.54.54,0,0,1-.21-.05.49.49,0,0,1-.27-.58l4.34-16.6a.51.51,0,0,1,.36-.35.49.49,0,0,1,.49.14l4.22,4.59a.5.5,0,0,1,0,.63l-8.56,12A.52.52,0,0,1,97.69,252Zm4.6-16.09L98.86,249l6.75-9.46Z" style="fill:#263238"></path><polygon points="106.25 239.45 108.46 247.15 102.78 244.41 106.25 239.45" style="fill:#fff"></polygon><path d="M108.46,247.65a.42.42,0,0,1-.22-.05l-5.68-2.74a.47.47,0,0,1-.26-.32.5.5,0,0,1,.07-.41l3.47-5a.5.5,0,0,1,.9.15l2.2,7.71a.51.51,0,0,1-.16.52A.54.54,0,0,1,108.46,247.65Zm-4.93-3.43,4.14,2-1.61-5.63Z" style="fill:#263238"></path><path d="M68.65,306.71,66.88,316,58.6,379.74,32.12,432.35S29,435.29,29,435.92a35,35,0,0,1-1,4s5,6.52,6.72,8,6.52,3.78,8.83,3.78,6.3-.42,6.72-2.31-3.15-4.2-3.15-4.2l-.63-8.62,1.89-3.78a11.6,11.6,0,0,1,0-2.74c.21-.63,32.79-50.08,34.05-53s8.83-27.95,8.83-27.95l8.61,30.69,5,56.6-1.69,3.36.85,3.36s-.85,5.26.84,5.89,9.87.63,10.92.42,14.09,0,15.77-.42,3.15-1.26,2.73-2.73-5.47-1.47-6.52-2.11-8.19-8-8.19-8-.21-1.89-.42-2.73a32.65,32.65,0,0,0-2.1-4l2.1-60.17-5.81-58,.43-4.62Z" style="fill:#263238"></path><path d="M43.47,452.18c-2.5,0-7.47-2.43-9.16-3.91s-6.58-7.79-6.79-8a.5.5,0,0,1-.08-.46,30.58,30.58,0,0,0,1-3.84c0-.56,1.09-1.86,3.24-3.88l26.41-52.45,8.26-63.7,1.78-9.27a.5.5,0,0,1,.49-.41l45.1-.11h0a.52.52,0,0,1,.37.16.51.51,0,0,1,.12.39l-.43,4.62,5.81,57.91-2.09,60.09a28.11,28.11,0,0,1,2.08,4,25.13,25.13,0,0,1,.41,2.62c2.86,2.94,7.26,7.35,8,7.79a9.72,9.72,0,0,0,2.15.47c2.08.33,4.23.68,4.59,1.92a2,2,0,0,1-.18,1.62,4.42,4.42,0,0,1-2.91,1.73,89.92,89.92,0,0,1-10.08.32c-2.62,0-5.32,0-5.71.11-1.16.23-9.41.23-11.2-.44s-1.35-5.19-1.17-6.33l-.82-3.27a.45.45,0,0,1,0-.34l1.62-3.24-5-56.46-8.13-28.94c-1.72,5.65-7.27,23.83-8.35,26.36-.83,1.93-14.46,22.86-24.41,38.14-5,7.76-9.42,14.46-9.64,14.9a11.69,11.69,0,0,0,0,2.48.52.52,0,0,1,0,.27l-1.83,3.66.6,8.24c.85.58,3.6,2.64,3.16,4.59C50.13,452,45,452.18,43.47,452.18Zm-15-12.37a99.18,99.18,0,0,0,6.5,7.71c1.58,1.38,6.28,3.66,8.5,3.66,2.8,0,5.94-.6,6.24-1.92s-2.09-3.12-2.94-3.68a.51.51,0,0,1-.23-.38l-.63-8.62a.56.56,0,0,1,.05-.25l1.83-3.66a10.06,10.06,0,0,1,0-2.79c.08-.25,1.53-2.5,9.73-15.08,9.37-14.39,23.53-36.14,24.33-38,1.24-2.89,8.73-27.65,8.81-27.9a.5.5,0,0,1,.48-.36h0a.5.5,0,0,1,.48.37l8.61,30.68,5.06,56.69a.49.49,0,0,1,0,.27l-1.6,3.2.8,3.18a.46.46,0,0,1,0,.2c-.31,2-.36,5,.52,5.34,1.55.58,9.7.59,10.66.4.46-.09,2.43-.11,5.89-.13,3.76,0,8.92-.05,9.84-.29a3.67,3.67,0,0,0,2.3-1.26,1.07,1.07,0,0,0,.08-.85c-.18-.62-2.53-1-3.79-1.2a8,8,0,0,1-2.5-.61c-1.08-.64-7.57-7.3-8.3-8.06a.49.49,0,0,1-.14-.3s-.21-1.86-.41-2.66a29.75,29.75,0,0,0-2-3.86.44.44,0,0,1-.07-.27l2.1-60.18-5.81-57.94.38-4.17-44.13.11-1.7,8.84L59.1,379.8a.75.75,0,0,1-.05.16L32.57,432.57a.49.49,0,0,1-.11.14,19.09,19.09,0,0,0-3,3.27A26.87,26.87,0,0,1,28.47,439.81ZM58.6,379.74h0Z" style="fill:#263238"></path><path d="M176.63,148.86a43.08,43.08,0,1,0,43.07,43.08A43.08,43.08,0,0,0,176.63,148.86Zm0,80.47A37.4,37.4,0,1,1,214,191.94,37.39,37.39,0,0,1,176.63,229.33Z" style="fill:#263238"></path><path d="M176.63,235.51a43.58,43.58,0,1,1,43.57-43.57A43.63,43.63,0,0,1,176.63,235.51Zm0-86.15a42.58,42.58,0,1,0,42.57,42.58A42.63,42.63,0,0,0,176.63,149.36Zm0,80.47a37.9,37.9,0,1,1,37.89-37.89A37.94,37.94,0,0,1,176.63,229.83Zm0-74.79a36.9,36.9,0,1,0,36.89,36.9A36.94,36.94,0,0,0,176.63,155Z" style="fill:#263238"></path><rect x="114.58" y="230.88" width="36.17" height="6.58" transform="translate(-124.29 154.11) rotate(-43.16)" style="fill:#fff"></rect><path d="M121.72,249.43a.49.49,0,0,1-.36-.15l-4.5-4.8a.54.54,0,0,1-.14-.36.52.52,0,0,1,.16-.35L143.26,219a.5.5,0,0,1,.36-.14.52.52,0,0,1,.35.16l4.5,4.8a.5.5,0,0,1,0,.71L122.06,249.3A.48.48,0,0,1,121.72,249.43Zm-3.79-5.27,3.81,4.07,25.66-24.06-3.82-4.07Z" style="fill:#263238"></path><path d="M50,317.81a6.11,6.11,0,0,1-4.17-10.56l69.48-65.17a6.11,6.11,0,1,1,8.36,8.91L54.16,316.16A6.11,6.11,0,0,1,50,317.81Z" style="fill:#a6a6a6"></path><path d="M50,318.31a6.61,6.61,0,0,1-4.52-11.43L115,241.72a6.61,6.61,0,0,1,9,9.64L54.5,316.52A6.55,6.55,0,0,1,50,318.31Zm69.49-77.38a5.56,5.56,0,0,0-3.84,1.52L46.15,307.61a5.61,5.61,0,1,0,7.67,8.18l69.49-65.16a5.61,5.61,0,0,0-3.66-9.7Z" style="fill:#263238"></path><path d="M58.84,291.47s-6.11,6.72-5.68,7.6,1,1,1,1l1.74.47a43.82,43.82,0,0,0,2.88,4.71,1.64,1.64,0,0,0,1.66-.43,1,1,0,0,0,0-.88l-2.09-5.15,1.39.44,3,4.54s.52,1.14,1.22.87,1.14-.26,1.14-.87a57.93,57.93,0,0,0-2.53-5.94l-1.84-1.74,3.14.26,3.41,5s2-.09,1.57-1.66l-3-5.68-1.39-1.39,3.75.08,2.62,3.58a.78.78,0,0,0,1-.26c.43-.52-.09-2.09-.35-2.53s-1.75-3.32-1.75-3.32l-6.11-.35Z" style="fill:#fff"></path><path d="M59.14,305.85a1.21,1.21,0,0,1-.65-.16c-.35-.21-1.35-1.8-3-4.71L54,300.57a2.33,2.33,0,0,1-1.28-1.28c-.15-.29-.59-1.18,5.75-8.15a.48.48,0,0,1,.2-.14l4.72-1.66a.58.58,0,0,1,.19,0l6.11.35a.52.52,0,0,1,.42.27c.41.8,1.52,2.95,1.73,3.29s1,2.3.3,3.11a1.3,1.3,0,0,1-1.57.39.65.65,0,0,1-.18-.15l-2.47-3.38-2.26-.05.52.51.09.12,3,5.68a.36.36,0,0,1,0,.09,1.63,1.63,0,0,1-.2,1.46,2.61,2.61,0,0,1-1.83.84.5.5,0,0,1-.43-.22l-3.27-4.78-1.5-.13.81.77a.83.83,0,0,1,.11.15c1,2,2.58,5.52,2.58,6.15,0,.86-.62,1.06-1.12,1.22l-.34.12c-.9.34-1.59-.55-1.85-1.13l-2.84-4.32-.21-.07,1.69,4.17a1.38,1.38,0,0,1-.06,1.36A2.35,2.35,0,0,1,59.14,305.85Zm-5.49-6.93a1.42,1.42,0,0,0,.63.69l1.72.46a.49.49,0,0,1,.31.24A43,43,0,0,0,59,304.86a1.48,1.48,0,0,0,1-.33.5.5,0,0,0,0-.36L57.85,299a.5.5,0,0,1,.1-.52.47.47,0,0,1,.51-.14l1.4.43a.51.51,0,0,1,.27.21l3,4.54c.17.35.47.72.63.68l.38-.14a2.19,2.19,0,0,0,.42-.16.4.4,0,0,0,0-.11,56.13,56.13,0,0,0-2.45-5.64l-1.76-1.68a.49.49,0,0,1-.11-.57.5.5,0,0,1,.49-.29l3.15.26a.52.52,0,0,1,.37.22l3.23,4.72a1.35,1.35,0,0,0,.8-.39.61.61,0,0,0,.06-.55l-2.91-5.56L64.07,293a.5.5,0,0,1-.1-.55.49.49,0,0,1,.47-.3l3.75.08a.5.5,0,0,1,.39.21l2.52,3.44a.33.33,0,0,0,.27-.15c.19-.23-.09-1.46-.39-1.95s-1.26-2.37-1.63-3.09l-5.73-.33-4.5,1.58C56.57,294.72,53.81,298.13,53.65,298.92Zm0,0Z" style="fill:#263238"></path><path d="M144.46,277.08c-.23-1.16-4.41-31.13-4.41-31.13s1.85-13.7,2.09-14.87a.32.32,0,0,0-.2-.35l-3.44-6.43s-3.36-2.69-4.44-2.83-1.62.95-1.21,1.49,1.21.67,1.61.94,3.24,4.31,3.24,4.31l-4.58-3.5a23.74,23.74,0,0,0-2.83.13c-.41.14-.41,1.48,0,1.75a3.66,3.66,0,0,0,1.07.41s-2-.14-2.56.4-.94.81-.26,1.35l.67.54s-2.56,1.34-1.89,2.29,2.16.13,2.16.13l3.13,3.32s-2.53,6.85-2.09,8.37a9.1,9.1,0,0,0,2.56,3.95s-4.42,33.44-4.42,36.46,7.21,8.37,9.06,8.37,5.35-3.26,6.28-7A21,21,0,0,0,144.46,277.08Z" style="fill:#fff"></path><path d="M137.72,292.68c-2,0-9.56-5.55-9.56-8.87,0-2.91,4-32.95,4.39-36.28a9.11,9.11,0,0,1-2.52-4c-.42-1.46,1.41-6.71,2-8.35l-2.68-2.83a2,2,0,0,1-2.44-.45,1.09,1.09,0,0,1-.18-.91,3.59,3.59,0,0,1,1.59-1.73l-.11-.09a1.25,1.25,0,0,1-.54-.87,1.45,1.45,0,0,1,.63-1.08l.14-.14a2.23,2.23,0,0,1,1.2-.49,2.51,2.51,0,0,1-.14-1.23c.09-.69.42-.9.62-1a17.77,17.77,0,0,1,3-.16.47.47,0,0,1,.3.1l1.91,1.46a16.59,16.59,0,0,0-1.16-1.47,3.81,3.81,0,0,0-.43-.19,2.85,2.85,0,0,1-1.29-.86,1.31,1.31,0,0,1,0-1.47,1.69,1.69,0,0,1,1.7-.8c1.16.14,4.12,2.47,4.7,2.93a.48.48,0,0,1,.12.16l3.39,6.32a.79.79,0,0,1,.3.79c-.22,1.09-1.94,13.72-2.08,14.77.22,1.6,4.18,29.92,4.4,31a21.3,21.3,0,0,1-.47,8.35C143.51,289.22,139.89,292.68,137.72,292.68Zm-8.24-61.47a.5.5,0,0,1,.36.16l3.14,3.32a.5.5,0,0,1,.1.52c-1,2.58-2.36,7.06-2.08,8a8.65,8.65,0,0,0,2.41,3.71.49.49,0,0,1,.16.44c0,.33-4.41,33.45-4.41,36.4,0,2.71,7,7.87,8.56,7.87s4.91-3.08,5.79-6.59a20.23,20.23,0,0,0,.46-7.91h0c-.23-1.17-4.25-29.94-4.42-31.16v-.14c.08-.54,1.77-13,2.07-14.77a.61.61,0,0,1-.12-.15l-3.39-6.33c-1.36-1.08-3.48-2.58-4.11-2.66a.69.69,0,0,0-.72.31.38.38,0,0,0,0,.38,2.06,2.06,0,0,0,.87.52,3.25,3.25,0,0,1,.62.3,42.36,42.36,0,0,1,3.37,4.44.51.51,0,0,1-.72.69l-4.44-3.4a22.84,22.84,0,0,0-2.42.09,1.42,1.42,0,0,0,.06.9,3.41,3.41,0,0,0,.87.31.5.5,0,0,1,.4.55.51.51,0,0,1-.53.44,4.42,4.42,0,0,0-2.17.25l-.16.16a2.8,2.8,0,0,0-.3.32l.15.13.67.54a.51.51,0,0,1,.19.43.52.52,0,0,1-.27.4c-.63.33-1.62,1-1.73,1.47.42.65,1.52.08,1.53.07A.53.53,0,0,1,129.48,231.21Z" style="fill:#263238"></path><polyline points="131.36 227 133.12 227.13 136.75 231.44" style="fill:#fff"></polyline><path d="M136.75,231.94a.49.49,0,0,1-.38-.18l-3.5-4.15-1.54-.11a.5.5,0,0,1-.46-.54.48.48,0,0,1,.53-.46l1.75.13a.52.52,0,0,1,.35.18l3.64,4.31a.5.5,0,0,1-.06.7A.52.52,0,0,1,136.75,231.94Z" style="fill:#263238"></path><polyline points="129.21 229.29 131.5 229.29 134.73 233.33" style="fill:#fff"></polyline><path d="M134.73,233.83a.52.52,0,0,1-.39-.19l-3.08-3.85h-2a.5.5,0,0,1-.5-.5.5.5,0,0,1,.5-.5h2.29a.53.53,0,0,1,.39.18l3.23,4.05a.49.49,0,0,1-.08.7A.51.51,0,0,1,134.73,233.83Z" style="fill:#263238"></path><line x1="137.7" y1="228.21" x2="139.58" y2="230.1" style="fill:#fff"></line><path d="M139.58,230.6a.49.49,0,0,1-.35-.15l-1.89-1.89a.5.5,0,0,1,0-.7.5.5,0,0,1,.71,0l1.89,1.88a.51.51,0,0,1,0,.71A.51.51,0,0,1,139.58,230.6Z" style="fill:#263238"></path></g></svg>
