<svg width="1440" height="441" viewBox="0 0 1440 441" fill="none" xmlns="http://www.w3.org/2000/svg"     preserveAspectRatio="none">
<path fill-rule="evenodd" clip-rule="evenodd" d="M608.957 209.212C605.01 209.558 601.063 209.903 597.116 210.249C578.213 211.537 559.318 214.228 540.559 215.843C540.092 215.165 539.178 215.276 538.623 215.747C536.751 215.601 534.653 214.325 532.958 215.653C532.903 215.646 532.848 215.638 532.792 215.633C529.773 210.464 527.686 204.951 525.661 199.43C524.368 196.036 522.629 192.75 519.415 190.472C513.93 187.075 501.362 180.187 494.922 180.477C494.815 179.448 494.277 178.388 493.395 177.703C495.34 174.744 487.561 172.814 487.013 173.157C487.364 163.272 482.152 154.688 470.659 152.719C460.363 150.805 445.718 150.484 440.18 160.083C439.572 160.022 433.349 159.993 432.747 160.053C431.811 158.995 421.532 169.017 425.745 172.506C388.078 187.37 366.661 185.596 356.235 227.383C354.826 231.308 354.723 235.604 353.235 239.442C347.94 250.471 343.645 262.216 342.576 274.217C339.995 274.807 339.698 278.868 342.688 279.455C343.83 279.68 344.785 279.987 345.618 280.568C344.967 290.403 347.633 312.87 349.313 312.8C352.739 322.526 368.019 325.271 378.837 321.853C376.972 324.983 378.837 326.951 378.837 328.623C417.763 329.937 460.324 329.18 499.239 330.982C504.217 330.919 509.453 332.072 514.363 331.408C517.357 330.768 517.362 326.568 514.325 326.049L527.596 323.477C527.299 323.378 533.066 319.956 537.425 313.561C541.482 306.408 538.721 297.774 540.559 289.993C554.917 288.945 569.512 288.497 583.713 286.328C585.649 291.496 594.031 285.316 596.695 282.829C596.692 282.825 596.689 282.822 596.685 282.818C597.975 282.503 599.009 281.425 599.043 280.149C599.948 278.996 600.137 277.372 599.27 276.258C603.245 255.8 609.303 234.912 611.493 214.262C612.268 214.109 612.997 213.806 613.615 213.34L613.565 213.295C614.612 212.254 614.816 210.456 613.07 209.571C611.661 208.856 610.485 209.078 608.957 209.212Z" fill="#D08B5B"/>
<path fill-rule="evenodd" clip-rule="evenodd" d="M458.844 285.781L461.885 287.507L486.762 294.657L501.964 296.384L514.403 294.657V313.644L516.89 331.397C515.785 333.205 505.281 333.205 485.38 331.397C472.693 330.245 426.327 329.685 415.77 329.439L415.172 329.425C402.767 329.105 390.513 329.105 378.41 329.425V322.767L412.961 307.479L443.918 291.945L458.844 285.781ZM441.218 158.531L443.502 160.053L438.514 167.364L462.814 184.898V198.903L470.507 205.394L474.904 198.903L481.101 191.553L485.504 179.637L484.005 171.787L487.02 171.534C487.034 172.07 487.032 172.611 487.013 173.157C487.561 172.814 495.34 174.744 493.394 177.703C494.277 178.388 494.815 179.448 494.921 180.477C501.362 180.187 513.93 187.075 519.415 190.472C522.629 192.75 524.368 196.036 525.661 199.43L525.965 200.258L526.28 201.108L526.596 201.957C528.345 206.626 530.234 211.253 532.792 215.633C532.848 215.638 532.903 215.646 532.958 215.653C534.653 214.325 536.751 215.601 538.623 215.748C539.165 215.287 540.05 215.17 540.526 215.797L540.559 215.843L517.238 219.941L501.853 268.083L488.455 258.382L481.263 259.336L462.272 265.446L440.183 270.564L389.758 282.966H383.336L345.97 274.916L342.603 273.925C343.715 262.025 347.982 250.382 353.234 239.442C354.723 235.604 354.825 231.308 356.235 227.383C366.66 185.596 388.078 187.37 425.745 172.506C421.532 169.017 431.811 158.995 432.747 160.053L432.806 160.048L432.934 160.042L433.098 160.037C434.568 159.999 439.634 160.028 440.18 160.083C440.497 159.534 440.844 159.017 441.218 158.531Z" fill="#231F20"/>
<path fill-rule="evenodd" clip-rule="evenodd" d="M612.684 210.674L611.99 214.127C611.825 214.176 611.657 214.216 611.487 214.25C611.268 216.309 611.012 218.37 610.722 220.432L606.416 241.845C605.673 245.633 604.968 249.429 604.268 253.227L603.34 257.306L602.765 259.841C601.525 265.331 600.321 270.804 599.263 276.246C599.423 276.451 599.547 276.673 599.637 276.907L599.556 277.213L599.499 277.418L599.441 277.62C598.607 280.48 597.155 283.254 593.735 284.096C591.155 284.73 588.324 284.788 585.66 285.038L585.365 285.067L538.746 289.744C533.113 290.309 527.482 290.891 521.853 291.479L516.972 291.99C510.17 292.692 503.328 293.245 496.626 294.517C496.38 294.564 496.176 294.652 496.009 294.767C497.359 290.21 498.651 285.658 499.822 281.055C501.14 275.874 502.39 270.682 503.8 265.52C506.64 255.119 509.823 244.787 513.308 234.543C514.04 232.393 514.788 230.248 515.552 228.107L516.089 226.611L516.502 225.418C517.141 223.6 517.932 221.732 519.805 220.729C521.998 219.555 524.989 219.36 527.476 218.954L529.16 218.672C531.68 218.253 534.203 217.849 536.729 217.462C548.824 215.606 560.987 214.117 573.195 212.999C585.898 211.836 598.645 211.079 611.408 210.71L612.684 210.674ZM496.975 282.068L497.094 282.077L495.353 294.495C495.074 294.321 494.721 294.215 494.289 294.216C488.577 294.231 483.102 292.602 477.806 290.812L477 290.538L474.751 289.767C472.466 288.985 470.168 288.221 467.827 287.588L466.881 287.333L466.4 287.206C464.628 286.745 462.764 286.325 460.92 286.221L460.669 286.209L461.206 285.957C461.284 285.921 461.353 285.88 461.414 285.835C462.429 285.902 463.445 285.884 464.516 285.712C466.529 285.389 468.486 284.764 470.283 283.894L471.086 283.506L471.414 283.351L471.631 283.25L471.847 283.153C473.391 282.467 474.867 282.037 476.816 282.402C479.028 282.818 480.967 283.881 482.961 284.78L483.315 284.937L483.553 285.04L483.796 285.142L484.041 285.242C486.738 286.325 491.03 287.493 492.065 284.222C492.48 282.908 492.155 281.677 491.434 280.598C492.777 280.494 495.177 281.907 496.975 282.068ZM564.109 241.155L564.141 241.304C564.522 243.135 563.566 244.887 562.119 246.164C560.932 247.212 558.831 247.794 558.236 249.301C557.897 250.158 558.257 250.971 558.953 251.538L558.793 251.608L558.636 251.68L558.483 251.752L558.334 251.825L558.189 251.898C555.824 253.11 553.899 255.08 556.031 257.461C558.45 260.161 563.505 260.248 567.066 260.037L567.306 260.022C570.759 259.791 574.85 258.756 576.723 255.912C577.581 254.607 577.487 253.029 576.29 251.912C575.567 251.238 574.279 250.547 573.098 250.465C573.149 249.871 573.07 249.297 572.836 248.813C572.33 247.767 570.982 247.063 569.682 247.037C569.788 244.816 567.793 242.623 566.324 240.847L566.174 240.665L566.029 240.486C565.355 239.649 563.913 240.118 564.109 241.155ZM566.079 243.519L567.417 247.991L567.394 248.027C566.923 248.826 568.159 249.732 568.891 249.061L568.965 248.99C569.835 248.189 571.17 249.266 571.187 250.119C571.21 251.32 570.334 252.248 569.29 252.861L569.217 252.903L569.025 253.01C568.168 253.515 568.817 254.571 569.758 254.443C570.924 254.284 571.879 253.459 572.468 252.43C573.097 252.59 573.813 252.571 574.475 252.902C576.145 253.735 575.184 255.192 574.097 256.072L574.053 256.108L573.965 256.177C571.97 257.694 569.254 258.221 566.694 258.334L566.547 258.34C563.961 258.439 560.592 258.472 558.376 257.115C556.997 256.271 556.597 255.073 557.765 253.939C558.425 253.299 559.091 252.652 559.777 252.027C560.804 252.464 561.721 252.287 562.771 251.873C562.906 251.82 562.831 251.636 562.699 251.636C562.12 251.636 559.994 250.676 559.891 250.063C559.795 249.496 560.971 249.018 561.543 248.744L561.626 248.703L561.698 248.666C562.296 248.343 562.859 247.966 563.374 247.544C564.68 246.471 565.629 245.126 566.043 243.653L566.079 243.519Z" fill="white"/>
<path fill-rule="evenodd" clip-rule="evenodd" d="M440.898 157.854C442.071 155.224 446.036 156.246 445.594 159.009C445.329 160.663 444.313 162.411 443.401 163.861C442.658 165.041 441.811 166.193 440.661 167.078C442.707 168.78 444.83 170.42 447.007 171.978C449.382 173.677 451.88 175.243 454.462 176.683C456.726 177.945 459.093 179.063 461.227 180.504C463.211 181.843 465.019 183.454 465.939 185.556C466.919 187.795 466.493 190.108 465.771 192.345L465.688 192.598C464.951 194.815 463.675 197.487 465.445 199.575C466.345 200.639 467.655 201.392 468.786 202.242C469.791 202.997 470.734 203.819 471.599 204.701C473.486 206.625 475.02 208.79 475.988 211.202L476.075 211.421C476.905 213.556 477.511 216.172 476.39 218.268C476.068 218.869 475.031 218.674 474.85 218.088C474.443 216.763 474.464 215.375 474.123 214.03C473.767 212.632 473.176 211.305 472.403 210.05C470.908 207.621 468.884 205.546 466.492 203.792L465.776 203.272C463.91 201.906 462.196 200.457 461.818 198.197C461.412 195.778 462.499 193.474 463.197 191.185C463.684 189.59 463.843 188.06 463.317 186.619C462.674 187.554 461.797 188.442 461.104 189.235C459.723 190.813 458.328 192.382 456.938 193.953C455.512 195.565 454.121 197.202 452.797 198.881C452.205 199.633 451.619 200.389 451.035 201.145C450.596 201.714 449.983 202.282 449.504 202.862C449.621 203.172 449.612 203.529 449.401 203.783C446.862 206.843 443.25 200.459 442.308 198.845C440.39 195.56 438.962 192.07 437.038 188.786C435.043 185.381 432.773 182.067 430.241 178.959C428.71 177.079 426.994 175.313 425.594 173.373C422.294 176.042 417.953 177.831 413.965 179.454C409.583 181.236 405.031 182.692 400.538 184.238L399.211 184.698C391.47 187.393 383.54 190.354 377.106 195.14C369.546 200.766 365.073 208.606 361.743 216.724C357.91 226.071 354.739 235.67 351.782 245.262C350.27 250.17 348.834 255.1 347.485 260.046C346.296 264.404 345.31 268.805 343.933 273.117C346.725 273.029 349.909 273.993 352.293 274.272C363.155 275.54 373.872 277.562 384.127 281.063C385.394 281.495 385.76 282.624 385.485 283.539C386.215 283.355 386.945 283.168 387.676 282.985C386.875 281.891 387.257 279.935 387.32 278.723L387.324 278.639C387.389 277.024 387.585 275.406 387.713 273.793C387.955 270.719 388.271 267.667 388.691 264.61L388.798 263.845C389.274 260.52 389.626 257.174 390.146 253.854L390.207 253.474C389.958 252.625 389.668 251.786 389.364 250.95C388.553 248.725 387.408 246.63 386.405 244.475C386.287 244.221 386.692 244.076 386.881 244.228C388.58 245.591 389.929 247.32 391.014 249.129C391.032 249.044 391.049 248.958 391.069 248.873L391.192 248.33C391.497 247.005 391.868 245.612 392.779 244.537C392.876 244.423 393.068 244.399 393.16 244.537C394.032 245.853 394.129 247.52 394.263 249.017C394.415 250.711 394.434 252.427 394.407 254.125C394.355 257.445 394.093 260.774 393.884 264.088C393.679 267.345 393.276 270.561 392.757 273.785L392.659 274.39C392.405 275.925 392.197 277.479 391.863 279.004L391.768 279.419C391.59 280.175 391.48 281.241 391.124 282.126C400.283 279.847 409.457 277.62 418.648 275.432C425.291 273.85 431.941 272.293 438.588 270.725C438.939 270.161 439.375 269.634 439.92 269.164C441.716 267.612 444.096 266.92 446.279 268.114C446.456 268.212 446.471 268.46 446.279 268.554C445.861 268.757 445.442 268.967 445.03 269.185L449.021 268.22C452.005 267.499 455.024 266.598 458.077 266.095C463.701 263.619 469.75 261.827 475.675 260.056L476.373 259.845C479.406 258.923 482.544 257.89 485.678 257.378C487.973 257.004 490.666 257.456 491.589 259.553C492.757 260.239 493.856 261.046 494.916 261.84C495.683 262.414 496.418 263.023 497.165 263.617L497.303 263.725C497.914 264.198 498.398 264.515 498.548 265.267C498.626 265.656 498.349 266.182 497.811 266.13C496.166 265.973 494.829 264.273 493.713 263.257C492.851 262.472 491.983 261.66 491.196 260.797C490.737 261.02 490.109 260.98 489.817 260.487C488.303 257.93 484.157 259.702 481.863 260.308L478.576 261.176C476.933 261.61 475.291 262.047 473.651 262.491C469.144 263.712 464.66 265.078 460.112 266.199C460.519 266.598 460.463 267.308 459.69 267.578C456.131 268.824 452.226 269.468 448.528 270.323C446.193 270.863 443.859 271.407 441.527 271.954C441.127 272.532 440.839 273.185 440.718 273.947C440.273 276.745 441.131 279.975 441.968 282.681L442.093 283.085C442.781 285.262 443.792 287.93 445.897 289.304C446.411 289.639 447.065 289.872 447.725 289.925C451.845 288.033 455.965 286.141 460.088 284.253C460.852 283.903 461.557 284.377 461.729 284.94C463.182 284.727 464.633 284.392 465.954 283.992C468.173 283.319 469.906 282.037 471.987 281.15C476.013 279.434 480.125 281.542 483.73 283.144L484.56 283.508C486.177 284.208 489.54 285.552 490.316 283.639C491.066 281.787 488.694 279.809 487.162 278.976C485.336 277.982 483.21 277.45 481.146 277.008C479.968 276.755 478.775 276.548 477.576 276.398C476.215 276.227 474.809 276.252 473.498 275.859C472.847 275.663 472.747 274.741 473.498 274.588C475.516 274.179 477.923 274.625 480.028 275.082L481.129 275.324C483.249 275.788 485.391 276.371 487.323 277.297C488.727 277.971 490.21 278.994 491.178 280.246C492.02 279.549 493.066 279.573 494.157 279.831L494.749 279.978C495.726 280.22 496.518 280.386 497.469 280.219C497.596 279.602 497.725 278.984 497.863 278.367C499.218 272.298 500.705 266.252 502.345 260.238C505.173 249.865 508.446 239.606 512.137 229.452L512.507 228.437C513.358 226.114 514.043 223.584 515.415 221.451C516.713 219.433 518.792 218.271 521.262 217.655C524.066 216.957 527.011 216.592 529.871 216.12C530.509 216.015 531.148 215.915 531.787 215.812C531.247 214.943 530.845 213.956 530.482 213.199L530.418 213.068C529.639 211.483 528.939 209.869 528.263 208.247L527.757 207.027C526.536 204.09 525.276 201.202 523.56 198.455C521.753 195.564 519.356 193.2 516.369 191.244C510.277 187.256 502.935 185.221 497.027 180.959C496.785 180.784 497.095 180.485 497.341 180.596C501.33 182.384 505.637 183.6 509.786 185.056L510.605 185.344C513.884 186.504 517.215 187.766 520.054 189.644C523.219 191.738 525.712 194.338 527.585 197.431C529.431 200.479 530.613 203.891 531.915 207.146L532.264 208.014C532.789 209.315 533.332 210.612 533.954 211.878C534.447 212.883 535.369 214.03 535.787 215.178C536.933 215.001 538.079 214.823 539.225 214.652C564.065 210.953 589.183 208.779 614.356 208.143C615.341 208.118 615.851 208.956 615.705 209.723C613.29 222.466 611.143 235.253 608.787 248.006C607.759 253.572 606.71 259.133 605.637 264.692C605.093 267.509 604.465 270.314 603.95 273.135C603.534 275.413 603.232 277.708 602.519 279.933C601.878 281.929 600.896 283.852 599.283 285.374C597.543 287.015 595.116 287.809 592.673 288.185C586.47 289.137 580.107 289.526 573.854 290.16L540.562 293.539C541.048 297.484 541.084 301.367 540.861 305.358L540.734 307.537C540.63 309.289 540.506 311.044 540.224 312.778C539.87 314.954 538.754 316.796 537.111 318.421C535.602 319.913 533.769 321.187 531.986 322.407C530.135 323.673 528.222 324.896 526.046 325.68L525.764 325.78C523.855 326.445 520.273 327.474 517.664 327.098C518.005 328.623 518.665 330.262 518.08 331.77C517.808 332.471 516.782 332.82 516.152 332.224C514.906 331.043 514.809 329.483 514.514 327.941C514.207 326.338 513.942 324.728 513.707 323.115C513.252 319.996 512.898 316.848 512.789 313.702C512.678 310.471 512.721 307.236 512.916 304.009C513.017 302.352 513.141 300.695 513.377 299.049C513.477 298.347 513.58 297.644 513.698 296.943C513.741 296.688 513.788 296.434 513.839 296.18L510.851 296.481C506.269 296.937 501.685 297.349 497.071 297.413C496.524 297.42 496.104 297.198 495.829 296.875C495.536 297.301 495.027 297.605 494.297 297.602C487.853 297.581 481.852 295.701 475.991 293.486C473.037 292.369 470.128 291.16 467.17 290.052C464.408 289.019 461.456 288.281 458.761 287.117L451.679 290.43C451.627 290.593 451.561 290.748 451.49 290.877C451.029 291.716 450.12 292.172 449.191 292.515C448.3 292.844 447.377 292.947 446.478 292.864C441.107 295.374 435.735 297.883 430.36 300.385L424.983 302.885C414.271 307.861 403.6 312.918 392.82 317.777L392.027 318.133C388.303 319.799 384.305 321.487 380.173 322.747C380.1 323.68 380.146 324.587 380.234 325.575L380.255 325.79C380.378 326.957 380.642 328.419 379.593 329.25C379.047 329.682 378.072 329.684 377.7 329.032C377.027 327.851 377.632 325.989 377.845 324.705C377.921 324.249 378.013 323.78 378.149 323.324C373.412 324.582 368.532 325.192 363.711 324.486C359.018 323.799 355.383 321.161 352.452 317.935C349.36 314.53 347.162 310.563 345.983 306.31C344.641 301.47 344.553 296.472 344.585 291.514C344.618 286.235 344.837 280.93 345.557 275.687C344.768 275.522 343.894 275.379 343.097 275.428C342.702 275.991 341.936 276.228 341.245 276.155C339.74 277.635 343.556 279.148 344.776 279.527C345.199 279.659 345.154 280.272 344.665 280.254L344.358 280.241C342.473 280.151 340.527 279.864 339.419 278.302C338.531 277.05 338.797 275.566 339.856 274.545C340.555 268.649 342.226 262.908 343.781 257.156C345.308 251.511 347.005 245.902 348.804 240.321L349.611 237.823C352.444 229.072 355.404 220.251 359.312 211.848C361.263 207.653 363.511 203.534 366.558 199.876C369.398 196.465 372.751 193.547 376.605 191.055C383.79 186.408 392.222 183.6 400.506 180.925L400.876 180.805C405.169 179.42 409.452 178.018 413.696 176.517C417.449 175.19 421.045 173.507 424.78 172.16C424.659 171.963 424.542 171.765 424.429 171.564L424.36 171.615C424.348 171.624 424.336 171.632 424.324 171.64C423.948 171.872 423.395 171.758 423.085 171.497C422.211 170.761 422.507 169.945 423.091 169.181L423.166 169.084C423.88 168.192 424.517 167.25 425.175 166.325L425.588 165.747C426.694 164.203 427.855 162.649 429.33 161.373C430.012 160.782 430.76 160.34 431.552 160.01C431.484 159.882 432.078 159.621 432.246 159.752C434.755 158.933 437.641 159.105 440.377 159.331M538.951 293.702L535.462 294.056C531.625 294.446 527.786 294.822 523.946 295.195L515.606 296.004C515.585 296.428 515.527 296.843 515.516 297.163C515.462 298.814 515.421 300.466 515.383 302.118C515.306 305.429 515.39 308.743 515.635 312.048C515.872 315.25 516.184 318.453 516.668 321.633L516.768 322.269L516.825 322.603C517.221 322.637 517.609 322.805 517.932 323.149C518.638 323.901 521.192 323.17 522.19 322.854C523.83 322.333 525.375 321.453 526.8 320.571C528.192 319.709 529.446 318.705 530.65 317.647L531.636 316.777C532.616 315.908 533.598 314.982 534.198 313.889C535.013 312.407 535.118 310.587 535.357 308.972C535.651 306.987 536.001 305.001 536.371 303.025M437.687 272.856L437.325 272.941C424.182 276.057 411.058 279.264 397.874 282.242C391.35 283.716 384.794 285.083 378.262 286.528L377.204 286.764C372.051 287.926 366.836 289.325 362.89 292.659C362.744 292.782 362.532 292.593 362.67 292.463C366.923 288.424 372.972 286.714 378.779 285.232C379.853 284.958 380.928 284.69 382.002 284.418C374.103 281.906 366.08 279.721 357.871 278.162C355.758 277.761 353.619 277.466 351.507 277.063C350.034 276.782 348.596 276.376 347.138 276.038L345.992 275.781L345.977 279.013C345.958 283.591 345.967 288.165 346.229 292.742L346.278 293.59C346.584 298.683 347.061 303.883 349.087 308.685C350.733 312.588 353.358 316.265 356.79 319.108C358.527 320.546 360.394 321.666 362.702 322.218C364.845 322.732 367.09 322.792 369.293 322.655C379.86 321.997 389.266 316.877 398.445 312.637C413.459 305.703 428.474 298.772 443.503 291.864C443.097 291.616 442.714 291.33 442.366 291.01C440.351 289.153 439.288 286.611 438.59 284.15C437.846 281.53 437.402 278.721 437.35 276.016M456.81 294.541C456.943 294.477 457.096 294.557 457.102 294.69C457.149 295.714 456.514 296.724 456.04 297.647L455.99 297.745C455.415 298.888 454.784 300.015 454.132 301.125C452.829 303.342 451.474 305.535 450.061 307.697C447.218 312.047 444.059 316.214 440.326 320.001C439.482 320.857 438.095 319.76 438.637 318.838C441.246 314.398 444.288 310.205 447.419 306.048C448.986 303.967 450.553 301.884 452.136 299.812C452.796 298.948 453.465 298.086 454.152 297.238L454.566 296.731M612.692 210.686C599.502 211.042 586.328 211.809 573.202 213.011C560.994 214.13 548.831 215.618 536.736 217.474C534.21 217.862 531.687 218.265 529.167 218.684L527.656 218.938C525.135 219.364 522.057 219.54 519.813 220.741C517.447 222.007 516.808 224.653 516.02 226.835C515.095 229.402 514.193 231.976 513.315 234.556C509.83 244.799 506.647 255.131 503.807 265.532C502.398 270.694 501.147 275.886 499.829 281.067C498.658 285.671 497.366 290.222 496.016 294.78C496.183 294.664 496.387 294.576 496.633 294.53C503.335 293.258 510.177 292.705 516.979 292.002L517.638 291.933C524.675 291.195 531.712 290.462 538.753 289.756L585.372 285.079C588.121 284.804 591.067 284.766 593.742 284.108C598.291 282.989 599.358 278.452 600.121 274.838L600.144 274.729C602.445 263.813 604.277 252.801 606.423 241.857M497.101 282.089C495.291 281.983 492.814 280.504 491.441 280.61C492.162 281.689 492.487 282.92 492.072 284.234C490.916 287.891 485.687 285.999 483.168 284.882C481.103 283.965 479.109 282.844 476.823 282.415C474.233 281.929 472.478 282.848 470.29 283.907C468.493 284.776 466.536 285.401 464.523 285.724C463.453 285.896 462.436 285.914 461.421 285.847C461.36 285.892 461.291 285.933 461.213 285.97L460.676 286.221C463.103 286.32 465.576 286.988 467.834 287.6C470.175 288.234 472.473 288.998 474.758 289.779L477.007 290.55C482.553 292.444 488.294 294.243 494.297 294.228C494.728 294.227 495.082 294.333 495.36 294.507M486.975 270.63C488.763 270.435 490.413 270.644 491.842 271.682C493.565 272.934 494.723 275.011 497.2 275.147C497.922 275.187 498.09 276.093 497.372 276.282C495.528 276.769 494.035 275.88 492.779 274.724L491.935 273.937C490.693 272.79 489.548 271.904 487.441 271.972C485.185 272.046 482.926 272.511 480.684 272.747C478.145 273.015 475.606 273.243 473.059 273.44C472.941 273.449 472.921 273.283 473.032 273.259L475.885 272.625M485.249 264.109L485.544 264.083C488.14 263.858 490.515 263.849 492.834 265.095L493.279 265.335C495.369 266.469 497.645 267.804 498.952 269.639C499.166 269.94 498.813 270.293 498.455 270.217C495.942 269.679 494.105 268.034 491.992 266.803C489.62 265.422 487.17 265.65 484.466 265.864C481.848 266.072 479.231 266.358 476.639 266.747C474.203 267.113 471.759 267.69 469.299 267.873L469.299 267.869C469.018 267.869 468.858 267.492 469.145 267.364C471.642 266.252 474.534 265.726 477.25 265.217M564.126 241.216C563.875 240.145 565.352 239.648 566.036 240.498L566.182 240.677C567.66 242.484 569.799 244.751 569.69 247.049C570.989 247.075 572.337 247.779 572.843 248.826C573.077 249.31 573.157 249.883 573.105 250.477C574.286 250.559 575.575 251.251 576.297 251.924C577.494 253.041 577.589 254.619 576.73 255.924C574.857 258.768 570.767 259.803 567.313 260.034L567.19 260.042C563.624 260.262 558.484 260.203 556.038 257.473C553.679 254.84 556.287 252.708 558.96 251.55C558.264 250.983 557.904 250.17 558.243 249.313C558.838 247.806 560.939 247.224 562.126 246.176C563.573 244.899 564.53 243.147 564.148 241.316M566.086 243.531C565.693 245.056 564.727 246.451 563.381 247.556C562.866 247.979 562.303 248.355 561.705 248.678L561.633 248.715C561.102 248.981 559.798 249.479 559.898 250.076C560.001 250.689 562.127 251.648 562.707 251.649C562.838 251.649 562.913 251.832 562.778 251.886C561.728 252.299 560.811 252.477 559.784 252.039C559.098 252.664 558.432 253.311 557.772 253.952C556.605 255.086 557.004 256.283 558.383 257.127C560.599 258.484 563.968 258.451 566.554 258.352C569.157 258.253 571.939 257.735 573.972 256.189L574.06 256.12C575.165 255.243 576.174 253.758 574.482 252.914C573.82 252.583 573.104 252.603 572.475 252.442C571.886 253.471 570.931 254.296 569.766 254.455C568.824 254.583 568.175 253.527 569.032 253.022L569.224 252.916C570.3 252.303 571.218 251.36 571.194 250.131C571.177 249.278 569.842 248.201 568.972 249.002L568.933 249.041C568.205 249.773 566.923 248.85 567.402 248.04L567.425 248.003M396.339 201.125C396.335 200.942 396.624 200.874 396.725 201.032C398.415 203.684 399.298 206.934 400.198 209.855C401.14 212.915 401.901 216.006 402.585 219.12C403.969 225.425 404.707 231.694 404.757 238.12C404.764 239.038 403.088 239.282 402.924 238.342C401.836 232.091 400.794 225.833 399.697 219.584C399.145 216.441 398.503 213.31 397.889 210.176M413.064 205.744C412.939 205.378 413.536 205.256 413.688 205.59C417.079 213.014 418.227 221.428 416.05 229.26C415.717 230.458 413.75 229.939 414.001 228.756M456.796 199.147C456.779 198.873 457.177 198.83 457.328 199.018C458.934 201.038 459.6 203.742 462.419 204.785C463.826 205.306 465.41 205.216 466.653 206.096C467.484 206.684 468.122 207.613 467.498 208.505C467.296 208.793 466.733 208.937 466.46 208.624C466.061 208.168 465.851 207.622 465.309 207.28C464.545 206.798 463.516 206.769 462.64 206.542C461.507 206.249 460.509 205.736 459.691 204.975M483.635 165.469C483.801 165.393 483.96 165.442 484.065 165.569C484.217 165.751 484.198 165.928 484.013 166.053C484.26 166.504 484.552 167.634 484.594 167.798C484.763 168.465 484.943 169.128 485.132 169.79C485.511 171.126 485.844 172.472 486.224 173.808C486.627 175.224 487.107 176.626 487.642 178.007C487.676 178.096 487.714 178.187 487.754 178.28L487.815 178.42L487.83 178.399C487.938 178.246 488.164 178.353 488.137 178.514C488.113 178.662 488.079 178.809 488.051 178.956L488.107 179.088C488.456 179.927 488.696 180.811 488.055 181.552C487.815 181.828 487.551 181.992 487.222 182.041C486.694 183.592 486.033 185.114 485.324 186.576L485.117 187.003C484.074 189.136 482.963 191.241 481.304 193.056C479.492 195.039 477 196.393 475.422 198.565C474.688 199.575 474.177 200.638 473.763 201.779L473.607 202.212C473.313 203.019 472.973 203.802 472.124 204.275C471.853 204.426 471.448 204.378 471.229 204.172C469.489 202.53 471.311 199.463 472.36 197.873C473.819 195.661 475.931 194.247 478.045 192.578C480.324 190.78 481.778 188.375 483.184 186.005C484.045 184.553 484.876 183.07 485.752 181.611C484.837 180.89 484.544 179.458 484.235 178.462L484.206 178.373C483.694 176.779 483.287 175.143 483.03 173.5C482.783 171.92 482.68 170.363 482.745 168.775L482.764 168.37M487.036 172.987C486.833 172.74 487.168 172.46 487.445 172.512C489.131 172.823 490.779 173.733 492.292 174.469L492.453 174.547C493.661 175.128 494.876 175.84 495.51 176.968C496.2 178.195 496.143 179.608 496.049 180.941L496.04 181.065C495.925 182.664 495.906 184.325 495.527 185.894C495.333 186.698 494.517 186.924 493.82 186.734C492.99 189.072 490.659 190.794 488.956 192.638C486.785 194.989 487.194 198.164 487.421 200.996C487.513 202.142 485.914 202.468 485.09 201.857L483.193 200.451C482.877 200.216 482.561 199.981 482.246 199.745C481.977 199.542 481.71 199.339 481.445 199.132L481.049 198.82C480.874 198.68 480.099 197.909 479.873 197.877C479.325 197.799 478.022 199.088 477.576 199.492L477.52 199.543C476.68 200.277 475.922 201.067 475.216 201.904C475.086 202.058 474.832 201.93 474.925 201.753C475.558 200.543 476.294 199.387 477.167 198.305L477.344 198.09C477.925 197.391 478.705 196.157 479.731 195.951C480.984 195.699 482.235 196.82 483.147 197.442L483.205 197.481C483.638 197.771 484.067 198.066 484.495 198.364C484.45 196.255 484.749 194.125 485.969 192.308C486.829 191.026 488.118 190.077 489.222 188.976C490.45 187.75 491.091 186.243 492.203 184.966C492.346 184.802 492.543 184.713 492.757 184.685C492.8 183.658 492.969 182.621 493.1 181.606L493.138 181.302C493.27 180.199 493.583 178.851 492.978 177.817C492.406 176.841 491.093 176.152 490.121 175.49L489.327 174.941M432.33 161.32C431.823 161.582 431.348 161.907 430.918 162.314C429.563 163.596 428.595 165.192 427.652 166.726C427.145 167.553 426.656 168.388 426.144 169.213C425.921 169.572 425.693 169.927 425.461 170.281C425.354 170.444 425.036 170.769 424.879 170.969C425.054 171.187 425.235 171.403 425.42 171.616C425.49 171.697 430.349 176.42 432.043 178.268C434.637 181.099 436.956 184.089 438.938 187.289C440.879 190.424 442.356 193.742 444.154 196.937C445.054 198.537 446.059 200.125 447.341 201.509C447.39 201.563 447.442 201.614 447.493 201.667C447.982 200.489 449.235 199.227 449.85 198.503L449.908 198.434C451.303 196.756 452.777 195.129 454.283 193.529C455.658 192.068 457.069 190.638 458.513 189.232L459.056 188.706C460.063 187.736 461.341 186.285 462.815 185.592C462.657 185.341 462.474 185.093 462.264 184.848C460.884 183.239 458.932 182.071 457.007 181.017L455.758 180.34C451.052 177.781 446.418 175.104 442.332 171.779C440.17 170.02 438.038 168.178 436.221 166.126L435.579 165.4M440.184 160.053C437.979 160.218 435.599 160.179 433.562 160.819C435.373 162.346 437.094 163.995 438.863 165.548C439.02 164.498 439.342 163.46 439.614 162.436" fill="black"/>
<path fill-rule="evenodd" clip-rule="evenodd" d="M498.254 100.61C497.44 95.6735 500.112 94.6492 498.254 89.9562C494.126 81.2605 482.875 81.6351 474.619 80.9665C465.411 80.6127 456.091 81.8314 447.602 85.5314C445.574 86.415 443.624 87.4543 441.755 88.635C440.138 89.6561 440.36 91.5976 441.38 92.6567C434.029 103.091 438.233 117.098 432.368 128.082C431.285 130.045 429.852 131.806 428.91 133.849C427.479 136.954 427.387 141.403 430.633 143.466C435.205 145.926 437.757 141.055 440.003 148.116C451.223 172.736 473.781 174.123 495.195 161.287C497.048 160.254 498.939 159.086 500.338 157.463C503.513 153.88 503.139 148.842 503.209 144.368C503.249 141.746 503.255 139.124 503.23 136.502C503.13 125.879 499.618 111.145 498.254 100.61Z" fill="#D08B5B"/>
<path fill-rule="evenodd" clip-rule="evenodd" d="M452.642 71.0819C465.572 65.2021 480.237 62.9724 494.341 64.4349C501.303 65.1557 508.172 66.702 514.71 69.2138L515.283 69.4358C516.897 70.0586 518.637 70.6767 519.863 71.9442C521.291 73.4173 521.691 75.645 520.671 77.4647C519.878 78.8786 518.453 79.8929 516.933 80.4342C517.468 80.8738 517.976 81.3641 518.453 81.9115C519.256 82.8288 519.317 84.1368 518.453 85.0416C516.787 86.7852 514.626 88.0468 512.299 88.6515C512.56 89.9174 512.419 91.3187 511.858 92.5805C510.249 96.2023 505.716 96.634 502.228 96.419L502.123 96.4122L501.929 98.6378C501.825 99.8234 501.117 100.743 499.915 100.925C499.873 100.931 499.831 100.935 499.789 100.939C501.69 107.834 502.839 114.941 503.9 122.007C504.454 125.695 504.95 129.392 505.425 133.091L505.582 134.324C506.088 138.312 506.721 142.341 506.94 146.359C507.136 150.004 506.442 153.485 504.201 156.427C502.19 159.065 499.447 161.041 496.498 162.508C489.834 165.824 482.82 168.292 475.449 169.438L474.958 169.514C472.113 169.949 469.182 170.316 466.367 169.527C463.894 168.834 461.301 167.046 461.86 164.173C462.047 163.203 463.401 163.161 463.865 163.911L463.972 164.083C464.528 164.968 465.137 165.79 466.108 166.246C467.244 166.783 468.562 166.933 469.804 166.948C473.272 166.988 476.883 166.122 480.222 165.253C486.459 163.63 492.863 160.984 497.971 156.975C500.145 155.271 501.891 153.141 502.506 150.4C503.267 147.02 502.567 143.326 502.222 139.929C501.51 132.921 500.663 125.926 499.77 118.938L499.591 117.541C498.838 111.699 498.048 105.855 497.672 99.9798C497.516 99.7664 497.411 99.5233 497.369 99.257L497.31 98.8745V98.8745C497.259 98.5469 497.25 98.2468 497.286 97.9699C497.288 96.9089 497.318 95.8543 497.379 94.7931C497.389 94.6031 497.398 94.4129 497.404 94.2248C496.304 94.4678 495.195 94.6644 494.082 94.8313C486.256 96.0128 478.308 96.3087 470.419 95.7211C466.483 95.4271 462.577 94.9222 458.683 94.2903C456.701 93.969 454.726 93.614 452.757 93.2166C451.333 92.9313 449.94 92.5445 448.54 92.181C447.096 94.2882 446.316 96.8814 446.468 99.4282C446.638 102.334 448.57 104.97 448.028 107.939C447.519 110.718 445.144 111.58 442.8 112.268L441.802 112.557C441.035 112.782 440.478 112.998 440.339 113.923C440.101 115.51 440.394 117.296 440.455 118.891C440.529 120.779 440.626 122.666 440.67 124.554C440.693 125.53 440.731 126.511 440.729 127.487C440.727 128.18 440.624 128.654 440.356 129.102C440.563 129.362 440.748 129.643 440.913 129.941C440.965 130.038 440.835 130.141 440.757 130.061C440.548 129.844 440.326 129.647 440.092 129.471C439.974 129.617 439.837 129.765 439.677 129.924L439.664 129.907V129.907C439.163 130.408 438.366 130.457 437.744 129.924L437.58 129.782C437.125 129.382 436.812 129.049 436.686 128.387C436.679 128.354 436.673 128.32 436.669 128.286C435.511 128.246 434.335 128.52 433.293 129.098C431.643 130.013 430.481 131.317 429.794 132.927C430.068 133.248 430.388 133.536 430.761 133.777C430.814 133.813 430.768 133.891 430.711 133.864C430.329 133.684 429.988 133.462 429.682 133.202C429.435 133.836 429.263 134.517 429.157 135.237C428.786 137.782 429.448 140.891 431.742 142.341C432.735 142.968 433.869 143.309 435.045 143.313C435.619 143.315 436.114 143.218 436.671 143.08C437.048 142.988 437.423 142.852 437.818 142.852C438.155 142.852 438.467 142.937 438.756 143.106L438.676 143.113C438.481 143.131 438.519 143.139 438.79 143.139C439.633 143.176 440.115 144.034 439.728 144.78L439.677 144.895C439.666 144.918 439.657 144.938 439.65 144.953L439.619 145.151C439.616 145.17 439.613 145.189 439.61 145.209L439.598 145.249C439.596 145.255 439.593 145.262 439.591 145.268L440.855 147.201C442.406 149.567 443.991 151.923 445.795 154.083C447.06 155.599 448.401 157.085 449.818 158.46C451.091 159.697 452.617 160.293 454.059 161.265C454.829 161.781 455.054 162.861 454.355 163.556C452.301 165.6 449.394 163.977 447.709 162.315C446.116 160.741 444.739 158.847 443.552 156.951C441.446 153.58 439.77 149.996 439.036 146.105C438.731 146.386 438.341 146.561 437.946 146.699C437.156 146.974 436.285 147.088 435.45 147.117C433.85 147.17 432.248 146.781 430.808 146.092C424.949 143.292 424.089 134.905 427.671 129.96C427.188 128.556 426.918 127.032 426.625 125.733L426.492 125.152C425.01 118.665 424.016 111.836 426.642 105.479C426.979 104.659 427.359 103.86 427.808 103.095C428.168 102.48 428.788 101.825 428.959 101.125C429.338 99.5888 426.996 97.9741 426.313 96.7546C425.51 95.3238 425.396 93.6351 426.49 92.3266C426.629 92.162 426.781 92.0096 426.946 91.8767C425.908 89.9914 425.86 87.6201 427.226 85.7602C428.124 84.5344 429.494 83.6763 430.991 83.4163C431.906 83.2578 433.007 83.317 434.012 83.6002C439.519 78.4749 445.801 74.193 452.642 71.0819ZM431.497 135.212C432.967 133.912 434.59 133.232 436.593 133.403C438.606 133.576 441.031 134.411 442.213 136.142C443.147 137.509 441.244 139.515 439.873 138.488C438.625 137.552 437.792 136.495 436.243 135.992C434.851 135.542 433.129 135.252 431.672 135.51C431.512 135.537 431.352 135.339 431.497 135.212Z" fill="black"/>
<path fill-rule="evenodd" clip-rule="evenodd" d="M474.118 156.66L471.886 148.135L472.246 148.191C475.787 148.747 477.557 149.319 477.557 149.905L477.556 149.945C477.509 150.606 476.363 152.844 474.118 156.66ZM494.667 149.977L493.877 156.073L489.759 151.558L494.667 149.977Z" fill="white"/>
<path fill-rule="evenodd" clip-rule="evenodd" d="M471.402 134.802C476.011 134.802 479.747 131.396 479.747 127.194C479.747 122.992 476.011 119.585 471.402 119.585C466.793 119.585 463.057 122.992 463.057 127.194C463.057 131.396 466.793 134.802 471.402 134.802Z" fill="white"/>
<path fill-rule="evenodd" clip-rule="evenodd" d="M483.761 126.983C487.961 126.983 491.367 123.623 491.367 119.48C491.367 115.336 487.961 111.977 483.761 111.977C479.56 111.977 476.155 115.336 476.155 119.48C476.155 123.623 479.56 126.983 483.761 126.983Z" fill="white"/>
<path fill-rule="evenodd" clip-rule="evenodd" d="M494.113 133.323C497.497 133.323 500.24 130.295 500.24 126.56C500.24 122.825 497.497 120.331 494.113 120.331C490.729 120.331 487.986 122.825 487.986 126.56C487.986 130.295 490.729 133.323 494.113 133.323Z" fill="white"/>
<path fill-rule="evenodd" clip-rule="evenodd" d="M471.964 147.837C473.496 147.541 475.403 148.186 476.931 148.468L477.045 148.488C478.898 148.812 480.747 149.204 482.62 149.395C484.409 149.578 486.236 149.61 488.024 149.405C488.883 149.306 489.735 149.138 490.569 148.912C490.927 148.815 491.281 148.707 491.63 148.588L491.67 148.573C491.927 148.467 492.622 148.066 492.614 148.289C492.809 148.064 493.079 147.904 493.374 147.826C493.791 147.716 494.326 147.819 494.675 148.114C495.129 147.755 495.811 148.013 496.115 148.443C496.637 149.182 496.467 150.048 496.4 150.905L496.394 150.981C496.337 151.788 496.249 152.591 496.141 153.392L496.093 153.736C495.925 154.922 495.879 156.878 494.442 157.266C493.306 157.574 492.267 156.405 491.534 155.477L491.133 154.963C490.659 154.36 490.228 153.74 489.88 153.055C489.722 152.743 489.569 152.424 489.437 152.1C489.42 152.059 489.408 152.023 489.395 151.986C487.288 152.27 485.132 152.229 483.019 151.95C481.682 151.774 480.365 151.519 479.067 151.177L478.482 152.235C477.797 153.47 477.102 154.701 476.371 155.907L476.315 155.999C475.631 157.087 474.486 158.177 473.133 157.362C471.921 156.632 471.87 154.973 471.742 153.735C471.657 152.907 471.588 152.075 471.555 151.243L471.543 150.886C471.521 150.08 471.39 149.145 471.7 148.391C471.745 148.281 471.903 148.196 471.998 148.312C472.645 149.1 472.841 150.32 473.121 151.287C473.432 152.362 473.883 153.536 474.045 154.652L474.09 154.573V154.573C474.25 154.27 474.412 153.969 474.576 153.668L475.066 152.765C475.505 151.95 475.953 151.141 476.405 150.333C475.889 150.139 475.378 149.93 474.869 149.719L473.714 149.236C473.054 148.957 472.382 148.642 471.886 148.135C471.798 148.045 471.828 147.863 471.964 147.837ZM493.876 150.814C492.738 151.277 491.561 151.611 490.363 151.833C490.44 151.912 490.517 151.991 490.589 152.074C490.871 152.401 491.17 152.715 491.471 153.025L491.652 153.21C492.113 153.684 492.805 154.463 493.512 154.916L493.55 154.711C493.556 154.676 493.561 154.646 493.564 154.622L493.639 153.95C493.651 153.837 493.663 153.725 493.674 153.613C493.735 153.007 493.784 152.399 493.834 151.792C493.861 151.472 493.867 151.143 493.876 150.814ZM480.408 111.743C483.119 110.584 486.336 111.131 488.67 112.881C491.059 114.671 492.104 117.582 492.242 120.486C494.132 118.872 496.853 120.093 498.444 121.606C500.28 123.351 501.209 125.984 500.781 128.484C500.354 130.975 498.552 133.172 496.115 133.913C494.948 134.268 493.648 134.276 492.475 133.946C492.076 133.834 491.588 133.66 491.137 133.418C491.163 133.522 491.189 133.625 491.214 133.729C491.799 136.208 492.131 138.994 491.252 141.446C489.841 145.385 484.826 147.59 481.695 144.094C480.465 142.721 479.51 140.571 479.584 138.699C479.623 137.716 480.18 136.578 481.33 136.645C482.221 136.696 482.644 137.443 482.416 138.233L482.402 138.278C481.919 139.788 482.744 141.97 483.939 143C485.773 144.58 488.289 143.205 489.291 141.353C490.46 139.195 490.317 136.427 489.944 134.079C489.577 131.773 488.759 129.664 487.891 127.53C487.799 127.547 487.706 127.563 487.61 127.575C485.884 127.81 482.371 127.898 480.463 126.647C480.668 128.578 480.266 130.566 479.17 132.201C477.948 134.024 476.107 134.988 473.964 135.283C471.883 135.571 469.471 135.629 467.416 135.136C463.041 134.085 461.498 128.682 462.822 124.781C463.604 122.474 465.788 120.398 468.216 119.874C469.467 119.051 471.146 118.808 472.59 118.92C474.745 119.088 476.869 120.02 478.312 121.656C478.864 122.281 479.318 122.989 479.667 123.747C479.785 123.654 479.922 123.585 480.076 123.548C480.318 123.492 480.529 123.479 480.765 123.562C480.883 123.604 481.052 123.751 481.155 123.846L481.388 124.12C481.673 124.454 481.945 124.733 482.454 124.94C483.872 125.518 485.796 125.643 487.303 125.525C491.148 125.224 490.664 120.129 489.717 117.511C488.595 114.41 485.38 112.481 482.108 113.032C480.703 113.269 479.362 114.017 478.333 114.995C477.185 116.087 476.693 117.406 476.004 118.788C475.963 118.87 475.822 118.852 475.805 118.762C475.239 115.847 477.923 112.804 480.408 111.743ZM459.929 135.237C459.812 135.1 459.965 134.859 460.133 134.972C461.358 135.805 462.721 136.406 464.203 136.569C464.899 136.645 465.6 136.65 466.293 136.543C466.884 136.452 467.416 136.272 468.005 136.435C468.319 136.521 468.376 136.886 468.184 137.114C467.294 138.174 465.102 137.891 463.906 137.607C462.36 137.239 460.959 136.448 459.929 135.237ZM501.171 133.301C501.772 132.928 502.488 133.666 502.133 134.263C501.219 135.794 498.571 135.919 497.035 135.552C496.915 135.524 496.942 135.335 497.064 135.338C497.947 135.36 498.745 135.191 499.506 134.73C500.155 134.336 500.543 133.69 501.171 133.301ZM471.812 121.064L471.692 121.065C470.287 121.087 469.001 121.623 467.648 121.906C467.535 121.93 467.423 121.918 467.321 121.881C465.673 122.981 464.537 124.711 464.382 126.987C464.275 128.563 464.66 130.281 465.596 131.574C466.661 133.047 468.377 133.274 470.066 133.318L470.238 133.322C473.432 133.384 476.946 133.196 478.084 129.623C478.927 126.979 478.027 123.77 475.68 122.186C474.54 121.417 473.179 121.063 471.812 121.064ZM497.544 122.96L497.451 122.85C496.198 121.413 494.212 120.103 492.253 120.827L492.259 121.069C492.26 121.11 492.26 121.15 492.26 121.19C492.254 123.967 491.179 126.558 488.535 127.373C489.244 128.385 489.814 129.509 490.27 130.674C490.431 130.569 490.627 130.502 490.855 130.479C491.785 130.385 492.319 131.259 493.126 131.585C493.881 131.891 494.738 131.97 495.535 131.812C497.28 131.467 498.504 129.962 498.933 128.292C499.418 126.404 498.777 124.424 497.544 122.96ZM470.987 125.297C471.568 124.314 473.004 124.456 473.579 125.323L473.606 125.366L473.613 125.358C474.571 126.6 474.108 128.562 472.716 129.261C471.6 129.821 470.181 129.674 469.439 128.584C469.272 128.34 469.166 128.052 469.127 127.761C469.1 127.563 469.115 127.365 469.16 127.168L469.148 127.215C469.17 127.115 469.205 126.96 469.214 126.922C469.312 126.522 469.548 126.092 469.842 125.802C470.145 125.503 470.566 125.321 470.987 125.297ZM494.895 124.275C495.411 124.275 495.868 124.491 496.24 124.833C496.769 125.319 496.843 126.019 496.729 126.683C496.694 126.886 496.646 127.082 496.595 127.282L496.552 127.462C496.544 127.492 496.536 127.522 496.527 127.551C496.495 127.675 496.444 127.788 496.384 127.897C496.164 128.717 495.272 129.125 494.485 128.946C494.115 128.862 493.746 128.554 493.558 128.232C493.496 128.126 493.452 128.02 493.421 127.914L493.268 127.551V127.551C493.239 127.464 493.221 127.371 493.198 127.282C493.147 127.082 493.098 126.886 493.062 126.683C492.94 125.997 493.037 125.346 493.551 124.833C493.896 124.488 494.408 124.275 494.895 124.275ZM483.545 117.156C484.44 117.036 485.35 117.453 485.813 118.243C486.215 118.93 486.213 119.855 485.813 120.541L485.779 120.6V120.6C485.042 121.865 483.323 122.027 482.289 121.05L482.239 121.002V121.002C481.574 120.374 481.424 119.332 481.768 118.515C482.083 117.769 482.743 117.264 483.545 117.156Z" fill="black"/>
<g clip-path="url(#clip0_45_446)">
<path d="M0 217H48C96 217 192 217 288 238.3C384 260 480 302 576 286.3C672 270 768 196 864 158.3C960 121 1056 121 1152 131.7C1248 142 1344 164 1392 174.3L1440 185V441H1392C1344 441 1248 441 1152 441C1056 441 960 441 864 441C768 441 672 441 576 441C480 441 384 441 288 441C192 441 96 441 48 441H0V217Z" fill="#231F20"/>
</g>
<defs>
<clipPath id="clip0_45_446">
<rect width="1440" height="320" fill="white" transform="translate(0 121)"/>
</clipPath>
</defs>
</svg>
