<svg width="1440" height="441" fill="none" xmlns="http://www.w3.org/2000/svg" preserveAspectRatio="none"><path fill-rule="evenodd" clip-rule="evenodd" d="m608.957 209.212-11.841 1.037c-18.903 1.288-37.798 3.979-56.557 5.594-.467-.678-1.381-.567-1.936-.096-1.872-.146-3.97-1.422-5.665-.094-.055-.007-.11-.015-.166-.02-3.019-5.169-5.106-10.682-7.131-16.203-1.293-3.394-3.032-6.68-6.246-8.958-5.485-3.397-18.053-10.285-24.493-9.995-.107-1.029-.645-2.089-1.527-2.774 1.945-2.959-5.834-4.889-6.382-4.546.351-9.885-4.861-18.469-16.354-20.438-10.296-1.914-24.941-2.235-30.479 7.364-.608-.061-6.831-.09-7.433-.03-.936-1.058-11.215 8.964-7.002 12.453-37.667 14.864-59.084 13.09-69.51 54.877-1.409 3.925-1.512 8.221-3 12.059-5.295 11.029-9.59 22.774-10.659 34.775-2.581.59-2.878 4.651.112 5.238 1.142.225 2.097.532 2.93 1.113-.651 9.835 2.015 32.302 3.695 32.232 3.426 9.726 18.706 12.471 29.524 9.053-1.865 3.13 0 5.098 0 6.77 38.926 1.314 81.487.557 120.402 2.359 4.978-.063 10.214 1.09 15.124.426 2.994-.64 2.999-4.84-.038-5.359l13.271-2.572c-.297-.099 5.47-3.521 9.829-9.916 4.057-7.153 1.296-15.787 3.134-23.568 14.358-1.048 28.953-1.496 43.154-3.665 1.936 5.168 10.318-1.012 12.982-3.499l-.01-.011c1.29-.315 2.324-1.393 2.358-2.669.905-1.153 1.094-2.777.227-3.891 3.975-20.458 10.033-41.346 12.223-61.996a5.169 5.169 0 0 0 2.122-.922l-.05-.045c1.047-1.041 1.251-2.839-.495-3.724-1.409-.715-2.585-.493-4.113-.359Z" fill="#D08B5B"/><path fill-rule="evenodd" clip-rule="evenodd" d="m458.844 285.781 3.041 1.726 24.877 7.15 15.202 1.727 12.439-1.727v18.987l2.487 17.753c-1.105 1.808-11.609 1.808-31.51 0-12.687-1.152-59.053-1.712-69.61-1.958l-.598-.014a703.97 703.97 0 0 0-36.762 0v-6.658l34.551-15.288 30.957-15.534 14.926-6.164Zm-17.626-127.25 2.284 1.522-4.988 7.311 24.3 17.534v14.005l7.693 6.491 4.397-6.491 6.197-7.35 4.403-11.916-1.499-7.85 3.015-.253c.014.536.012 1.077-.007 1.623.548-.343 8.327 1.587 6.381 4.546.883.685 1.421 1.745 1.527 2.774 6.441-.29 19.009 6.598 24.494 9.995 3.214 2.278 4.953 5.564 6.246 8.958l.304.828.315.85.316.849c1.749 4.669 3.638 9.296 6.196 13.676.056.005.111.013.166.02 1.695-1.328 3.793-.052 5.665.095.542-.461 1.427-.578 1.903.049l.033.046-23.321 4.098-15.385 48.142-13.398-9.701-7.192.954-18.991 6.11-22.089 5.118-50.425 12.402h-6.422l-37.366-8.05-3.367-.991c1.112-11.9 5.379-23.543 10.631-34.483 1.489-3.838 1.591-8.134 3.001-12.059 10.425-41.787 31.843-40.013 69.51-54.877-4.213-3.489 6.066-13.511 7.002-12.453l.059-.005.128-.006.164-.005c1.47-.038 6.536-.009 7.082.046.317-.549.664-1.066 1.038-1.552Z" fill="#231F20"/><path fill-rule="evenodd" clip-rule="evenodd" d="m612.684 210.674-.694 3.453a5.675 5.675 0 0 1-.503.123c-.219 2.059-.475 4.12-.765 6.182l-4.306 21.413c-.743 3.788-1.448 7.584-2.148 11.382l-.928 4.079-.575 2.535c-1.24 5.49-2.444 10.963-3.502 16.405.16.205.284.427.374.661l-.081.306-.057.205-.058.202c-.834 2.86-2.286 5.634-5.706 6.476-2.58.634-5.411.692-8.075.942l-.295.029-46.619 4.677c-5.633.565-11.264 1.147-16.893 1.735l-4.881.511c-6.802.702-13.644 1.255-20.346 2.527-.246.047-.45.135-.617.25 1.35-4.557 2.642-9.109 3.813-13.712 1.318-5.181 2.568-10.373 3.978-15.535a528.274 528.274 0 0 1 9.508-30.977c.732-2.15 1.48-4.295 2.244-6.436l.537-1.496.413-1.193c.639-1.818 1.43-3.686 3.303-4.689 2.193-1.174 5.184-1.369 7.671-1.775l1.684-.282a603.006 603.006 0 0 1 44.035-5.673 613.703 613.703 0 0 1 38.213-2.289l1.276-.036Zm-115.709 71.394.119.009-1.741 12.418c-.279-.174-.632-.28-1.064-.279-5.712.015-11.187-1.614-16.483-3.404l-.806-.274-2.249-.771c-2.285-.782-4.583-1.546-6.924-2.179l-.946-.255-.481-.127c-1.772-.461-3.636-.881-5.48-.985l-.251-.012.537-.252c.078-.036.147-.077.208-.122a13.62 13.62 0 0 0 3.102-.123 20.885 20.885 0 0 0 5.767-1.818l.803-.388.328-.155.217-.101.216-.097c1.544-.686 3.02-1.116 4.969-.751 2.212.416 4.151 1.479 6.145 2.378l.354.157.238.103.243.102.245.1c2.697 1.083 6.989 2.251 8.024-1.02.415-1.314.09-2.545-.631-3.624 1.343-.104 3.743 1.309 5.541 1.47Zm67.134-40.913.032.149c.381 1.831-.575 3.583-2.022 4.86-1.187 1.048-3.288 1.63-3.883 3.137-.339.857.021 1.67.717 2.237l-.16.07-.157.072-.153.072-.149.073-.145.073c-2.365 1.212-4.29 3.182-2.158 5.563 2.419 2.7 7.474 2.787 11.035 2.576l.24-.015c3.453-.231 7.544-1.266 9.417-4.11.858-1.305.764-2.883-.433-4-.723-.674-2.011-1.365-3.192-1.447.051-.594-.028-1.168-.262-1.652-.506-1.046-1.854-1.75-3.154-1.776.106-2.221-1.889-4.414-3.358-6.19l-.15-.182-.145-.179c-.674-.837-2.116-.368-1.92.669Zm1.97 2.364 1.338 4.472-.023.036c-.471.799.765 1.705 1.497 1.034l.074-.071c.87-.801 2.205.276 2.222 1.129.023 1.201-.853 2.129-1.897 2.742l-.073.042-.192.107c-.857.505-.208 1.561.733 1.433 1.166-.159 2.121-.984 2.71-2.013.629.16 1.345.141 2.007.472 1.67.833.709 2.29-.378 3.17l-.044.036-.088.069c-1.995 1.517-4.711 2.044-7.271 2.157l-.147.006c-2.586.099-5.955.132-8.171-1.225-1.379-.844-1.779-2.042-.611-3.176.66-.64 1.326-1.287 2.012-1.912 1.027.437 1.944.26 2.994-.154.135-.053.06-.237-.072-.237-.579 0-2.705-.96-2.808-1.573-.096-.567 1.08-1.045 1.652-1.319l.083-.041.072-.037a10.58 10.58 0 0 0 1.676-1.122c1.306-1.073 2.255-2.418 2.669-3.891l.036-.134Z" fill="#fff"/><path fill-rule="evenodd" clip-rule="evenodd" d="M440.898 157.854c1.173-2.63 5.138-1.608 4.696 1.155-.265 1.654-1.281 3.402-2.193 4.852-.743 1.18-1.59 2.332-2.74 3.217a110.464 110.464 0 0 0 6.346 4.9 78.678 78.678 0 0 0 7.455 4.705c2.264 1.262 4.631 2.38 6.765 3.821 1.984 1.339 3.792 2.95 4.712 5.052.98 2.239.554 4.552-.168 6.789l-.083.253c-.737 2.217-2.013 4.889-.243 6.977.9 1.064 2.21 1.817 3.341 2.667a24.818 24.818 0 0 1 2.813 2.459c1.887 1.924 3.421 4.089 4.389 6.501l.087.219c.83 2.135 1.436 4.751.315 6.847-.322.601-1.359.406-1.54-.18-.407-1.325-.386-2.713-.727-4.058-.356-1.398-.947-2.725-1.72-3.98-1.495-2.429-3.519-4.504-5.911-6.258l-.716-.52c-1.866-1.366-3.58-2.815-3.958-5.075-.406-2.419.681-4.723 1.379-7.012.487-1.595.646-3.125.12-4.566-.643.935-1.52 1.823-2.213 2.616-1.381 1.578-2.776 3.147-4.166 4.718a113.981 113.981 0 0 0-4.141 4.928c-.592.752-1.178 1.508-1.762 2.264-.439.569-1.052 1.137-1.531 1.717.117.31.108.667-.103.921-2.539 3.06-6.151-3.324-7.093-4.938-1.918-3.285-3.346-6.775-5.27-10.059a78.053 78.053 0 0 0-6.797-9.827c-1.531-1.88-3.247-3.646-4.647-5.586-3.3 2.669-7.641 4.458-11.629 6.081-4.382 1.782-8.934 3.238-13.427 4.784l-1.327.46c-7.741 2.695-15.671 5.656-22.105 10.442-7.56 5.626-12.033 13.466-15.363 21.584-3.833 9.347-7.004 18.946-9.961 28.538a472.783 472.783 0 0 0-4.297 14.784c-1.189 4.358-2.175 8.759-3.552 13.071 2.792-.088 5.976.876 8.36 1.155 10.862 1.268 21.579 3.29 31.834 6.791 1.267.432 1.633 1.561 1.358 2.476.73-.184 1.46-.371 2.191-.554-.801-1.094-.419-3.05-.356-4.262l.004-.084c.065-1.615.261-3.233.389-4.846.242-3.074.558-6.126.978-9.183l.107-.765c.476-3.325.828-6.671 1.348-9.991l.061-.38a41.947 41.947 0 0 0-.843-2.524c-.811-2.225-1.956-4.32-2.959-6.475-.118-.254.287-.399.476-.247 1.699 1.363 3.048 3.092 4.133 4.901.018-.085.035-.171.055-.256l.123-.543c.305-1.325.676-2.718 1.587-3.793.097-.114.289-.138.381 0 .872 1.316.969 2.983 1.103 4.48.152 1.694.171 3.41.144 5.108-.052 3.32-.314 6.649-.523 9.963-.205 3.257-.608 6.473-1.127 9.697l-.098.605c-.254 1.535-.462 3.089-.796 4.614l-.095.415c-.178.756-.288 1.822-.644 2.707a2786.505 2786.505 0 0 1 27.524-6.694c6.643-1.582 13.293-3.139 19.94-4.707a6.766 6.766 0 0 1 1.332-1.561c1.796-1.552 4.176-2.244 6.359-1.05.177.098.192.346 0 .44a40.56 40.56 0 0 0-1.249.631l3.991-.965c2.984-.721 6.003-1.622 9.056-2.125 5.624-2.476 11.673-4.268 17.598-6.039l.698-.211c3.033-.922 6.171-1.955 9.305-2.467 2.295-.374 4.988.078 5.911 2.175 1.168.686 2.267 1.493 3.327 2.287.767.574 1.502 1.183 2.249 1.777l.138.108c.611.473 1.095.79 1.245 1.542.078.389-.199.915-.737.863-1.645-.157-2.982-1.857-4.098-2.873-.862-.785-1.73-1.597-2.517-2.46-.459.223-1.087.183-1.379-.31-1.514-2.557-5.66-.785-7.954-.179l-3.287.868c-1.643.434-3.285.871-4.925 1.315-4.507 1.221-8.991 2.587-13.539 3.708.407.399.351 1.109-.422 1.379-3.559 1.246-7.464 1.89-11.162 2.745-2.335.54-4.669 1.084-7.001 1.631a4.765 4.765 0 0 0-.809 1.993c-.445 2.798.413 6.028 1.25 8.734l.125.404c.688 2.177 1.699 4.845 3.804 6.219a4.015 4.015 0 0 0 1.828.621c4.12-1.892 8.24-3.784 12.363-5.672a1.182 1.182 0 0 1 1.641.687 29.602 29.602 0 0 0 4.225-.948c2.219-.673 3.952-1.955 6.033-2.842 4.026-1.716 8.138.392 11.743 1.994l.83.364c1.617.7 4.98 2.044 5.756.131.75-1.852-1.622-3.83-3.154-4.663-1.826-.994-3.952-1.526-6.016-1.968a41.635 41.635 0 0 0-3.57-.61c-1.361-.171-2.767-.146-4.078-.539-.651-.196-.751-1.118 0-1.271 2.018-.409 4.425.037 6.53.494l1.101.242c2.12.464 4.262 1.047 6.194 1.973 1.404.674 2.887 1.697 3.855 2.949.842-.697 1.888-.673 2.979-.415l.592.147c.977.242 1.769.408 2.72.241.127-.617.256-1.235.394-1.852a401.095 401.095 0 0 1 4.482-18.129 391.586 391.586 0 0 1 9.792-30.786l.37-1.015c.851-2.323 1.536-4.853 2.908-6.986 1.298-2.018 3.377-3.18 5.847-3.796 2.804-.698 5.749-1.063 8.609-1.535.638-.105 1.277-.205 1.916-.308-.54-.869-.942-1.856-1.305-2.613l-.064-.131c-.779-1.585-1.479-3.199-2.155-4.821l-.506-1.22c-1.221-2.937-2.481-5.825-4.197-8.572-1.807-2.891-4.204-5.255-7.191-7.211-6.092-3.988-13.434-6.023-19.342-10.285-.242-.175.068-.474.314-.363 3.989 1.788 8.296 3.004 12.445 4.46l.819.288c3.279 1.16 6.61 2.422 9.449 4.3 3.165 2.094 5.658 4.694 7.531 7.787 1.846 3.048 3.028 6.46 4.33 9.715l.349.868c.525 1.301 1.068 2.598 1.69 3.864.493 1.005 1.415 2.152 1.833 3.3 1.146-.177 2.292-.355 3.438-.526a615.995 615.995 0 0 1 75.131-6.509c.985-.025 1.495.813 1.349 1.58-2.415 12.743-4.562 25.53-6.918 38.283a2111.615 2111.615 0 0 1-3.15 16.686c-.544 2.817-1.172 5.622-1.687 8.443-.416 2.278-.718 4.573-1.431 6.798-.641 1.996-1.623 3.919-3.236 5.441-1.74 1.641-4.167 2.435-6.61 2.811-6.203.952-12.566 1.341-18.819 1.975l-33.292 3.379c.486 3.945.522 7.828.299 11.819l-.127 2.179c-.104 1.752-.228 3.507-.51 5.241-.354 2.176-1.47 4.018-3.113 5.643-1.509 1.492-3.342 2.766-5.125 3.986-1.851 1.266-3.764 2.489-5.94 3.273l-.282.1c-1.909.665-5.491 1.694-8.1 1.318.341 1.525 1.001 3.164.416 4.672-.272.701-1.298 1.05-1.928.454-1.246-1.181-1.343-2.741-1.638-4.283a109.842 109.842 0 0 1-.807-4.826c-.455-3.119-.809-6.267-.918-9.413-.111-3.231-.068-6.466.127-9.693.101-1.657.225-3.314.461-4.96.1-.702.203-1.405.321-2.106.043-.255.09-.509.141-.763l-2.988.301c-4.582.456-9.166.868-13.78.932-.547.007-.967-.215-1.242-.538-.293.426-.802.73-1.532.727-6.444-.021-12.445-1.901-18.306-4.116-2.954-1.117-5.863-2.326-8.821-3.434-2.762-1.033-5.714-1.771-8.409-2.935l-7.082 3.313a2.556 2.556 0 0 1-.189.447c-.461.839-1.37 1.295-2.299 1.638a6.164 6.164 0 0 1-2.713.349c-5.371 2.51-10.743 5.019-16.118 7.521l-5.377 2.5c-10.712 4.976-21.383 10.033-32.163 14.892l-.793.356c-3.724 1.666-7.722 3.354-11.854 4.614-.073.933-.027 1.84.061 2.828l.021.215c.123 1.167.387 2.629-.662 3.46-.546.432-1.521.434-1.893-.218-.673-1.181-.068-3.043.145-4.327.076-.456.168-.925.304-1.381-4.737 1.258-9.617 1.868-14.438 1.162-4.693-.687-8.328-3.325-11.259-6.551-3.092-3.405-5.29-7.372-6.469-11.625-1.342-4.84-1.43-9.838-1.398-14.796.033-5.279.252-10.584.972-15.827-.789-.165-1.663-.308-2.46-.259-.395.563-1.161.8-1.852.727-1.505 1.48 2.311 2.993 3.531 3.372.423.132.378.745-.111.727l-.307-.013c-1.885-.09-3.831-.377-4.939-1.939-.888-1.252-.622-2.736.437-3.757.699-5.896 2.37-11.637 3.925-17.389 1.527-5.645 3.224-11.254 5.023-16.835l.807-2.498c2.833-8.751 5.793-17.572 9.701-25.975 1.951-4.195 4.199-8.314 7.246-11.972 2.84-3.411 6.193-6.329 10.047-8.821 7.185-4.647 15.617-7.455 23.901-10.13l.37-.12c4.293-1.385 8.576-2.787 12.82-4.288 3.753-1.327 7.349-3.01 11.084-4.357a17.873 17.873 0 0 1-.351-.596l-.069.051a.78.78 0 0 1-.036.025c-.376.232-.929.118-1.239-.143-.874-.736-.578-1.552.006-2.316l.075-.097c.714-.892 1.351-1.834 2.009-2.759l.413-.578c1.106-1.544 2.267-3.098 3.742-4.374a8.14 8.14 0 0 1 2.222-1.363c-.068-.128.526-.389.694-.258 2.509-.819 5.395-.647 8.131-.421m98.574 134.371-3.489.354c-3.837.39-7.676.766-11.516 1.139l-8.34.809c-.021.424-.079.839-.09 1.159a511.199 511.199 0 0 0-.133 4.955c-.077 3.311.007 6.625.252 9.93.237 3.202.549 6.405 1.033 9.585l.1.636.057.334c.396.034.784.202 1.107.546.706.752 3.26.021 4.258-.295 1.64-.521 3.185-1.401 4.61-2.283 1.392-.862 2.646-1.866 3.85-2.924l.986-.87c.98-.869 1.962-1.795 2.562-2.888.815-1.482.92-3.302 1.159-4.917a158.74 158.74 0 0 1 1.014-5.947m-98.684-30.169-.362.085c-13.143 3.116-26.267 6.323-39.451 9.301-6.524 1.474-13.08 2.841-19.612 4.286l-1.058.236c-5.153 1.162-10.368 2.561-14.314 5.895-.146.123-.358-.066-.22-.196 4.253-4.039 10.302-5.749 16.109-7.231 1.074-.274 2.149-.542 3.223-.814-7.899-2.512-15.922-4.697-24.131-6.256-2.113-.401-4.252-.696-6.364-1.099-1.473-.281-2.911-.687-4.369-1.025l-1.146-.257-.015 3.232c-.019 4.578-.01 9.152.252 13.729l.049.848c.306 5.093.783 10.293 2.809 15.095 1.646 3.903 4.271 7.58 7.703 10.423 1.737 1.438 3.604 2.558 5.912 3.11 2.143.514 4.388.574 6.591.437 10.567-.658 19.973-5.778 29.152-10.018a27451.813 27451.813 0 0 1 45.058-20.773 7.312 7.312 0 0 1-1.137-.854c-2.015-1.857-3.078-4.399-3.776-6.86-.744-2.62-1.188-5.429-1.24-8.134m19.46 18.525c.133-.064.286.016.292.149.047 1.024-.588 2.034-1.062 2.957l-.05.098a59.493 59.493 0 0 1-1.858 3.38 162.68 162.68 0 0 1-4.071 6.572c-2.843 4.35-6.002 8.517-9.735 12.304-.844.856-2.231-.241-1.689-1.163 2.609-4.44 5.651-8.633 8.782-12.79 1.567-2.081 3.134-4.164 4.717-6.236.66-.864 1.329-1.726 2.016-2.574l.414-.507m158.126-86.045a615.062 615.062 0 0 0-39.49 2.325 603.809 603.809 0 0 0-44.035 5.673l-1.511.254c-2.521.426-5.599.602-7.843 1.803-2.366 1.266-3.005 3.912-3.793 6.094a458.55 458.55 0 0 0-2.705 7.721 528.009 528.009 0 0 0-9.508 30.976c-1.409 5.162-2.66 10.354-3.978 15.535-1.171 4.604-2.463 9.155-3.813 13.713.167-.116.371-.204.617-.25 6.702-1.272 13.544-1.825 20.346-2.528l.659-.069c7.037-.738 14.074-1.471 21.115-2.177l46.619-4.677c2.749-.275 5.695-.313 8.37-.971 4.549-1.119 5.616-5.656 6.379-9.27l.023-.109c2.301-10.916 4.133-21.928 6.279-32.872m-109.322 40.232c-1.81-.106-4.287-1.585-5.66-1.479.721 1.079 1.046 2.31.631 3.624-1.156 3.657-6.385 1.765-8.904.648-2.065-.917-4.059-2.038-6.345-2.467-2.59-.486-4.345.433-6.533 1.492a20.917 20.917 0 0 1-5.767 1.817c-1.07.172-2.087.19-3.102.123-.061.045-.13.086-.208.123l-.537.251c2.427.099 4.9.767 7.158 1.379 2.341.634 4.639 1.398 6.924 2.179l2.249.771c5.546 1.894 11.287 3.693 17.29 3.678.431-.001.785.105 1.063.279m-8.385-23.877c1.788-.195 3.438.014 4.867 1.052 1.723 1.252 2.881 3.329 5.358 3.465.722.04.89.946.172 1.135-1.844.487-3.337-.402-4.593-1.558l-.844-.787c-1.242-1.147-2.387-2.033-4.494-1.965-2.256.074-4.515.539-6.757.775-2.539.268-5.078.496-7.625.693-.118.009-.138-.157-.027-.181l2.853-.634m9.364-8.516.295-.026c2.596-.225 4.971-.234 7.29 1.012l.445.24c2.09 1.134 4.366 2.469 5.673 4.304.214.301-.139.654-.497.578-2.513-.538-4.35-2.183-6.463-3.414-2.372-1.381-4.822-1.153-7.526-.939-2.618.208-5.235.494-7.827.883-2.436.366-4.88.943-7.34 1.126v-.004c-.281 0-.441-.377-.154-.505 2.497-1.112 5.389-1.638 8.105-2.147m86.876-24.001c-.251-1.071 1.226-1.568 1.91-.718l.146.179c1.478 1.807 3.617 4.074 3.508 6.372 1.299.026 2.647.73 3.153 1.777.234.484.314 1.057.262 1.651 1.181.082 2.47.774 3.192 1.447 1.197 1.117 1.292 2.695.433 4-1.873 2.844-5.963 3.879-9.417 4.11l-.123.008c-3.566.22-8.706.161-11.152-2.569-2.359-2.633.249-4.765 2.922-5.923-.696-.567-1.056-1.38-.717-2.237.595-1.507 2.696-2.089 3.883-3.137 1.447-1.277 2.404-3.029 2.022-4.86m1.938 2.215c-.393 1.525-1.359 2.92-2.705 4.025-.515.423-1.078.799-1.676 1.122l-.072.037c-.531.266-1.835.764-1.735 1.361.103.613 2.229 1.572 2.809 1.573.131 0 .206.183.071.237-1.05.413-1.967.591-2.994.153-.686.625-1.352 1.272-2.012 1.913-1.167 1.134-.768 2.331.611 3.175 2.216 1.357 5.585 1.324 8.171 1.225 2.603-.099 5.385-.617 7.418-2.163l.088-.069c1.105-.877 2.114-2.362.422-3.206-.662-.331-1.378-.311-2.007-.472-.589 1.029-1.544 1.854-2.709 2.013-.942.128-1.591-.928-.734-1.433l.192-.106c1.076-.613 1.994-1.556 1.97-2.785-.017-.853-1.352-1.93-2.222-1.129l-.039.039c-.728.732-2.01-.191-1.531-1.001l.023-.037m-171.086-46.878c-.004-.183.285-.251.386-.093 1.69 2.652 2.573 5.902 3.473 8.823.942 3.06 1.703 6.151 2.387 9.265 1.384 6.305 2.122 12.574 2.172 19 .007.918-1.669 1.162-1.833.222-1.088-6.251-2.13-12.509-3.227-18.758-.552-3.143-1.194-6.274-1.808-9.408m15.175-4.432c-.125-.366.472-.488.624-.154 3.391 7.424 4.539 15.838 2.362 23.67-.333 1.198-2.3.679-2.049-.504m42.795-29.609c-.017-.274.381-.317.532-.129 1.606 2.02 2.272 4.724 5.091 5.767 1.407.521 2.991.431 4.234 1.311.831.588 1.469 1.517.845 2.409-.202.288-.765.432-1.038.119-.399-.456-.609-1.002-1.151-1.344-.764-.482-1.793-.511-2.669-.738-1.133-.293-2.131-.806-2.949-1.567m23.944-39.506a.347.347 0 0 1 .43.1c.152.182.133.359-.052.484.247.451.539 1.581.581 1.745.169.667.349 1.33.538 1.992.379 1.336.712 2.682 1.092 4.018a48.077 48.077 0 0 0 1.418 4.199c.034.089.072.18.112.273l.061.14.015-.021c.108-.153.334-.046.307.115-.024.148-.058.295-.086.442l.056.132c.349.839.589 1.723-.052 2.464-.24.276-.504.44-.833.489-.528 1.551-1.189 3.073-1.898 4.535l-.207.427c-1.043 2.133-2.154 4.238-3.813 6.053-1.812 1.983-4.304 3.337-5.882 5.509-.734 1.01-1.245 2.073-1.659 3.214l-.156.433c-.294.807-.634 1.59-1.483 2.063-.271.151-.676.103-.895-.103-1.74-1.642.082-4.709 1.131-6.299 1.459-2.212 3.571-3.626 5.685-5.295 2.279-1.798 3.733-4.203 5.139-6.573.861-1.452 1.692-2.935 2.568-4.394-.915-.721-1.208-2.153-1.517-3.149l-.029-.089a32.342 32.342 0 0 1-1.176-4.873 24.004 24.004 0 0 1-.285-4.725l.019-.405m4.272 4.617c-.203-.247.132-.527.409-.475 1.686.311 3.334 1.221 4.847 1.957l.161.078c1.208.581 2.423 1.293 3.057 2.421.69 1.227.633 2.64.539 3.973l-.009.124c-.115 1.599-.134 3.26-.513 4.829-.194.804-1.01 1.03-1.707.84-.83 2.338-3.161 4.06-4.864 5.904-2.171 2.351-1.762 5.526-1.535 8.358.092 1.146-1.507 1.472-2.331.861l-1.897-1.406-.947-.706a60.478 60.478 0 0 1-.801-.613l-.396-.312c-.175-.14-.95-.911-1.176-.943-.548-.078-1.851 1.211-2.297 1.615l-.056.051a21.644 21.644 0 0 0-2.304 2.361c-.13.154-.384.026-.291-.151a20.858 20.858 0 0 1 2.242-3.448l.177-.215c.581-.699 1.361-1.933 2.387-2.139 1.253-.252 2.504.869 3.416 1.491l.058.039c.433.29.862.585 1.29.883-.045-2.109.254-4.239 1.474-6.056.86-1.282 2.149-2.231 3.253-3.332 1.228-1.226 1.869-2.733 2.981-4.01a.867.867 0 0 1 .554-.281c.043-1.027.212-2.064.343-3.079l.038-.304c.132-1.103.445-2.451-.16-3.485-.572-.976-1.885-1.665-2.857-2.327l-.794-.549M432.33 161.32a6.132 6.132 0 0 0-1.412.994c-1.355 1.282-2.323 2.878-3.266 4.412-.507.827-.996 1.662-1.508 2.487-.223.359-.451.714-.683 1.068-.107.163-.425.488-.582.688.175.218.356.434.541.647.07.081 4.929 4.804 6.623 6.652 2.594 2.831 4.913 5.821 6.895 9.021 1.941 3.135 3.418 6.453 5.216 9.648.9 1.6 1.905 3.188 3.187 4.572.049.054.101.105.152.158.489-1.178 1.742-2.44 2.357-3.164l.058-.069a106.884 106.884 0 0 1 4.375-4.905 138.115 138.115 0 0 1 4.23-4.297l.543-.526c1.007-.97 2.285-2.421 3.759-3.114a6.305 6.305 0 0 0-.551-.744c-1.38-1.609-3.332-2.777-5.257-3.831l-1.249-.677c-4.706-2.559-9.34-5.236-13.426-8.561-2.162-1.759-4.294-3.601-6.111-5.653l-.642-.726m4.605-5.347c-2.205.165-4.585.126-6.622.766 1.811 1.527 3.532 3.176 5.301 4.729.157-1.05.479-2.088.751-3.112" fill="#000"/><path fill-rule="evenodd" clip-rule="evenodd" d="M498.254 100.61c-.814-4.936 1.858-5.96 0-10.654-4.128-8.696-15.379-8.32-23.635-8.99-9.208-.353-18.528.865-27.017 4.565a43.41 43.41 0 0 0-5.847 3.104c-1.617 1.021-1.395 2.963-.375 4.022-7.351 10.434-3.147 24.441-9.012 35.425-1.083 1.963-2.516 3.724-3.458 5.767-1.431 3.105-1.523 7.554 1.723 9.617 4.572 2.46 7.124-2.411 9.37 4.65 11.22 24.62 33.778 26.007 55.192 13.171 1.853-1.033 3.744-2.201 5.143-3.824 3.175-3.583 2.801-8.621 2.871-13.095.04-2.622.046-5.244.021-7.866-.1-10.623-3.612-25.357-4.976-35.892Z" fill="#D08B5B"/><path fill-rule="evenodd" clip-rule="evenodd" d="M452.642 71.082c12.93-5.88 27.595-8.11 41.699-6.647 6.962.72 13.831 2.267 20.369 4.779l.573.222c1.614.623 3.354 1.24 4.58 2.508 1.428 1.473 1.828 3.701.808 5.52-.793 1.415-2.218 2.429-3.738 2.97.535.44 1.043.93 1.52 1.478.803.917.864 2.225 0 3.13a13.132 13.132 0 0 1-6.154 3.61 6.527 6.527 0 0 1-.441 3.928c-1.609 3.622-6.142 4.054-9.63 3.839l-.105-.007-.194 2.226c-.104 1.185-.812 2.105-2.014 2.287-.042.006-.084.01-.126.014 1.901 6.895 3.05 14.002 4.111 21.068.554 3.688 1.05 7.385 1.525 11.084l.157 1.233c.506 3.988 1.139 8.017 1.358 12.035.196 3.645-.498 7.126-2.739 10.068-2.011 2.638-4.754 4.614-7.703 6.081-6.664 3.316-13.678 5.784-21.049 6.93l-.491.076c-2.845.435-5.776.802-8.591.013-2.473-.693-5.066-2.481-4.507-5.354.187-.97 1.541-1.012 2.005-.262l.107.172c.556.885 1.165 1.707 2.136 2.163 1.136.537 2.454.687 3.696.702 3.468.04 7.079-.826 10.418-1.695 6.237-1.623 12.641-4.269 17.749-8.278 2.174-1.704 3.92-3.834 4.535-6.575.761-3.38.061-7.074-.284-10.471-.712-7.008-1.559-14.003-2.452-20.991l-.179-1.397c-.753-5.842-1.543-11.686-1.919-17.561a1.654 1.654 0 0 1-.303-.723l-.059-.383a3.198 3.198 0 0 1-.024-.904c.002-1.061.032-2.116.093-3.177.01-.19.019-.38.025-.568-1.1.243-2.209.44-3.322.606a105.918 105.918 0 0 1-23.663.89c-3.936-.294-7.842-.799-11.736-1.43a156.625 156.625 0 0 1-5.926-1.074c-1.424-.286-2.817-.672-4.217-1.036-1.444 2.107-2.224 4.7-2.072 7.247.17 2.906 2.102 5.542 1.56 8.511-.509 2.779-2.884 3.641-5.228 4.329l-.998.289c-.767.225-1.324.441-1.463 1.366-.238 1.587.055 3.373.116 4.968.074 1.888.171 3.775.215 5.663.023.976.061 1.957.059 2.933-.002.693-.105 1.167-.373 1.615.207.26.392.541.557.839.052.097-.078.2-.156.12a5.583 5.583 0 0 0-.665-.59 5.662 5.662 0 0 1-.415.453l-.013-.017c-.501.501-1.298.55-1.92.017l-.164-.142c-.455-.4-.768-.733-.894-1.395a1.12 1.12 0 0 1-.017-.101 6.517 6.517 0 0 0-3.376.812c-1.65.915-2.812 2.219-3.499 3.829.274.321.594.609.967.85.053.036.007.114-.05.087a4.623 4.623 0 0 1-1.029-.662 9.344 9.344 0 0 0-.525 2.035c-.371 2.545.291 5.654 2.585 7.104a6.207 6.207 0 0 0 3.303.972c.574.002 1.069-.095 1.626-.233.377-.092.752-.228 1.147-.228.337 0 .649.085.938.254l-.08.007c-.195.018-.157.026.114.026.843.037 1.325.895.938 1.641l-.051.115-.027.058-.031.198a7.488 7.488 0 0 0-.009.058l-.012.04-.007.019 1.264 1.933c1.551 2.366 3.136 4.722 4.94 6.882 1.265 1.516 2.606 3.002 4.023 4.377 1.273 1.237 2.799 1.833 4.241 2.805.77.516.995 1.596.296 2.291-2.054 2.044-4.961.421-6.646-1.241-1.593-1.574-2.97-3.468-4.157-5.364-2.106-3.371-3.782-6.955-4.516-10.846-.305.281-.695.456-1.09.594-.79.275-1.661.389-2.496.418-1.6.053-3.202-.336-4.642-1.025-5.859-2.8-6.719-11.187-3.137-16.132-.483-1.404-.753-2.928-1.046-4.227l-.133-.581c-1.482-6.487-2.476-13.316.15-19.673.337-.82.717-1.619 1.166-2.384.36-.615.98-1.27 1.151-1.97.379-1.536-1.963-3.15-2.646-4.37-.803-1.431-.917-3.12.177-4.428.139-.165.291-.317.456-.45-1.038-1.886-1.086-4.257.28-6.117a5.982 5.982 0 0 1 3.765-2.344c.915-.158 2.016-.099 3.021.184 5.507-5.125 11.789-9.407 18.63-12.518Zm-21.145 64.13c1.47-1.3 3.093-1.98 5.096-1.809 2.013.173 4.438 1.008 5.62 2.739.934 1.367-.969 3.373-2.34 2.346-1.248-.936-2.081-1.993-3.63-2.496-1.392-.45-3.114-.74-4.571-.482-.16.027-.32-.171-.175-.298Z" fill="#000"/><path fill-rule="evenodd" clip-rule="evenodd" d="m474.118 156.66-2.232-8.525.36.056c3.541.556 5.311 1.128 5.311 1.714l-.001.04c-.047.661-1.193 2.899-3.438 6.715Zm20.549-6.683-.79 6.096-4.118-4.515 4.908-1.581ZM471.402 134.802c4.609 0 8.345-3.406 8.345-7.608s-3.736-7.609-8.345-7.609-8.345 3.407-8.345 7.609 3.736 7.608 8.345 7.608Z" fill="#fff"/><path fill-rule="evenodd" clip-rule="evenodd" d="M483.761 126.983c4.2 0 7.606-3.36 7.606-7.503 0-4.144-3.406-7.503-7.606-7.503-4.201 0-7.606 3.359-7.606 7.503 0 4.143 3.405 7.503 7.606 7.503Z" fill="#fff"/><path fill-rule="evenodd" clip-rule="evenodd" d="M494.113 133.323c3.384 0 6.127-3.028 6.127-6.763s-2.743-6.229-6.127-6.229-6.127 2.494-6.127 6.229 2.743 6.763 6.127 6.763Z" fill="#fff"/><path fill-rule="evenodd" clip-rule="evenodd" d="M471.964 147.837c1.532-.296 3.439.349 4.967.631l.114.02c1.853.324 3.702.716 5.575.907 1.789.183 3.616.215 5.404.01a17.33 17.33 0 0 0 3.606-.817l.04-.015c.257-.106.952-.507.944-.284a1.52 1.52 0 0 1 .76-.463 1.52 1.52 0 0 1 1.301.288c.454-.359 1.136-.101 1.44.329.522.739.352 1.605.285 2.462l-.006.076a38.16 38.16 0 0 1-.253 2.411l-.048.344c-.168 1.186-.214 3.142-1.651 3.53-1.136.308-2.175-.861-2.908-1.789l-.401-.514c-.474-.603-.905-1.223-1.253-1.908a12.906 12.906 0 0 1-.443-.955c-.017-.041-.029-.077-.042-.114-2.107.284-4.263.243-6.376-.036a31.753 31.753 0 0 1-3.952-.773l-.585 1.058a110.071 110.071 0 0 1-2.111 3.672l-.056.092c-.684 1.088-1.829 2.178-3.182 1.363-1.212-.73-1.263-2.389-1.391-3.627a39.924 39.924 0 0 1-.187-2.492l-.012-.357c-.022-.806-.153-1.741.157-2.495.045-.11.203-.195.298-.079.647.788.843 2.008 1.123 2.975.311 1.075.762 2.249.924 3.365l.045-.079c.16-.303.322-.604.486-.905l.49-.903c.439-.815.887-1.624 1.339-2.432a49.618 49.618 0 0 1-1.536-.614l-1.155-.483c-.66-.279-1.332-.594-1.828-1.101-.088-.09-.058-.272.078-.298Zm21.912 2.977a18.017 18.017 0 0 1-3.513 1.019c.077.079.154.158.226.241.282.327.581.641.882.951l.181.185c.461.474 1.153 1.253 1.86 1.706l.038-.205.014-.089.075-.672.035-.337c.061-.606.11-1.214.16-1.821.027-.32.033-.649.042-.978Zm-13.468-39.071c2.711-1.159 5.928-.612 8.262 1.138 2.389 1.79 3.434 4.701 3.572 7.605 1.89-1.614 4.611-.393 6.202 1.12 1.836 1.745 2.765 4.378 2.337 6.878-.427 2.491-2.229 4.688-4.666 5.429a6.576 6.576 0 0 1-3.64.033 6.775 6.775 0 0 1-1.338-.528l.077.311c.585 2.479.917 5.265.038 7.717-1.411 3.939-6.426 6.144-9.557 2.648-1.23-1.373-2.185-3.523-2.111-5.395.039-.983.596-2.121 1.746-2.054.891.051 1.314.798 1.086 1.588l-.014.045c-.483 1.51.342 3.692 1.537 4.722 1.834 1.58 4.35.205 5.352-1.647 1.169-2.158 1.026-4.926.653-7.274-.367-2.306-1.185-4.415-2.053-6.549a4.848 4.848 0 0 1-.281.045c-1.726.235-5.239.323-7.147-.928.205 1.931-.197 3.919-1.293 5.554-1.222 1.823-3.063 2.787-5.206 3.082-2.081.288-4.493.346-6.548-.147-4.375-1.051-5.918-6.454-4.594-10.355.782-2.307 2.966-4.383 5.394-4.907 1.251-.823 2.93-1.066 4.374-.954 2.155.168 4.279 1.1 5.722 2.736a8.573 8.573 0 0 1 1.355 2.091c.118-.093.255-.162.409-.199.242-.056.453-.069.689.014.118.042.287.189.39.284l.233.274c.285.334.557.613 1.066.82 1.418.578 3.342.703 4.849.585 3.845-.301 3.361-5.396 2.414-8.014-1.122-3.101-4.337-5.03-7.609-4.479-1.405.237-2.746.985-3.775 1.963-1.148 1.092-1.64 2.411-2.329 3.793-.041.082-.182.064-.199-.026-.566-2.915 2.118-5.958 4.603-7.019Zm-20.479 23.494c-.117-.137.036-.378.204-.265 1.225.833 2.588 1.434 4.07 1.597a7.991 7.991 0 0 0 2.09-.026c.591-.091 1.123-.271 1.712-.108.314.086.371.451.179.679-.89 1.06-3.082.777-4.278.493-1.546-.368-2.947-1.159-3.977-2.37Zm41.242-1.936c.601-.373 1.317.365.962.962-.914 1.531-3.562 1.656-5.098 1.289-.12-.028-.093-.217.029-.214.883.022 1.681-.147 2.442-.608.649-.394 1.037-1.04 1.665-1.429Zm-29.359-12.237-.12.001c-1.405.022-2.691.558-4.044.841a.593.593 0 0 1-.327-.025c-1.648 1.1-2.784 2.83-2.939 5.106-.107 1.576.278 3.294 1.214 4.587 1.065 1.473 2.781 1.7 4.47 1.744l.172.004c3.194.062 6.708-.126 7.846-3.699.843-2.644-.057-5.853-2.404-7.437-1.14-.769-2.501-1.123-3.868-1.122Zm25.732 1.896-.093-.11c-1.253-1.437-3.239-2.747-5.198-2.023l.006.242.001.121c-.006 2.777-1.081 5.368-3.725 6.183.709 1.012 1.279 2.136 1.735 3.301.161-.105.357-.172.585-.195.93-.094 1.464.78 2.271 1.106a4.276 4.276 0 0 0 2.409.227c1.745-.345 2.969-1.85 3.398-3.52.485-1.888-.156-3.868-1.389-5.332Zm-26.557 2.337c.581-.983 2.017-.841 2.592.026l.027.043.007-.008c.958 1.242.495 3.204-.897 3.903-1.116.56-2.535.413-3.277-.677a1.92 1.92 0 0 1-.312-.823 1.648 1.648 0 0 1 .033-.593l-.012.047.066-.293c.098-.4.334-.83.628-1.12a1.8 1.8 0 0 1 1.145-.505Zm23.908-1.022c.516 0 .973.216 1.345.558.529.486.603 1.186.489 1.85a7.722 7.722 0 0 1-.134.599l-.043.18-.025.089a1.484 1.484 0 0 1-.143.346c-.22.82-1.112 1.228-1.899 1.049-.37-.084-.739-.392-.927-.714a1.408 1.408 0 0 1-.137-.318l-.153-.363c-.029-.087-.047-.18-.07-.269-.051-.2-.1-.396-.136-.599-.122-.686-.025-1.337.489-1.85a1.962 1.962 0 0 1 1.344-.558Zm-11.35-7.119c.895-.12 1.805.297 2.268 1.087.402.687.4 1.612 0 2.298l-.034.059c-.737 1.265-2.456 1.427-3.49.45l-.05-.048c-.665-.628-.815-1.67-.471-2.487a2.229 2.229 0 0 1 1.777-1.359Z" fill="#000"/><g clip-path="url(#a)"><path d="M0 217h48c48 0 144 0 240 21.3 96 21.7 192 63.7 288 48 96-16.3 192-90.3 288-128 96-37.3 192-37.3 288-26.6 96 10.3 192 32.3 240 42.6l48 10.7v256H0V217Z" fill="#231F20"/></g><defs><clipPath id="a"><path fill="#fff" transform="translate(0 121)" d="M0 0h1440v320H0z"/></clipPath></defs></svg>