<svg xmlns="http://www.w3.org/2000/svg" viewBox="0 0 500 500"><path d="M195.61 44.46 36 136.48a6.58 6.58 0 0 0-3 5.17v283.07a6.55 6.55 0 0 0 3 5.15l.61.35a6.64 6.64 0 0 0 6 0l159.59-92.15a6.62 6.62 0 0 0 3-5.17V50a6.57 6.57 0 0 0-3-5.16l-.6-.34a6.6 6.6 0 0 0-5.99-.04Z" style="fill:#90caf9"/><path d="M195.61 44.46 36 136.48a6.58 6.58 0 0 0-3 5.17v283.07a6.55 6.55 0 0 0 3 5.15l.61.35a6.64 6.64 0 0 0 6 0l159.59-92.15a6.62 6.62 0 0 0 3-5.17V50a6.57 6.57 0 0 0-3-5.16l-.6-.34a6.6 6.6 0 0 0-5.99-.04Z" style="opacity:.45"/><path d="M205.19 333.11c0 2.62-1.85 4.3-4.13 5.61l-157.3 90.81c-2.27 1.31-4.12.25-4.12-2.38V146.71a8.2 8.2 0 0 1 4.1-7.11l157.32-90.86a2.76 2.76 0 0 1 4.13 2.39Z" style="fill:#90caf9"/><path d="M205.19 333.11c0 2.62-1.85 4.3-4.13 5.61l-157.3 90.81c-2.27 1.31-4.12.25-4.12-2.38V146.71a8.2 8.2 0 0 1 4.1-7.11l157.32-90.86a2.76 2.76 0 0 1 4.13 2.39Z" style="opacity:.30000000000000004"/><path d="M205.19 50v1.17a2.76 2.76 0 0 0-4.14-2.38L43.74 139.6a8 8 0 0 0-3 3 .36.36 0 0 0 0 .09l-6.81-3.93a6.15 6.15 0 0 1 2.07-2.28l159.57-92a6.58 6.58 0 0 1 6 0l.61.34a6.58 6.58 0 0 1 3.01 5.18Z" style="fill:#90caf9"/><path d="M205.19 50v1.17a2.76 2.76 0 0 0-4.14-2.38L43.74 139.6a8 8 0 0 0-3 3 .36.36 0 0 0 0 .09l-6.81-3.93a6.15 6.15 0 0 1 2.07-2.28l159.57-92a6.58 6.58 0 0 1 6 0l.61.34a6.58 6.58 0 0 1 3.01 5.18Z" style="opacity:.2"/><path d="M201.3 321c0 2.71-1.9 4.43-4.25 5.78L48.38 412.64c-2.34 1.35-4.25.26-4.25-2.46V161.93a8.45 8.45 0 0 1 4.23-7.33L197 68.72a2.84 2.84 0 0 1 4.26 2.46V321Z" style="opacity:.25"/><path d="m47.93 157.81 148.13-85.52a2.84 2.84 0 0 1 2.54 0l1.43.83a2.79 2.79 0 0 1 1.27 2.19v249.46A2.79 2.79 0 0 1 200 327L51.9 412.49a2.84 2.84 0 0 1-2.54 0l-1.43-.83a2.82 2.82 0 0 1-1.27-2.2V160a2.82 2.82 0 0 1 1.27-2.19Z" style="fill:#f5f5f5"/><path d="M51.6 412.62a2.52 2.52 0 0 1-.47.13h-.25a3.33 3.33 0 0 1-.77 0 2.52 2.52 0 0 1-.47-.13l-.28-.13-1.42-.82a2.79 2.79 0 0 1-1.27-2.2V160a2.44 2.44 0 0 1 .37-1.25l4 2.28a2.72 2.72 0 0 0-.37 1.25v249.47c-.04.7.33 1.04.93.87Z" style="fill:#e0e0e0"/><path d="m200 73.12-1.43-.83a2.84 2.84 0 0 0-2.54 0l-148.1 85.52a2.82 2.82 0 0 0-1.27 2.2v41.66l4 2.31L201.3 117V75.31a2.79 2.79 0 0 0-1.3-2.19Z" style="fill:#90caf9"/><path d="m200 73.12-1.43-.83a2.84 2.84 0 0 0-2.54 0l-148.1 85.52a2.82 2.82 0 0 0-1.27 2.2v41.66l4 2.31L201.3 117V75.31a2.79 2.79 0 0 0-1.3-2.19Z" style="fill:#fff;opacity:.4"/><path d="M201.25 74.93c-.16-.52-.64-.68-1.22-.35L51.9 160.1a2.66 2.66 0 0 0-.9 1l-4-2.29a2.4 2.4 0 0 1 .9-.94l148.17-85.58a2.74 2.74 0 0 1 2.52 0l1.44.82a2.88 2.88 0 0 1 1.22 1.82Z" style="fill:#90caf9"/><path d="M201.25 74.93c-.16-.52-.64-.68-1.22-.35L51.9 160.1a2.66 2.66 0 0 0-.9 1l-4-2.29a2.4 2.4 0 0 1 .9-.94l148.17-85.58a2.74 2.74 0 0 1 2.52 0l1.44.82a2.88 2.88 0 0 1 1.22 1.82Z" style="fill:#fff;opacity:.6000000000000001"/><path d="M46.67 160v41.68l4 2.29V162.3a2.72 2.72 0 0 1 .37-1.25l-4-2.29a2.47 2.47 0 0 0-.37 1.24Z" style="fill:#90caf9"/><path d="M60.17 235.52a.67.67 0 0 1-.3-.08.61.61 0 0 1-.29-.52v-19.83a.61.61 0 0 1 .29-.52l17.05-9.84a.6.6 0 0 1 .9.52v19.83a.57.57 0 0 1-.3.51l-17 9.85a.61.61 0 0 1-.35.08Zm.6-20.08v18.44l15.85-9.15v-18.45Z" style="fill:#455a64"/><path d="M88.3 201.34v1.37c0 .74.53 1 1.17.67L147.22 170a2.57 2.57 0 0 0 1.16-2v-1.38c0-.74-.52-1-1.16-.67l-57.75 33.37a2.6 2.6 0 0 0-1.17 2.02Zm0 8.66v1.37c0 .74.53 1 1.17.67l102.11-59a2.55 2.55 0 0 0 1.17-2v-1.38c0-.74-.52-1-1.17-.67L89.47 208a2.58 2.58 0 0 0-1.17 2Zm0 8.19v1.37c0 .74.53 1 1.17.67l102.11-59a2.55 2.55 0 0 0 1.17-2v-1.38c0-.74-.52-1-1.17-.67l-102.11 59a2.61 2.61 0 0 0-1.17 2.01Z" style="fill:#e0e0e0"/><path d="m68.49 226.25-3.96-3.82 1.32-2.81 2.26 2.17 9.77-20.68 1.71 1.64-11.1 23.5z" style="fill:#90caf9"/><path d="M60.17 272.07a.67.67 0 0 1-.3-.08.61.61 0 0 1-.29-.52v-19.83a.61.61 0 0 1 .29-.52l17.05-9.84a.6.6 0 0 1 .9.52v19.82a.58.58 0 0 1-.3.52l-17 9.85a.61.61 0 0 1-.35.08Zm.6-20.08v18.44l15.85-9.15v-18.45Z" style="fill:#455a64"/><path d="M88.3 237.89v1.37c0 .74.53 1 1.17.67l57.75-33.34a2.57 2.57 0 0 0 1.16-2v-1.39c0-.74-.52-1-1.16-.67l-57.75 33.34a2.58 2.58 0 0 0-1.17 2.02Zm0 8.63v1.37c0 .74.53 1 1.17.67l102.11-59a2.55 2.55 0 0 0 1.17-2v-1.38c0-.74-.52-1-1.17-.67l-102.11 59a2.58 2.58 0 0 0-1.17 2.01Zm0 8.22v1.37c0 .74.53 1 1.17.67l102.11-59a2.55 2.55 0 0 0 1.17-2v-1.37c0-.74-.52-1-1.17-.67l-102.11 59a2.6 2.6 0 0 0-1.17 2Z" style="fill:#e0e0e0"/><path d="m68.49 262.8-3.96-3.82 1.32-2.81 2.26 2.17 9.77-20.68 1.71 1.64-11.1 23.5z" style="fill:#90caf9"/><path d="M60.17 309.54a.67.67 0 0 1-.3-.08.61.61 0 0 1-.29-.52v-19.83a.61.61 0 0 1 .29-.52l17.05-9.84a.6.6 0 0 1 .9.52v19.82a.58.58 0 0 1-.3.52l-17 9.85a.61.61 0 0 1-.35.08Zm.6-20.08v18.44l15.85-9.15V280.3Z" style="fill:#455a64"/><path d="M88.3 275.36v1.37c0 .74.53 1 1.17.67l57.75-33.34a2.57 2.57 0 0 0 1.16-2v-1.38c0-.74-.52-1-1.16-.67l-57.75 33.33a2.58 2.58 0 0 0-1.17 2.02Zm0 8.64v1.37c0 .74.53 1 1.17.67l102.11-59a2.55 2.55 0 0 0 1.17-2v-1.38c0-.74-.52-1-1.17-.67L89.47 282a2.58 2.58 0 0 0-1.17 2Zm0 8.21v1.37c0 .74.53 1 1.17.67l102.11-59a2.55 2.55 0 0 0 1.17-2v-1.35c0-.74-.52-1-1.17-.67l-102.11 59a2.6 2.6 0 0 0-1.17 1.98Z" style="fill:#e0e0e0"/><path d="m68.49 300.27-3.96-3.82 1.32-2.81 2.26 2.17 9.77-20.68 1.71 1.64-11.1 23.5z" style="fill:#90caf9"/><path d="M60.17 347a.67.67 0 0 1-.3-.08.61.61 0 0 1-.29-.52v-19.82a.61.61 0 0 1 .29-.52l17.05-9.84a.6.6 0 0 1 .9.52v19.82a.58.58 0 0 1-.3.52l-17 9.85a.61.61 0 0 1-.35.07Zm.6-20.08v18.44l15.85-9.15v-18.44Z" style="fill:#455a64"/><path d="M88.3 312.83v1.37c0 .74.53 1 1.17.67l57.75-33.34a2.57 2.57 0 0 0 1.16-2v-1.38c0-.74-.52-1-1.16-.67l-57.75 33.33a2.6 2.6 0 0 0-1.17 2.02Zm0 8.63v1.37c0 .74.53 1 1.17.67l102.11-59a2.55 2.55 0 0 0 1.17-2v-1.38c0-.74-.52-1-1.17-.67l-102.11 59a2.58 2.58 0 0 0-1.17 2.01Zm0 8.22v1.37c0 .74.53 1 1.17.67l102.11-59a2.55 2.55 0 0 0 1.17-2v-1.37c0-.74-.52-1-1.17-.67l-102.11 59a2.6 2.6 0 0 0-1.17 2Z" style="fill:#e0e0e0"/><path d="M60.17 384.48a.67.67 0 0 1-.3-.08.61.61 0 0 1-.29-.52v-19.83a.61.61 0 0 1 .29-.52l17.05-9.84a.6.6 0 0 1 .9.52V374a.58.58 0 0 1-.3.52l-17 9.85a.61.61 0 0 1-.35.11Zm.6-20.08v18.44l15.85-9.15v-18.45Z" style="fill:#455a64"/><path d="M88.3 350.3v1.37c0 .74.53 1 1.17.67L147.22 319a2.57 2.57 0 0 0 1.16-2v-1.38c0-.74-.52-1-1.16-.67l-57.75 33.33a2.6 2.6 0 0 0-1.17 2.02Zm0 8.63v1.37c0 .74.53 1 1.17.67l102.11-59a2.55 2.55 0 0 0 1.17-2v-1.38c0-.74-.52-1-1.17-.67l-102.11 59a2.58 2.58 0 0 0-1.17 2.01Zm0 8.22v1.37c0 .74.53 1 1.17.67l102.11-59a2.55 2.55 0 0 0 1.17-2v-1.37c0-.74-.52-1-1.17-.67l-102.11 59a2.6 2.6 0 0 0-1.17 2Z" style="fill:#e0e0e0"/><path d="m61.82 174.41 51.86-30c.75-.43 1.35-.08 1.35.78v.4a3 3 0 0 1-1.35 2.34l-51.86 30c-.75.43-1.36.08-1.36-.78v-.4a3 3 0 0 1 1.36-2.34Zm0 7.09 30.86-17.82c.75-.43 1.35-.08 1.35.79v.39a3 3 0 0 1-1.35 2.35L61.82 185c-.75.44-1.36.09-1.36-.78v-.4a3 3 0 0 1 1.36-2.32Z" style="fill:#fafafa"/><path d="m165.58 114.05 23.07-13.33c.37-.22.67 0 .67.39v.89a1.47 1.47 0 0 1-.67 1.16l-23.07 13.33c-.37.22-.67 0-.67-.38v-.88a1.49 1.49 0 0 1 .67-1.18Zm0 10.63 23.07-13.33c.37-.22.67 0 .67.39v.87a1.49 1.49 0 0 1-.67 1.17l-23.07 13.33c-.37.22-.67 0-.67-.39v-.87a1.49 1.49 0 0 1 .67-1.17Zm4.76-8.09L188.65 106c.37-.22.67 0 .67.39v.87a1.49 1.49 0 0 1-.67 1.17L170.34 119c-.37.22-.67 0-.67-.39v-.87a1.49 1.49 0 0 1 .67-1.15Z" style="fill:#90caf9"/><path d="M167 83v12.73a10.92 10.92 0 0 1-5 8.65l-24.61 14.22c-1.22.71-1.92 2.11-2.65 3.59a14.15 14.15 0 0 1-1.9 3.12c-1.92 2.17-6.09 4.43-9 5.37a17 17 0 0 1-3 .68c-.37.07-.78.12-1.21.17-2.69.36-6 .82-8 1.95l-28.85 16.65a5 5 0 0 1-2.51.76 3.38 3.38 0 0 1-1.69-.44 4.15 4.15 0 0 1-1.83-3.79v-12.74a10.89 10.89 0 0 1 5-8.64l9.69-5.6.13-.05a1 1 0 0 1 1.28.44 1 1 0 0 1-.27 1.31.31.31 0 0 1-.11.09l-9.69 5.6a8.92 8.92 0 0 0-4 6.85v12.74a1.74 1.74 0 0 0 2.93 1.68l28.85-16.66c2.31-1.33 5.89-1.82 8.75-2.2l1.2-.16a16.57 16.57 0 0 0 2.63-.61c2.62-.83 6.5-3 8.11-4.77a12.33 12.33 0 0 0 1.6-2.67c.84-1.69 1.7-3.44 3.46-4.45L161 102.59a8.94 8.94 0 0 0 4-6.86V83a1.73 1.73 0 0 0-3-1.69l-8.4 4.85a8.7 8.7 0 0 0-1-1.77l8.4-4.86a3.73 3.73 0 0 1 6 3.47Z" style="opacity:.25"/><path d="M149.05 83.23a2.56 2.56 0 0 1 2.6.25 8.06 8.06 0 0 1 3.67 6.34 2.57 2.57 0 0 1-1.09 2.38L95.75 126l-5.18-9Z" style="fill:#37474f"/><path d="m93.17 121.51 61.08-35.27a7.35 7.35 0 0 0-2.6-2.75c-.12-.07-.23-.11-.35-.17l-60.13 34.73Z" style="fill:#455a64"/><path d="M93.17 117.26c-2-1.17-3.66-.23-3.66 2.11a8.11 8.11 0 0 0 3.66 6.35c2 1.16 3.66.22 3.66-2.12a8.07 8.07 0 0 0-3.66-6.34Z" style="fill:#263238"/><path d="M168.07 83.91v12.73a10.87 10.87 0 0 1-5 8.64l-24.65 14.23c-1.22.7-1.91 2.11-2.64 3.59a14.32 14.32 0 0 1-1.9 3.11c-1.92 2.17-6.09 4.44-9 5.38a17 17 0 0 1-3 .68l-1.21.17c-2.69.36-6 .81-8 1.95L83.82 151a5.11 5.11 0 0 1-2.51.75 3.37 3.37 0 0 1-1.69-.43 4.15 4.15 0 0 1-1.83-3.8v-12.69a10.91 10.91 0 0 1 5-8.65l9.69-5.59h.13a1 1 0 0 1 1 1.75.31.31 0 0 1-.11.09L83.82 128a8.94 8.94 0 0 0-4 6.86v12.73a1.74 1.74 0 0 0 2.93 1.69l28.85-16.66c2.31-1.33 5.89-1.82 8.75-2.2.43 0 .83-.12 1.2-.17a15.54 15.54 0 0 0 2.63-.61c2.61-.82 6.5-2.94 8.1-4.76a12.44 12.44 0 0 0 1.61-2.67c.83-1.7 1.7-3.44 3.46-4.46L162 103.49a8.92 8.92 0 0 0 4-6.85V83.91a1.74 1.74 0 0 0-2.93-1.69l-8.39 4.85a8.63 8.63 0 0 0-1.06-1.78l8.38-4.86a3.74 3.74 0 0 1 6 3.48Z" style="fill:#455a64"/><path d="M292.66 304.18c-.33 8.92-.55 17.61-.41 22.84 0 .49-3.62 2.69-7 2.12s-4.33-1.73-4.33-2.08c0-1.21-1.18-2.93-1.25-4.14a148.15 148.15 0 0 0-2.22-18.74Zm-53.8 4 15.63-1.27c-1.63 7.54-3.36 15.38-4.61 20.67a28 28 0 0 1-1.41 4.67c-.74 3.41-9.2 3.82-10.89-1.63L238 326c.16-4.31.56-11.43.86-17.82Z" style="fill:#ffbda7"/><path d="M311.34 339.76a3.16 3.16 0 0 1-.53 3.31c-1.31 1.18-5.23 3.18-10.5 2.71s-6.77-1.44-8.92-3.07-4.14-3.35-6.53-3.77c-2.22-.4-5.61-1.14-6.33-1.77s-.72-3.58-.72-3.58Z" style="fill:#263238"/><path d="M279.42 320.78a.94.94 0 0 0-.86.73c-.14.82-.24 3.18-.55 4.52a32.45 32.45 0 0 0-.07 8.57c.33 1.49 4.92 2.27 7.25 3a22.06 22.06 0 0 1 6.55 3.72 16.46 16.46 0 0 0 9.81 3.1c4-.17 8.56-1.61 9.55-3.46 1.22-2.3 1.35-4.47-4.74-6.95-1.15-.47-4.72-2.34-6.1-3.12A25.77 25.77 0 0 1 296 328c-.55-.47-1.08-1-1.58-1.47a4.73 4.73 0 0 1-.88-1.62 21.75 21.75 0 0 1-.5-3.33.55.55 0 0 0-.12-.28.52.52 0 0 0-.27-.15 7.15 7.15 0 0 0-2.95 0 12.1 12.1 0 0 0-2.94.75 2.49 2.49 0 0 0-1.33.89 2 2 0 0 0-.23 1.09 8.52 8.52 0 0 1 0 1.13.64.64 0 0 1-.15.38c-.19.21-.52.06-.7-.09a14.59 14.59 0 0 1-1.68-1.83c-.29-.33-1.57-.5-1.94-.75s-.75-.35-1-.61-.28-.86-.31-1.33Z" style="fill:#37474f"/><path d="M291.74 341.35a30.15 30.15 0 0 0-2.85-2s6.47 2.22 9.26.23c1.8-1.28.88-2.72.83-3.2s4.41-2.65 6.19-2.92c.5.25.93.45 1.19.56 6.09 2.48 6 4.65 4.74 6.95-1 1.85-4.25 3.39-9.48 3.58a16.94 16.94 0 0 1-9.88-3.2Z" style="fill:#455a64"/><path d="M298.44 335c3.78 1.32 2.21 2 1.17 2.23s-6.4-2.57-10.33-5.37c-4.09-2.93-7.67-6-9.19-7.12-.57-.4-1.18-.89-1.73-1.35.08-.8.13-1.53.2-1.92.11-.68.94-.91.94-.91l.08 1.3a3.45 3.45 0 0 0 1.19.65 4.72 4.72 0 0 1 1.88.86 14.59 14.59 0 0 0 1.68 1.83c3.38 3.94 10.33 8.53 14.11 9.8Z" style="fill:#263238"/><path d="M299.32 336.75a.39.39 0 0 1-.23-.07.34.34 0 0 1-.07-.5 9 9 0 0 1 6.76-2.86.36.36 0 0 1 .34.38.36.36 0 0 1-.4.33 8.46 8.46 0 0 0-6.12 2.58.34.34 0 0 1-.28.14Zm-3.32-1.66a.4.4 0 0 1-.24-.07.35.35 0 0 1-.08-.5 9.05 9.05 0 0 1 6.69-3 .37.37 0 0 1 .35.38.38.38 0 0 1-.39.34 8.39 8.39 0 0 0-6.06 2.71.37.37 0 0 1-.27.14Zm-3.07-1.92a.37.37 0 0 1-.24-.08.35.35 0 0 1-.07-.5 9.11 9.11 0 0 1 6.76-2.86.36.36 0 1 1-.05.72 8.38 8.38 0 0 0-6.12 2.57.39.39 0 0 1-.28.15Zm-2.72-1.74a.42.42 0 0 1-.24-.07.34.34 0 0 1-.09-.49 9.09 9.09 0 0 1 6.63-3.14.38.38 0 0 1 .36.37.38.38 0 0 1-.39.35 8.39 8.39 0 0 0-6 2.82.37.37 0 0 1-.27.16Zm-2.93-2.06a.38.38 0 0 1-.23-.06.35.35 0 0 1-.1-.5c1.32-1.87 4.51-3.28 7.27-3.18a.35.35 0 0 1 .35.37.37.37 0 0 1-.38.34c-2.49-.08-5.46 1.21-6.63 2.87a.37.37 0 0 1-.28.16Z" style="fill:#f0f0f0"/><path d="M248.37 350.81c-.26 3.52-.86 5.85-2.18 7.9s-3.76 2.66-6.22 2-5.59-2.29-6.25-5.34a18.9 18.9 0 0 1 .11-8.39Z" style="fill:#263238"/><path d="M238 326c-.87.26-1.15 5.08-1.8 9.81-.7 5.06-1.65 6.58-2.27 10.74-.71 4.75-.39 6.34 1.29 9.24s7.73 5.8 10.79 1.72c2.5-3.32 2.56-6.51 2.4-11.26a96.44 96.44 0 0 1 .2-11.32c.25-3.55 2.2-6.91 1.32-7.32a13.6 13.6 0 0 1-.64 2.66 4.73 4.73 0 0 1-.55 1.31c-.49.66-.71-.43-.7-.84 0-.7.26-1.26-.3-1.85a4.27 4.27 0 0 0-1.51-.86 9 9 0 0 0-1.84-.54 19.63 19.63 0 0 0-3.91-.26 1.89 1.89 0 0 0-1.52.59 1 1 0 0 0-.15.37c-.11.46-.06.95-.17 1.41 0 .13-.09.47-.21.54s-.35 0-.35-.05-.24-3.29-.08-4.09Z" style="fill:#37474f"/><path d="M234.11 344.89c-.11.69-.66 5 .61 5.8s2.18-2.69 2.18-2.69 3.25-.92 7.94 1.14c-.25.73.44 3.17 1.74 2.68s1.78-5.16 1.79-5.23c.13 4.55 0 7.62-2.41 10.85-3.06 4.08-9.11 1.18-10.79-1.72s-2-4.49-1.29-9.24c.12-.48.12-1.16.23-1.59Z" style="fill:#455a64"/><path d="M237.26 348.34c0 1.72-1.62 1.11-1.83-1.31-.31-3.63.67-7.08.72-11.25.65-4.73.78-9.74 1.8-9.81 0 .83.08 4.09.08 4.09-.37 3.54-1.39 7.67-1.29 11.32.08 3.22.57 5.25.52 6.96Zm7.03.79c.36-1.69.93-2.16 1.33-5.36s2.3-8.9 3-12.36a39.17 39.17 0 0 1 1.21-3.83c.63.3 0 2.29-.53 4.42s-.88 3.45-1.23 5.5c-.93 4.08-1.12 8.42-1.73 10.78s-2.4 2.53-2.05.85Z" style="fill:#263238"/><path d="M244.7 349.21a.33.33 0 0 1-.14 0 12.37 12.37 0 0 0-7.81-.89.38.38 0 0 1-.46-.26.37.37 0 0 1 .27-.45 13 13 0 0 1 8.36 1 .37.37 0 0 1 .15.5.38.38 0 0 1-.37.1Zm1.07-3.4a.27.27 0 0 1-.12 0 16.4 16.4 0 0 0-9.12-1.13.37.37 0 0 1-.45-.28.36.36 0 0 1 .29-.43 16.92 16.92 0 0 1 9.61 1.18.36.36 0 0 1 .17.49.38.38 0 0 1-.38.17Zm-9.72-3.96a.37.37 0 0 1-.32-.25.38.38 0 0 1 .24-.46c4.58-1.43 10.54.72 10.73.82a.35.35 0 0 1 .15.49.39.39 0 0 1-.51.15c-.05 0-5.88-2.1-10.13-.76a.3.3 0 0 1-.16.01Zm.78-3.07a.37.37 0 0 1-.32-.24.36.36 0 0 1 .24-.46c5-1.67 10.14 1.05 10.32 1.16a.36.36 0 0 1 .12.5.4.4 0 0 1-.52.12s-5-2.65-9.68-1.09a.43.43 0 0 1-.16.01Z" style="fill:#f0f0f0"/><path d="M237.19 335a.36.36 0 0 1-.08-.7c4.71-1.64 10.19 1.15 10.38 1.26a.35.35 0 0 1 .13.5.37.37 0 0 1-.52.13s-5.36-2.73-9.74-1.21a.33.33 0 0 1-.17.02Z" style="fill:#ebebeb"/><path d="m270.7 247.39 2.88 22.67s-.18 6.91.15 13.48 2.82 26.93 4.3 33.9a22.56 22.56 0 0 0 14.81-.18s2-39.17 2.56-48.39-.82-46.6-1.29-61.22l-46.27.14s-.92 7.86-1.74 19.6-2.71 43.23-2.71 43.23c-5 14-4.55 23.14-5.43 49.25a14.36 14.36 0 0 0 13.72 1.54s7.29-25.63 10.1-36c1.34-5 6.2-26.54 8.92-38" style="fill:#455a64"/><path d="M290 230.46s.85 35.86.72 38.68-.13 25.83.11 31.58c.87-6.37 1.26-18.55 1.26-31.53s-1.33-33.04-2.09-38.73Zm-27.42-3.07c-2.32 9.41-6.13 33.7-7 40.21s-7.26 32.13-7.92 38.69c1.18-6.49 8.35-32 9.28-38.53s4.19-28.46 5.64-40.37Zm12.08 2.2-4 17.8 2.88 22.67-.6-18.95 4.3-19.47s8.09-2.32 10.2-10.28c-4.08 6.4-12.78 8.23-12.78 8.23Z" style="fill:#37474f"/><path d="M298 188.44c-6.36-8.65-11.59-17.29-11.59-17.29l.95-20.64s3.91-1.13 9.77 8.65c3.53 5.88 11.51 18 11.51 18s14.21-7.88 15.71-9a18.86 18.86 0 0 0 3.07-3.14c2.56-3.15 5.38-4.24 9.09-5.68l1.91-.72c.3-.12.62-.22.91-.37s.51-.26.79 0a1.17 1.17 0 0 1 .27.77 3.36 3.36 0 0 1-1.17 2.42A17.11 17.11 0 0 1 337 163c-.59.39.17.66.55.74 1.85.38 4.67-.64 6.42-1.26a26 26 0 0 1 3.42-1.26 3.85 3.85 0 0 1 2.23.18c.47.21.83.57.51 1.12a2.61 2.61 0 0 1-.9.78 2.77 2.77 0 0 0-1.53 1.7 6.1 6.1 0 0 1-.36 1.6c-.31.63-1 1-1.34 1.61a17.73 17.73 0 0 0-.6 1.68 5.07 5.07 0 0 1-1.61 1.4 16.77 16.77 0 0 1-3.92 2 32.34 32.34 0 0 1-6.52 1.52 11.81 11.81 0 0 0-4.24 1.9c-1.18.89-4.37 4-5.29 4.88-1.13 1.08-7.38 7.57-12.74 10.69-6.03 3.56-7.88 3.23-13.08-3.84Z" style="fill:#ffbda7"/><path d="M308.64 177.12a10.53 10.53 0 0 0-5.43 6.15c.34-2.5.71-5.33 4.61-7.4Zm26.46-12.43a8.23 8.23 0 0 1-4.39 6.12 4 4 0 0 0 3.39-1.87c1.27-1.94 1.24-3.33 1-4.25Z" style="fill:#f0997a"/><path d="M287 149.57a15 15 0 0 1 6.9 4.32c1.93 2.06 5.32 7.86 7.35 11.08s4.2 6.62 4.2 6.62-.53 8.39-11 12.43l-8.62-12.6Z" style="fill:#ebebeb"/><path d="M262.42 147.1c-7.18 1.58-9.34 2.27-12.74 3.05 0 0-7.05 6.52-2.9 29.86a99.39 99.39 0 0 1 1.11 17.21c-.11 5.19-.32 10.82-.45 14.38 0 0 8 7.83 28.07 5.93 15.75-1.49 18.87-7.24 18.87-7.24s-.53-21.7-.53-33.71c0-19.18-2.56-23.59-6.84-27-.56-.34-11.22-2.12-11.22-2.12Z" style="fill:#263238"/><path d="M277.44 108.5c-7.7-1.72-13.12 1.3-16.31 5.32-3.24.05-5.07 2.62-5.54 5.81-1.59 10.75 7.08 16.37 8.41 21.64l25.21-19.06c.47-3.84-1.63-11.46-11.77-13.71Z" style="fill:#37474f"/><path d="m257.14 112.21 4.25 1.68a2.42 2.42 0 0 1-3.06 1.26 2.17 2.17 0 0 1-1.19-2.94Z" style="fill:#37474f"/><path d="m260.75 109.52.65 4.44a2.4 2.4 0 0 1-2.66-2 2.2 2.2 0 0 1 2.01-2.44Z" style="fill:#37474f"/><path d="M261.34 113.56c3.18-4 8.4-6.78 16.1-5.06 10.13 2.25 12.24 9.87 11.78 13.71l-5.45 4-9.43-7.73c-1.34-2.64-9.79-5.25-13-4.92Z" style="fill:#263238"/><path d="M274.34 118.48c-1-.78-2.4-1.19-4.35.07a5.48 5.48 0 0 0-2 2.51 12.9 12.9 0 0 0-.83 4.13c-.17 1.53-1.12 5.09-3.53 3.89-.71-.36-1.08-1.12-1.7-1.58a3.81 3.81 0 0 0-5.78 1.15 5.77 5.77 0 0 0 2.15 7.44c3.32 1.8 4.64-.06 4.64-.06l-.86 12.19c2.08 3.9 7.51 6.79 12.95 6.49s4.26-3.09 2.38-5.25l.34-4.73a15.31 15.31 0 0 0 4.5-.34c3.36-.86 5-3.86 5.71-7 .85-3.56.86-9.33.68-13.1a24.79 24.79 0 0 0-.39-3.08c-2.52-3.72-11.39-6.85-13.91-2.73Z" style="fill:#ffbda7"/><path d="m278.77 125.07 1.06 8.87 4.43-1.69-5.49-7.18z" style="fill:#f0997a"/><path d="m275.12 134.93 4.61 1.7a2.43 2.43 0 0 1-3.13 1.49 2.52 2.52 0 0 1-1.48-3.19Z" style="fill:#b16668"/><path d="m276.6 138.12.3.07a2.2 2.2 0 0 0-1.91-2.42 2.49 2.49 0 0 0 1.61 2.35Z" style="fill:#f28f8f"/><path d="M283.69 125.79a3.75 3.75 0 0 1 1.08-.33 3.13 3.13 0 0 1 1.1 0 3.76 3.76 0 0 1 1.11.37s0 .1 0 .09a8.59 8.59 0 0 0-1-.14h-.34a1.41 1.41 0 0 1 .54.76c.24.76-.31 1-1.06 1.2s-1.42.33-1.65-.43a1.37 1.37 0 0 1 .12-1.11l-.26.1-.46.22s-.07-.08-.05-.11a2.35 2.35 0 0 1 .87-.62Zm-11.54.21v-.09a3.39 3.39 0 0 1 1.08-.44 3.07 3.07 0 0 1 1.09-.06 3.77 3.77 0 0 1 1.1.27 2.2 2.2 0 0 1 .91.57s0 .14 0 .11l-.47-.19-.26-.09a1.41 1.41 0 0 1 .18 1.11c-.18.77-.86.68-1.62.51s-1.32-.36-1.14-1.13a1.5 1.5 0 0 1 .5-.79 1.83 1.83 0 0 0-.34 0 9.49 9.49 0 0 0-1.03.22Zm2.48-3.74-2.8 1.61a1.66 1.66 0 0 1 .61-2.23 1.59 1.59 0 0 1 2.19.62Z" style="fill:#263238"/><path d="M277.77 144.73a29 29 0 0 1-7.11-1.5c-2.71-1.12-3.89-2-5.18-5.17a7.57 7.57 0 0 0 1.92 4.66c3.13 3.07 10.25 3.57 10.25 3.57Z" style="fill:#f0997a"/><path d="M274.35 118.48a2.72 2.72 0 0 1 .9-2.74 3.6 3.6 0 0 1 2.94-.27c1.45.55 1.79 2.16 2.18 3.45a9.12 9.12 0 0 0 1 2.49 4.19 4.19 0 0 0 3.53 2.16 3.81 3.81 0 0 1-1-3.26 11.45 11.45 0 0 0 5.41 3.53c1.31.25 2-.34 2.27-1.58.8-3.24-.51-7.17-2.7-9.66a10.65 10.65 0 0 0-.95-.95c-4.55-4-12.05-5.94-18.24-5.64-3.49.16-8.59 2.68-8.34 7.55 3.21-.25 11.71 2.24 13 4.92Z" style="fill:#37474f"/><path d="m314.25 180.11-1.13-1.05a1.29 1.29 0 0 0-1.19-.19l-34.69 8a4.65 4.65 0 0 0-2.94 2.54l-10.1 25.89a1.18 1.18 0 0 0 .11 1.34l1.16 1.08a1.32 1.32 0 0 0 1.21.2l34.68-8a4.67 4.67 0 0 0 2.95-2.54l10.13-25.84c.23-.68.14-1.17-.19-1.43Z" style="fill:#455a64"/><path d="M277 188.65a4.49 4.49 0 0 0-1.54 1.87l-10.13 25.83a1.27 1.27 0 0 0 .07 1.32l-1.09-1a1.17 1.17 0 0 1-.12-1.34l10.13-25.85a4.42 4.42 0 0 1 1.42-1.76Z" style="fill:#263238"/><path d="m265.33 216.35 10.12-25.84a4.65 4.65 0 0 1 2.95-2.51l34.69-8c1.18-.28 1.78.42 1.34 1.55l-10.13 25.79a4.67 4.67 0 0 1-2.95 2.54l-34.68 8c-1.19.3-1.79-.4-1.34-1.53Z" style="fill:#37474f"/><path d="m275.25 196 1.9-4.84a.86.86 0 0 1 .55-.47l2.38-.55c.23-.05.34.08.25.29l-1.89 4.84a.86.86 0 0 1-.55.47l-2.39.55c-.22.06-.33-.07-.25-.29Z" style="fill:#455a64"/><path d="M277.22 192.35a2.15 2.15 0 0 1 1.4-1.17c.57-.13.87.18.67.69a2.19 2.19 0 0 1-1.41 1.17c-.57.13-.88-.18-.66-.69Zm-.93 2.44a2.2 2.2 0 0 1 1.4-1.17c.57-.13.87.18.67.7a2.18 2.18 0 0 1-1.4 1.16c-.57.14-.87-.17-.67-.69Z" style="fill:#263238"/><path d="m269.76 201.1-.54 1.39a34.41 34.41 0 0 0 6 1c.69 0 3.26-1.21 5.35-1.75s3.45.71 2.37 1.55a14.35 14.35 0 0 1-1.83 1.27c.88.88 1.49 1.7-.28 3.19a2.35 2.35 0 0 1-.75 2.61 22.23 22.23 0 0 1-5.91 3.74c-1.16.44-7.16.05-7.66-.22a37.57 37.57 0 0 1-4.56-3.19 34.71 34.71 0 0 0-6.07-3.36c-1.83-.61-18.1-7.34-21-8.8s-7.51-4.61-3.62-7.67 9.89-4.9 14.57-1.86c3.41 2.2 12 7 15.85 9.24a4.82 4.82 0 0 0 3.47.72 25.58 25.58 0 0 1 5.41.08Z" style="fill:#ffbda7"/><path d="M249.49 150.51c-7.44 2.13-9.7 3.46-11.22 7.49-2.48 6.55-8.16 29-8.47 34.85-.15 2.89 13.75 3.36 13.75 3.36l2.31-7.24s4.8-16.38 5.89-19.84c1.25-3.91 2.66-14.84-2.26-18.62Z" style="fill:#ffbda7"/><path d="M245.86 189c-2.48-1.63-7.15-1.83-9.7-.76 1.84-2.37 7.43-2 10-.27Zm35.25 15.53c-.85.48-1.67 1-2.49 1.54-.42.26-.82.54-1.23.81a1.09 1.09 0 0 1-.56.25l-.71.07c-1.92.14-3.87.14-5.82.3 1 .1 1.95.15 2.92.18s2 0 2.94 0c.24 0 .49 0 .74-.1a1.36 1.36 0 0 0 .42-.12 2.08 2.08 0 0 0 .33-.22c.39-.29.79-.57 1.17-.86.78-.63 1.55-1.22 2.29-1.85Zm-.28 3.19c-.81.55-1.61 1.1-2.44 1.61-.41.25-.82.51-1.24.74-.21.12-.43.25-.63.35a2.74 2.74 0 0 1-.64.15c-.94.12-1.92.14-2.89.19s-1.95.08-2.92.19a33.82 33.82 0 0 0 5.87.05 3 3 0 0 0 .77-.2c.23-.12.44-.24.65-.37.41-.27.83-.53 1.22-.82a19.4 19.4 0 0 0 2.25-1.89Zm-2.33 3.88c-.66.27-1.31.56-2 .79a9.51 9.51 0 0 1-2 .49 13.06 13.06 0 0 1-2.08.05 11.83 11.83 0 0 0-2.14.13l2.12.24a8.67 8.67 0 0 0 2.16 0 9 9 0 0 0 3.94-1.7Z" style="fill:#f0997a"/><path d="M249.68 150.15c-6.24 1.57-7.37 2.45-9.43 4.16s-2.89 4.6-4.36 10-4.19 16.22-4.19 16.22a12.93 12.93 0 0 0 7.19 3.71 18.32 18.32 0 0 0 8.73-.41s4.37-13.75 5.13-16.22 2.54-14.22-3.07-17.46Z" style="fill:#ebebeb"/><path d="m348.43 376.63 9-52.07 5.72-.29-11.87 52.35a.74.74 0 0 1-.38.52 2.24 2.24 0 0 1-2 .1.69.69 0 0 1-.45-.61Z" style="fill:#263238"/><path d="M433.36 316h5.72l13.44 54.09a.67.67 0 0 1-.41.63 2.23 2.23 0 0 1-2 0 .78.78 0 0 1-.41-.49Zm-39.55 85.45.25-58.32 5.71-.29-3.09 58.6a.78.78 0 0 1-.38.51 2.26 2.26 0 0 1-2 .1.69.69 0 0 1-.45-.6Z" style="fill:#37474f"/><path d="M402.15 297.86h5.72l9.13 57.47a.69.69 0 0 1-.41.63 2.29 2.29 0 0 1-2 0 .8.8 0 0 1-.41-.5Z" style="fill:#263238"/><path d="M449.82 252.84a32.15 32.15 0 0 1 2.29 10c.65 7.69-2 32.62-3.52 43.76-2.26 18.63-5 18.66-9.07 21.78-6.94 5.36-26.9 15.87-33.49 18.46-11.95 4.7-21.71-2.55-29-6.14a168 168 0 0 1-19.28-11.43c-1.82-1.32-2.77-2.66-2.75-4.07v-3.43c0-1.8 1.58-3.73 4.92-5.9 6.18-4 28.48-17 37.12-21.79a.09.09 0 0 1 .07-.08c6.65-4 10.65-31.47 15.26-46.07.09-.31.19-.61.29-.9s.17-.46.24-.68c.29-.8.59-1.52.91-2.19" style="fill:#90caf9"/><path d="M355 321.79c0-1.79 1.58-3.72 4.93-5.89 6.17-4 28.47-17 37.11-21.79a.09.09 0 0 1 .07-.08c6.65-4 10.65-31.47 15.26-46.07a24.48 24.48 0 0 1 1-2.68 1.67 1.67 0 0 0 .08-.2c.09-.19.17-.39.27-.59a2.71 2.71 0 0 1 .13-.3 14 14 0 0 1 3.08-4.44 7.32 7.32 0 0 1 1.5-1.06c.75-.42 2.32-1.29 2.71-1.52 4.52-2.7 10.45.54 17.83 4.58 4.59 2.52 8.51 5.51 10.89 11.09a32.15 32.15 0 0 1 2.29 10c.65 7.69-2 32.62-3.52 43.76-2.26 18.63-5 18.66-9.07 21.78-6.94 5.36-26.9 15.87-33.49 18.46-11.95 4.7-21.71-2.55-29-6.14a168 168 0 0 1-19.28-11.43c-1.82-1.32-2.77-2.66-2.75-4.07-.04-.53-.04-2.82-.04-3.41Z" style="fill:#90caf9"/><path d="M355 321.79c0-1.79 1.58-3.72 4.93-5.89 6.17-4 28.47-17 37.11-21.79a.09.09 0 0 1 .07-.08c6.65-4 10.65-31.47 15.26-46.07a24.48 24.48 0 0 1 1-2.68 1.67 1.67 0 0 0 .08-.2c.09-.19.17-.39.27-.59a2.71 2.71 0 0 1 .13-.3 14 14 0 0 1 3.08-4.44 7.32 7.32 0 0 1 1.5-1.06c.75-.42 2.32-1.29 2.71-1.52 4.52-2.7 10.45.54 17.83 4.58 4.59 2.52 8.51 5.51 10.89 11.09a32.15 32.15 0 0 1 2.29 10c.65 7.69-2 32.62-3.52 43.76-2.26 18.63-5 18.66-9.07 21.78-6.94 5.36-26.9 15.87-33.49 18.46-11.95 4.7-21.71-2.55-29-6.14a168 168 0 0 1-19.28-11.43c-1.82-1.32-2.77-2.66-2.75-4.07-.04-.53-.04-2.82-.04-3.41Z" style="opacity:.15"/><path d="M377 337.27a170.38 170.38 0 0 1-19.29-11.43c-4.14-3-3.76-6.09 2.17-9.94 8.25-5.35 41.86-24.42 41.86-24.42s42.5 25.08 40.67 29.71-28.13 19-36.42 22.22c-11.91 4.7-21.68-2.55-28.99-6.14Z" style="fill:#90caf9"/><path d="M377 337.27a170.38 170.38 0 0 1-19.29-11.43c-4.14-3-3.76-6.09 2.17-9.94 8.25-5.35 41.86-24.42 41.86-24.42s42.5 25.08 40.67 29.71-28.13 19-36.42 22.22c-11.91 4.7-21.68-2.55-28.99-6.14Z" style="fill:#fff;opacity:.30000000000000004"/><path d="M418.39 238.69c4.48-2.34 10.29.85 17.48 4.79 4.61 2.52 8.53 5.51 10.92 11.11l3-1.75c-2.38-5.58-6.3-8.57-10.89-11.09-7.38-4-13.31-7.28-17.83-4.58-.36.23-1.93 1.1-2.68 1.52Z" style="fill:#90caf9"/><path d="M418.39 238.69c4.48-2.34 10.29.85 17.48 4.79 4.61 2.52 8.53 5.51 10.92 11.11l3-1.75c-2.38-5.58-6.3-8.57-10.89-11.09-7.38-4-13.31-7.28-17.83-4.58-.36.23-1.93 1.1-2.68 1.52Z" style="fill:#fff;opacity:.30000000000000004"/><path d="M397.11 294s4.33 1.43 19.79 9c6.35 3.11 10.52 6.26 16.46 10 8.75 5.51 8.08 9.6 8.08 9.6 4.35-3.61 8.68-45.39 7.61-58a31.64 31.64 0 0 0-2.49-10.52c-.11-.25-.23-.49-.35-.74l-.26-.5-.13-.23a19.36 19.36 0 0 0-1.1-1.76l-.29-.41c-.11-.13-.2-.27-.31-.4a3.68 3.68 0 0 0-.31-.38c-.08-.11-.17-.21-.26-.32a18.54 18.54 0 0 0-1.57-1.62l-.42-.39a25.84 25.84 0 0 0-2.77-2.1l-.44-.29c-.2-.13-.4-.26-.61-.38l-.51-.31c-.45-.26-.9-.52-1.36-.77-5.5-3-10.19-5.59-14.09-5.59a7.32 7.32 0 0 0-4.89 1.86c-2.89 2.54-4.43 7.9-4.52 8.21-4.61 14.6-8.61 42.04-15.26 46.04Z" style="fill:#90caf9"/><path d="M397.11 294s4.33 1.43 19.79 9c6.35 3.11 10.52 6.26 16.46 10 8.75 5.51 8.08 9.6 8.08 9.6 4.35-3.61 8.68-45.39 7.61-58a31.64 31.64 0 0 0-2.49-10.52c-.11-.25-.23-.49-.35-.74l-.26-.5-.13-.23a19.36 19.36 0 0 0-1.1-1.76l-.29-.41c-.11-.13-.2-.27-.31-.4a3.68 3.68 0 0 0-.31-.38c-.08-.11-.17-.21-.26-.32a18.54 18.54 0 0 0-1.57-1.62l-.42-.39a25.84 25.84 0 0 0-2.77-2.1l-.44-.29c-.2-.13-.4-.26-.61-.38l-.51-.31c-.45-.26-.9-.52-1.36-.77-5.5-3-10.19-5.59-14.09-5.59a7.32 7.32 0 0 0-4.89 1.86c-2.89 2.54-4.43 7.9-4.52 8.21-4.61 14.6-8.61 42.04-15.26 46.04Z" style="fill:#fff;opacity:.1"/><path d="m388.56 339.64-8.1-10.58-12.62 9.29c8.41 5.7 17.66 12.81 19.93 15.56 0 0 7.17-3 7.64-7.07s-4.6-6.31-6.85-7.2Z" style="fill:#ffa8a7"/><path d="M397.83 342.66a6.37 6.37 0 0 1 2 1.5c.61.62 1.11 4.11 1.87 5.63a44 44 0 0 0 2.33 3.75c1.27 2.07 3.22 3.81 2.51 9.87s-3 9.33-5.19 11.17a6.38 6.38 0 0 1-2.76 1.24s-3.37-.6-3.23-2.55 2.47-30.61 2.47-30.61Z" style="fill:#263238"/><path d="M385.19 351.52c.2.58 1.2 1.33 1.62 1.75a16 16 0 0 1 3.11 5.35c3.54 8.72.8 14 6.31 16.49 1.58.63 4.47-.16 7.86-6.71 1.73-3.34 1.92-9.59.52-12.14s-2.94-4.1-3.9-6.08-1.39-5.94-2.88-7.52a8.71 8.71 0 0 0-3.29-1.91c-1-.36-3-.7-4-1s-1.57-.82-2-.07l1.26 1.07c2 1.91 1.61 2.31 1.8 3.49a18 18 0 0 0 1.28 3.62c-1.4-1.21-2.09-2.37-3.28-1.92s-1.36.41-2.82 2.4-1.78 2.66-1.59 3.18Z" style="fill:#90caf9"/><path d="M385.19 351.52c.2.58 1.2 1.33 1.62 1.75a16 16 0 0 1 3.11 5.35c3.54 8.72.8 14 6.31 16.49 1.58.63 4.47-.16 7.86-6.71 1.73-3.34 1.92-9.59.52-12.14s-2.94-4.1-3.9-6.08-1.39-5.94-2.88-7.52a8.71 8.71 0 0 0-3.29-1.91c-1-.36-3-.7-4-1s-1.57-.82-2-.07l1.26 1.07c2 1.91 1.61 2.31 1.8 3.49a18 18 0 0 0 1.28 3.62c-1.4-1.21-2.09-2.37-3.28-1.92s-1.36.41-2.82 2.4-1.78 2.66-1.59 3.18Z" style="opacity:.4"/><path d="M404.09 368.4c1.73-3.34 1.92-9.59.52-12.14a25.24 25.24 0 0 0-1.54-2.44 5.23 5.23 0 0 1 .22.51c.12.34.23.68.33 1a8.23 8.23 0 0 1 .32 4.2c-.3 1.23-1 4.28-2.47 4.63a2.32 2.32 0 0 1-2.26-1.42c-.22-.38-.65-1.44-.65-1.44a13.72 13.72 0 0 0-3.67 2.36c-1.94 1.88-1.8 2.19-1.8 2.19a5.81 5.81 0 0 1 .44 1.93 4.79 4.79 0 0 1-.47 2.08 2.62 2.62 0 0 1-.48.56 6 6 0 0 0 3.65 4.66c1.58.66 4.47-.08 7.86-6.68Z" style="opacity:.30000000000000004"/><path d="M389.92 358.62a30.86 30.86 0 0 1 1.91 7.14c1.27 2.17 2 2 1.86.74s-2.66-5.92-4.62-9.82c.31.65.59 1.32.85 1.94Zm2.81-15.57a5.14 5.14 0 0 0-1.51-3.15c-.24-.06-.46-.13-.64-.19-1.06-.36-1.57-.82-2-.07l1.26 1.07c2 1.91 1.61 2.31 1.8 3.49a18 18 0 0 0 1.28 3.62c1.66 3.77 2.75 4.93 3.88 8.56s.85 6.28 1.41 6.39 1.55-.5 1.19-3.52-2.62-7.78-4-10-2.57-4.57-2.67-6.2Z" style="fill:#37474f"/><path d="M398.87 361.54a.39.39 0 0 1-.17.14 9.09 9.09 0 0 0-5.3 4.59.37.37 0 1 1-.65-.37 9.77 9.77 0 0 1 5.66-4.92.38.38 0 0 1 .49.21.36.36 0 0 1-.03.35Zm-1.05-3.01a.39.39 0 0 1-.17.14 10.12 10.12 0 0 0-5.55 5 .37.37 0 0 1-.53.14.39.39 0 0 1-.14-.53 10.9 10.9 0 0 1 5.91-5.29.39.39 0 0 1 .48.57Zm-.57-3.43a.55.55 0 0 1-.18.16 11.5 11.5 0 0 0-6.21 5.57.43.43 0 0 1-.58.16.45.45 0 0 1-.16-.59 12.38 12.38 0 0 1 6.6-5.93.45.45 0 0 1 .57.22.42.42 0 0 1-.04.41Zm-1.04-2.82a.45.45 0 0 1-.18.15 11.25 11.25 0 0 0-6.07 5.44.42.42 0 0 1-.57.16.41.41 0 0 1-.15-.57 12 12 0 0 1 6.46-5.8.42.42 0 0 1 .55.22.41.41 0 0 1-.04.4Zm-1.6-2.64a.45.45 0 0 1-.18.15 11.21 11.21 0 0 0-6.07 5.44.42.42 0 1 1-.72-.42 12.05 12.05 0 0 1 6.45-5.79.42.42 0 0 1 .52.62Z" style="fill:#ebebeb"/><path d="M395.31 291.88s-32.56 7.2-44.38 10.4c-12.06 3.27-10.78 12.63-6.29 17.39 8.59 9.11 33 25.9 33 25.9s6.92-4.26 7.45-10.66l-6.7-9.48 24.26-3 3.46-4.19Z" style="fill:#455a64"/><path d="M372.54 335.79c1.72-4 3.24-5.23 7.49-8.08l5.09 7.2c-.53 6.4-7.45 10.66-7.45 10.66s-2.82-1.94-6.87-4.85a44.31 44.31 0 0 1 1.74-4.93Zm1.63-19.88c2.11 1.86 4 3.54 5.59 5.18s5.37 1.66 8.71 0c4.16-2.06 8.56-5.57 11.13-7.59-3.78-4.22-2.27-10.4-2.27-10.4.37 4 2.18 7.36 4.12 8.95l2.06 1.44.73 6.36-1.14 2.51-24.68 3.07c-6.78-8.81-9.11-12.86-14.79-13.53 0 0 4.29-1.49 10.54 4.01Z" style="fill:#37474f"/><path d="m378.32 385.88.35-1.16 7.9-20.47-14.9-5.58c-1.94 10.53-4.33 24.42-6.59 28.07 0 0 4 6.26 8 5.53s5.05-3.98 5.24-6.39Z" style="fill:#ffa8a7"/><path d="M377.81 393.36a6.26 6.26 0 0 1-.85 2.35c-.42.77-3.61 2.26-4.84 3.43s-1.45 1.69-2.9 3.32c-1.61 1.82-2.71 4.2-8.71 5.29s-9.81-.19-12.2-1.7a6.4 6.4 0 0 1-2-2.28s-.4-3.4 1.5-3.84 30-6.57 30-6.57Z" style="fill:#263238"/><path d="M365.65 383.87a6.72 6.72 0 0 0-1.2 2.06 15.94 15.94 0 0 1-4.21 4.53c-7.31 5.94-13.16 4.86-13.93 10.86-.14 1.69 1.46 4.22 8.71 5.55 3.71.68 9.73-1 11.77-3.05s3.06-4 4.67-5.51 5.27-3.06 6.35-4.95a8.66 8.66 0 0 0 .87-3.69c.06-1 .09-4.51.09-4.51-1.24 2.47-3.17 2.2-4.25 2.71a18.78 18.78 0 0 0-3.08 2.29c.75-1.69 1.66-2.69.88-3.7s-.79-1.18-3.13-2-3.11-.91-3.54-.59Z" style="fill:#90caf9"/><path d="M365.65 383.87a6.72 6.72 0 0 0-1.2 2.06 15.94 15.94 0 0 1-4.21 4.53c-7.31 5.94-13.16 4.86-13.93 10.86-.14 1.69 1.46 4.22 8.71 5.55 3.71.68 9.73-1 11.77-3.05s3.06-4 4.67-5.51 5.27-3.06 6.35-4.95a8.66 8.66 0 0 0 .87-3.69c.06-1 .09-4.51.09-4.51-1.24 2.47-3.17 2.2-4.25 2.71a18.78 18.78 0 0 0-3.08 2.29c.75-1.69 1.66-2.69.88-3.7s-.79-1.18-3.13-2-3.11-.91-3.54-.59Z" style="opacity:.4"/><path d="M355 406.87c3.71.68 9.73-1 11.77-3.05a26.62 26.62 0 0 0 1.88-2.18c-.15.12-.29.26-.42.36l-.89.62a8.32 8.32 0 0 1-3.93 1.53c-1.26.06-4.37.33-5.14-1a2.32 2.32 0 0 1 .69-2.57c.3-.32 1.19-1.05 1.19-1.05a13.67 13.67 0 0 0-3.33-2.81c-2.36-1.31-2.61-1.08-2.61-1.08a6 6 0 0 1-1.72 1 5 5 0 0 1-2.14.16 3.66 3.66 0 0 1-.67-.29 6 6 0 0 0-3.39 4.85c-.12 1.64 1.48 4.18 8.71 5.51Z" style="opacity:.30000000000000004"/><path d="M360.24 390.46a31.22 31.22 0 0 1-6.27 3.92c-1.7 1.84-1.3 2.47-.17 2s4.89-4.27 8-7.28c-.49.47-1.03.9-1.56 1.36ZM376 388.6a6.8 6.8 0 0 0 2.76-1.39c.52-.48.17-1.87 0-2.49l-.39 1.24a12.42 12.42 0 0 1-3.76 1.91 18.78 18.78 0 0 0-3.08 2.29c-3.12 2.69-3.91 4.07-7.06 6.21s-5.75 2.65-5.7 3.22.94 1.33 3.72.1 6.68-4.77 8.38-6.72 3.56-3.79 5.13-4.37Z" style="fill:#37474f"/><path d="M360.06 399.88a.5.5 0 0 1-.19-.13 9 9 0 0 0-5.93-3.72.39.39 0 0 1-.29-.45.38.38 0 0 1 .45-.29 9.79 9.79 0 0 1 6.36 4 .37.37 0 0 1-.06.53.39.39 0 0 1-.34.06Zm2.57-1.88a.36.36 0 0 1-.18-.12 10.15 10.15 0 0 0-6.37-3.86.37.37 0 0 1-.29-.46.38.38 0 0 1 .46-.29 10.93 10.93 0 0 1 6.79 4.11.39.39 0 0 1 0 .55.39.39 0 0 1-.41.07Zm3.11-1.56a.41.41 0 0 1-.2-.13 11.51 11.51 0 0 0-7.14-4.3.43.43 0 0 1-.32-.51.43.43 0 0 1 .51-.32 12.32 12.32 0 0 1 7.6 4.58.43.43 0 0 1 0 .6.41.41 0 0 1-.45.08Zm2.4-1.81a.5.5 0 0 1-.19-.13 11.19 11.19 0 0 0-7-4.21.44.44 0 0 1-.31-.51.42.42 0 0 1 .5-.31 12.05 12.05 0 0 1 7.43 4.48.42.42 0 0 1 0 .59.43.43 0 0 1-.43.09Zm2.06-2.3a.5.5 0 0 1-.19-.13 11.19 11.19 0 0 0-7-4.21.43.43 0 0 1-.31-.51.42.42 0 0 1 .5-.31 12.05 12.05 0 0 1 7.43 4.48.42.42 0 0 1 0 .59.43.43 0 0 1-.43.09Z" style="fill:#ebebeb"/><path d="M367.2 377.38c3.91 4.06 13.33 3.77 13.33 3.77s2.71-5.17 7.59-16.49c2.73-6.32 4.25-9.19 5.41-18 8.28-4.06 23-9.89 37-20.34 10-7.48 11.59-17.64 10.32-29.67-1.56-14.79-45-2.71-45-2.71 2.87 8 2.22 15.92 7.65 19.56 0 0-17.49 12.54-23.39 17-2.71 2.06-4 2.73-5.3 9-3.81 18.24-7.61 37.88-7.61 37.88Z" style="fill:#455a64"/><path d="m378.46 381.11-.78-.06c3-5.64 7.54-17.76 9.23-23 .55-1.7 1.69-6.49 2-7.8 1.6-6.28 1.83-8.56 3.55-9.15.44-.14 1.39-.7 2.88-1.44 7.57-3.75 25.88-13.06 32.2-19 .19-.17.36-.36.54-.54-3.19-1.84-4.18-6.71-3-10.17 1.23-3.7 1.15-10.39-.8-13.14l.57-.4c2.27 3.21 2 10.3.89 13.76-1.09 3.25-.07 7.88 2.87 9.44 5.9-6.3 7.42-15 4.38-25.2l.66-.2c3.3 11.09 1.36 20.41-5.61 27-6.4 6-24.78 15.35-32.37 19.11-1.43.71-2.46 1.22-2.85 1.44-1.64.88-2.24 5.2-3.19 8.82-.34 1.31-1.48 6.06-2.07 7.77-1.83 5.28-6.26 17.26-9.1 22.76Z" style="fill:#37474f"/><path d="m375.29 356.52 2.38-1.37 6.16 77.61-2.38 1.37-6.16-77.61z" style="fill:#455a64"/><path d="m375.29 356.52-3.55-2.05 7.34 78.29 2.37 1.37-6.16-77.61z" style="fill:#37474f"/><path d="m310.49 319.17 2.37-1.37-7.34 69.81-2.38 1.37 7.35-69.81z" style="fill:#455a64"/><path d="m310.49 319.17-3.56-2.06-6.16 70.5 2.38 1.37 7.34-69.81z" style="fill:#37474f"/><path d="m416.74 332.62 2.37-1.37 6.16 77.61-2.37 1.37-6.16-77.61z" style="fill:#455a64"/><path d="m416.74 332.62-3.56-2.05 7.34 78.29 2.38 1.37-6.16-77.61z" style="fill:#37474f"/><path d="m351.93 295.27 2.38-1.38-7.35 69.82-2.37 1.37 7.34-69.81z" style="fill:#455a64"/><path d="m351.93 295.27-3.55-2.06-6.17 70.5 2.38 1.37 7.34-69.81z" style="fill:#37474f"/><path d="M438.87 331.39v-2.81a1.59 1.59 0 0 0-.72-1.25l-89.87-51.92a1.61 1.61 0 0 0-1.45 0l-59.32 34.3a1.62 1.62 0 0 0-.72 1.25v2.81a1.64 1.64 0 0 0 .72 1.26L377.39 367a1.59 1.59 0 0 0 1.44 0l59.32-34.31a1.59 1.59 0 0 0 .72-1.3Z" style="fill:#90caf9"/><path d="M438.87 331.39v-2.81a1.59 1.59 0 0 0-.72-1.25l-89.87-51.92a1.61 1.61 0 0 0-1.45 0l-59.32 34.3a1.62 1.62 0 0 0-.72 1.25v2.81a1.64 1.64 0 0 0 .72 1.26L377.39 367a1.59 1.59 0 0 0 1.44 0l59.32-34.31a1.59 1.59 0 0 0 .72-1.3Z" style="fill:#fff;opacity:.2"/><path d="M378.11 362.64v4.48a1.53 1.53 0 0 0 .72-.17l59.32-34.3a1.61 1.61 0 0 0 .72-1.26v-2.81a1.63 1.63 0 0 0-.59-1.16c.26.23.22.54-.13.75l-59.32 34.3a1.42 1.42 0 0 1-.72.17Z" style="fill:#90caf9"/><path d="m438.15 328.16-59.32 34.31a1.59 1.59 0 0 1-1.44 0l-89.88-51.92a.45.45 0 0 1 0-.84l59.32-34.3a1.61 1.61 0 0 1 1.45 0l89.87 51.92a.44.44 0 0 1 0 .83Z" style="fill:#90caf9"/><path d="m438.15 328.16-59.32 34.31a1.59 1.59 0 0 1-1.44 0l-89.88-51.92a.45.45 0 0 1 0-.84l59.32-34.3a1.61 1.61 0 0 1 1.45 0l89.87 51.92a.44.44 0 0 1 0 .83Z" style="fill:#fff;opacity:.5"/><path d="m314.46 302.9 31.59-18.24a1.83 1.83 0 0 1 1.81 0l54.8 31.64a.4.4 0 0 1 0 .7l-31.88 18.41Z" style="opacity:.2"/><path d="M318.94 300.23v.68a2.81 2.81 0 0 0 1.4 2.43l49 28.26a2.76 2.76 0 0 0 1.39.37 2.83 2.83 0 0 0 1.41-.37l26.68-15.36a2.81 2.81 0 0 0 1.4-2.42v-.95a.36.36 0 0 1-.18.31l-29.3 16.92Z" style="fill:#37474f"/><path d="m318.93 300.23 29-16.76a1.71 1.71 0 0 1 1.67 0l50.4 29.08a.37.37 0 0 1 0 .64l-29.3 16.92Z" style="fill:#455a64"/><path d="m370.95 327.64 15.66-9.02-45.78-26.43-15.74 8.98 45.86 26.47z" style="fill:#37474f"/><path d="m325.09 301.17.6.34 15.14-8.64L386 318.96l.6-.34-45.77-26.43-15.74 8.98zm53.55 1.36-.28.16-7.68 4.43-13.64-7.87-.29-.17 7.97-4.59 13.92 8.04z" style="fill:#263238"/><path d="m378.36 302.69-7.68 4.43-13.64-7.87 7.68-4.43 13.64 7.87z" style="fill:#37474f"/><path d="M370.68 330.11V332a2.76 2.76 0 0 1-1.39-.37l-49-28.26a2.82 2.82 0 0 1-1.4-2.43v-.68Z" style="fill:#263238"/><path d="M367 276c4.82-1.87 16.93-7.21 16.93-7.21s10.93-18.32 13.32-22.16c2.86-4.6 6.92-8 13.56-7.51l-1.17 19.19s-11.78 16.9-13.88 19.68c-1.6 2.12-1.5 2.72-5.74 3.6L370 285.76l-.8.24a2.67 2.67 0 0 0-1.4.95 7.66 7.66 0 0 0-.88 1.47c-.84 1.79-.77 2.4-1.63 4.34s-1.28 1.76-2.63 3.23-1.8 2.31-2.41 2.17-.93-1.7-.48-3 1.74-2.51 2-3.06.15-1.35-1.36-1-4.78 3.25-6.24 4.49-2.66 3.15-4 4-1.25-.56-1.34-1.74-1.3-3-1.3-4.86 2.09-6.39 4-7.91 5.56-4.14 6.53-4.71A55.76 55.76 0 0 1 367 276Z" style="fill:#ffa8a7"/><path d="M411.34 238.9c-2.86-.26-6.42-.14-9.4 2.2s-4.47 4.33-8.87 11.78-6.61 11.27-6.61 11.27a14.09 14.09 0 0 0 5.28 6.35 27.06 27.06 0 0 0 7.6 3l11.15-15.16Z" style="fill:#ebebeb"/><path d="M399.1 256.69c1.17-13 5.62-17.33 12.24-17.79a130.49 130.49 0 0 1 14.46 1.41 56.84 56.84 0 0 1 15.88 6.16c3.28 2.05 4.33 6.44 4.39 15.63a204.9 204.9 0 0 1-1.72 26.5 136.53 136.53 0 0 1-4.53 22.84c-9.14 3.05-45.36-8-45.08-19.63.94-2.66 2.57-5.72 3.31-11.11.95-9.44.69-19.93 1.05-24.01Zm30.9-21.12c.89-3.58 4.78-7.08 6.64-10.12s2.91-5.22 2.95-8.09c0-1.71-.87-4.08-2.1-4.66 1.94-6.19-2.54-9.07-4.61-10-.91-.4-2.93-1.06-3.83-1.52-1.32-.67-1.54-1.79-2.57-2.81-1.78-1.75-5-2-6.36.31-1.14-1.73-2.86-1.81-4.87-1.46a3.39 3.39 0 0 0-2.88 3.62 3.54 3.54 0 0 0-5.45 1.54c-.27 1.13-.1 2.11-.93 3.08s-2.53 1-2.94 0c-.4 1.61.15 2.9 1.92 2.94a3.73 3.73 0 0 0-.7 3.08 3.4 3.4 0 0 0 2.88 2.56 5.13 5.13 0 0 0 2.53 4.57c2.58 1.48 5.5 2.12 8.34 2.93l3.36 1c.2.06 1.22.2 1.33.38Z" style="fill:#263238"/><path d="M434.7 231.22a3.53 3.53 0 0 1-4.26-.45l-.73 12c-2.37 5-11.17 5.15-14.23 3.47s-2.53-3.54-.25-6.25l-.07-2a34.4 34.4 0 0 1-4.29-.52c-2.81-.6-4.77-3.07-5.35-6.21a32.1 32.1 0 0 1 .57-12.21 10.31 10.31 0 0 0 .38-3 14.12 14.12 0 0 1 1.37-6.33c3.32-2.28 10.61-2.59 17 2-1.08 4 .23 7.25 3 9-.22 1.07-.57 3.79 1.22 3.88 1.28.06 1.49-1.54 2.91-2.86s4.53-1.47 5.56.71a7 7 0 0 1-2.83 8.77Z" style="fill:#ffa8a7"/><path d="m424.29 218.36 8.35 3a3.4 3.4 0 0 0-1.34 1.28l-7.3-2.3Z" style="fill:#263238"/><path d="M404.32 215.52c-.11.83.33 1.11.39 1.74a21.58 21.58 0 0 0 0 3.4 3.49 3.49 0 0 0 3 3 4.12 4.12 0 0 0 2.42-.16 4 4 0 0 0 1.81-1.59c.79-1.13.86-2.9 2-2.71s.66 1.93 1.06 3.3a4.25 4.25 0 0 0 3.66 3.27 3.76 3.76 0 0 0 3.08-.57c1.33-1 1.6-2.89 2.11-4.22.24-.65.79-.69 1-1.51s-.44-1.18-1.09-1.31a18 18 0 0 0-5.84-.94c-1.94.19-2.69.68-3.72.49s-1.47-.92-3.11-1.8a16.71 16.71 0 0 0-5.95-1.27c-.33-.04-.74.36-.82.88Zm12 3.28a1.63 1.63 0 0 1 .61-.35h.1a7.28 7.28 0 0 1 2.79-.27 4.73 4.73 0 0 1 3.2 1.23c.42.69-.27 2.69-.69 3.63a2.91 2.91 0 0 1-.18.35l-.11.18c-1.1 2.06-4.59 1.57-5.63-.22a4.91 4.91 0 0 1-.13-4.55ZM406 216.1a1.51 1.51 0 0 1 .49-.2 2.13 2.13 0 0 1 .44-.07h.1c1.59-.17 4.42 1 5 2.16.29.75-.19 2.29-.69 3.24a3 3 0 0 1-.5.69c-.7 1-3 1.24-4.24.24a3.82 3.82 0 0 1-1.16-3.12c-.06-.92.05-2.64.56-2.94Z" style="fill:#37474f"/><path d="m414.75 220.67-2 6.67-4.1-2.56c.2-.24.41-.49.61-.75l.3-.37.61-.76c.54-.66 1.09-1.31 1.6-1.88a14.47 14.47 0 0 1 1.18-1.17c.23-.21.46-.4.64-.54s.14-.11.21-.15h.15c.61.12.74.74.8 1.51Zm.41 17.33c4.55-.19 8-.42 10.6-3.51a27.92 27.92 0 0 0 3.12-5.13 22.21 22.21 0 0 1-2.44 6.54c-1.29 2-4.11 3.64-11.22 3.71Z" style="fill:#f28f8f"/><path d="M417.13 220.91a1.27 1.27 0 1 0 1.43-1.16 1.31 1.31 0 0 0-1.43 1.16Zm2.02-5.32 2.85 1.25a1.63 1.63 0 0 0-.83-2.1 1.53 1.53 0 0 0-2.02.85Z" style="fill:#263238"/><path d="m418 228.79-4.31.93a2.33 2.33 0 0 0 2.7 1.73 2.16 2.16 0 0 0 1.61-2.66Z" style="fill:#b16668"/><path d="M415.14 231.36a2.6 2.6 0 0 1 2.88-1.94 2.11 2.11 0 0 1-1.66 2 2.19 2.19 0 0 1-1.22-.06Z" style="fill:#f28f8f"/><path d="m407.71 214.64 3.12-.12a1.49 1.49 0 0 0-1.56-1.52 1.64 1.64 0 0 0-1.56 1.64Zm-.26 4.52a1.28 1.28 0 0 0 1.22 1.36 1.31 1.31 0 0 0 1.32-1.28 1.28 1.28 0 0 0-1.22-1.36 1.31 1.31 0 0 0-1.32 1.28Z" style="fill:#263238"/><path d="M389.4 294.11a21 21 0 0 0-8.14-.92c-3.09.18-5.53-.66-6-.51-1.64.59-.6 3.35 3.36 3.8 3.07.34 10.78-2.37 10.78-2.37Z" style="fill:#f28f8f"/><path d="M430.62 303.78c-7 1.05-27.92 1.92-28.9 2.13-.42.09-2.3.39-2.79.47-1 .18-2.05.39-3.09.54a9 9 0 0 1-1.8.14 23.86 23.86 0 0 1-4.19-.81 7.73 7.73 0 0 0-3.38-.2c-1.39.25-2.75.57-4.12.88a5.48 5.48 0 0 1-3.35-.17 9.14 9.14 0 0 1-1.06-.61 6.5 6.5 0 0 0-1.69-.34 2.17 2.17 0 0 1-1.17-.63c-.17-.2-.22-.53-.42-.7a2.2 2.2 0 0 0-1.11-.27 8.29 8.29 0 0 1-1.72-.32c-.75-.25-1.81-.79-1.6-1.74.09-.43.44-.59.8-.84.61-.42 1.27-.84 1.85-1.31 1.35-1.11 2.87-2 4.22-3.08a8.16 8.16 0 0 1 4.13-1.6c1.59-.26 3.15-.64 4.75-.82 1.3-.14 2.56-.63 3.89-.31 3.22.77 6.49 2.26 9.86 1.62 4.89-.93 26.65-6.83 26.65-6.83l5.24-19.74s3.66-17.68 9.22-22.89c4 1.52 7.65 4.57 8.84 8.68 1.41 4.84-.06 9.07-2.82 20.82-2.1 8.92-2.54 9.73-4.95 18.1-1.97 6.86-2.68 8.56-11.29 9.83Z" style="fill:#ffa8a7"/><path d="M440.53 245.81c4.21 1.93 8.82 4.55 9.93 11.33s-5.28 27.41-5.28 27.41a25.59 25.59 0 0 1-9.67-1.23c-5.73-1.72-7-4.33-7-4.33s1.95-8.95 3.06-13.12 3.37-14.94 8.96-20.06Z" style="fill:#ebebeb"/><path d="M369.89 330.52a3.29 3.29 0 0 1-2.85-.22l-48.74-28.14a3.3 3.3 0 0 1-1.61-2.32L311.35 268a3.48 3.48 0 0 1 0-.55 3.3 3.3 0 0 1 1-2.35L363 294.34a2.47 2.47 0 0 1 1.19 1.72Z" style="fill:#37474f"/><path d="m370.68 330.11-.33.19a3.88 3.88 0 0 1-.46.22l-5.76-34.43a2.47 2.47 0 0 0-1.19-1.72l-50.65-29.24a3.5 3.5 0 0 1 .68-.52l50.75 29.3a2.5 2.5 0 0 1 1.19 1.72Z" style="fill:#455a64"/><path d="m363.66 295 .78-.45a2.49 2.49 0 0 1 .47 1.06l5.77 34.48-.33.19a3.88 3.88 0 0 1-.46.22l-5.76-34.43a2.53 2.53 0 0 0-.47-1.07Z" style="fill:#263238"/><path d="M342.45 301.15c-.36-2.13-2.56-5-4.92-6.32s-4-.74-3.62 1.39 2.56 5 4.92 6.32 3.97.74 3.62-1.39Z" style="fill:#90caf9"/><path d="M117.18 413c.72-9.35-.48-19.63.35-34.23.08-3.75.22-7.75.49-11.32.9-12 2.87-16.07 3-18.39 0 0 1-23 1.81-49.18.39-12.33 4.2-16.07 7.24-22.61H168c4 16.15 6.37 51.33 6.25 68-.07 8.49-3.32 53.77-3.39 54.82a9 9 0 0 0 2.91 7.45c3.24 3.26 8.3 5.77 12.36 8.61-.59 1.46-8.68 1.45-11.1.34a62.08 62.08 0 0 1-9-5.39c-3.34-2.32-6.91-1.08-8.25-4.71a34.62 34.62 0 0 1 0-5.68c-.06-2.06-4.75-30.38-5.17-37.43a156.51 156.51 0 0 1 .42-16.34l-4.17-25.67s-3.2 19.49-5.8 29.85c-2.12 8.43-5.61 22.82-8 33.2-2.28 12-5.57 23.58-6.15 29.57-.17 1.43-1.9 15.45-2.61 18.67s-9.86 3.29-10.34-2.23c-.29-3.75 1.04-15.62 1.22-17.33Z" style="fill:#c8856a"/><path d="M191.31 420.49a3.22 3.22 0 0 1-.6 3.34c-1.35 1.16-5.35 3.08-10.67 2.47s-8.21-2.18-10.35-3.88-5.15-4.11-7.55-4.6a14.83 14.83 0 0 1-5.4-2.07c-.72-.66-.65-3.64-.65-3.64Z" style="fill:#263238"/><path d="M157.81 400.64s-.4 0-.53.7-.3 3.21-.64 4.56a23.57 23.57 0 0 0-.44 7.24c.31 1.52 4 2.54 6.29 3.37a30 30 0 0 1 7.58 4.54 22.31 22.31 0 0 0 11.25 3.95c5.28 0 8.69-1.4 9.72-3.26 1.29-2.29.81-4.36-5.29-7-1.16-.51-4-2.51-5.38-3.34a30.3 30.3 0 0 1-4.16-2.94 20.8 20.8 0 0 1-1.87-1.76 8.23 8.23 0 0 1-1.56-1.89c-.07-.15-.12-.34-.19-.5a9.38 9.38 0 0 1-.41-1.37c-.1-.49-.17-1.21-.65-1.49a4.13 4.13 0 0 0-2.18-.23c-.78.07-3.36.65-4.12.83s-1.92.29-2.45 1.11a4.27 4.27 0 0 0-.47 2.14v1c0 .15.07.41-.15.36s-.43-.57-.51-.75c-.17-.38-.28-.79-.47-1.17a6.59 6.59 0 0 0-.77-1.24 6.16 6.16 0 0 0-1-.94 10.14 10.14 0 0 1-1.05-.64 2.39 2.39 0 0 1-.55-1.28Z" style="fill:#37474f"/><path d="M186.73 415.14c-7.64.59-10.56 5.95-10.85 8.79a18.07 18.07 0 0 0 5.44 1.05c5.28 0 8.9-1.4 9.94-3.26 1.21-2.16.92-4.64-4.53-6.58Z" style="fill:#fafafa"/><path d="M174.71 416.09a.41.41 0 0 1-.24-.08.36.36 0 0 1-.06-.51c1.05-1.28 5.89-3.47 8.67-3.2a.36.36 0 0 1 .34.39.37.37 0 0 1-.41.33c-2.6-.24-7.18 1.92-8 2.93a.35.35 0 0 1-.3.14Zm-3.32-1.83a.46.46 0 0 1-.24-.08.35.35 0 0 1-.05-.51c1.05-1.28 5.89-3.47 8.67-3.2a.36.36 0 1 1-.07.72c-2.6-.24-7.19 1.92-8 2.93a.37.37 0 0 1-.31.14Zm-3.07-2.1a.35.35 0 0 1-.24-.08.36.36 0 0 1-.06-.51c1-1.27 5.9-3.46 8.67-3.2a.37.37 0 0 1 .34.4.37.37 0 0 1-.41.33c-2.59-.25-7.18 1.91-8 2.93a.34.34 0 0 1-.3.13Zm-3.02-2.09a.4.4 0 0 1-.23-.08.37.37 0 0 1-.07-.51c1.45-1.81 6.53-3.51 9.31-3.24a.36.36 0 0 1 .34.39.38.38 0 0 1-.41.33c-2.5-.24-7.36 1.36-8.65 3a.37.37 0 0 1-.29.11Z" style="fill:#f0f0f0"/><path d="M128.06 433.42c-.36 3.65-1 6.05-2.3 8.14s-3.76 2.5-6.12 2.14c-3.23-.48-6.58-2.9-7.39-6-.87-3.33-.59-5.35.09-8.72Z" style="fill:#263238"/><path d="M117.42 406.49c-1 0-1.11 5.25-1.88 10.14-.82 5.25-2.38 7.37-3.1 11.66-.82 4.92-.15 7.16 1.33 10.21s8.75 6.31 11.75 2.16c2.45-3.39 2.71-7.25 2.72-12.19a116.84 116.84 0 0 1 .86-12.47c.35-3.69 1.6-7.48.79-7.93-.09.54-.27 1.33-.36 1.86a10.32 10.32 0 0 1-.63 1.95c-.11.28-.34.55-.4.1a2.86 2.86 0 0 1 0-.92c.2-1.35-.44-1.49-.78-1.61-.74-.26-5.36-.86-6.07-.94s-3.23-.31-3.58.12a3.19 3.19 0 0 0-.38 1.41c-.12.74-.3 1.28-.31 1v-2.14c.04-.68.01-2.09.04-2.41Z" style="fill:#37474f"/><path d="M112.11 430.77a11.29 11.29 0 0 0 1.46 7.58c1.76 2.88 9.2 6.34 12.2 2.19a14.81 14.81 0 0 0 2.29-7.12c-1.54-3.37-13.16-5.34-15.95-2.65Z" style="fill:#fafafa"/><path d="M126.22 428h-.12s-6-2.25-10.38-1.37a.36.36 0 0 1-.41-.31.38.38 0 0 1 .29-.44c4.58-.92 10.67 1.35 10.84 1.44a.4.4 0 0 1 .14.52.36.36 0 0 1-.36.16Zm-10.12-5.12a.35.35 0 0 1-.29-.27.38.38 0 0 1 .24-.47c4.34-1.37 10.66 1.24 10.83 1.35a.4.4 0 0 1 .13.52.35.35 0 0 1-.48.14s-6.25-2.56-10.28-1.28Zm.3-3.47a.37.37 0 0 1-.29-.26.39.39 0 0 1 .24-.47c4.78-1.6 10.84 1.21 11 1.33a.4.4 0 0 1 .09.53.34.34 0 0 1-.49.1s-6-2.73-10.4-1.24a.3.3 0 0 1-.15.01Z" style="fill:#f0f0f0"/><path d="M116.78 416a.35.35 0 0 1-.28-.26.39.39 0 0 1 .23-.48c4.48-1.57 10.89 1.32 11.06 1.44a.39.39 0 0 1 .11.53.34.34 0 0 1-.49.11s-6.31-2.82-10.47-1.36a.41.41 0 0 1-.16.02Z" style="fill:#ebebeb"/><path d="M129.16 277.32c-4.29 7.34-7.48 13.33-7.91 35.14s-1 32.23-1.08 34.86-1.73 7.33-3.16 20.28-.12 28.12-.12 28.12a16.83 16.83 0 0 0 8.33 2.79c4.88.41 7.29-1.3 7.29-1.3s6.68-25.22 8.53-33 7.85-37.77 7.85-37.77l3.18 20.81s-1.48 7.14 0 18.5 3.34 22.81 3.34 22.81a28 28 0 0 0 8.25 1.33 35 35 0 0 0 8.35-1.32s3.53-34.13 3.53-47-.3-44.56-3.22-64.07Z" style="fill:#455a64"/><path d="m148.89 326.41 4.35-24.75s9.18-.62 14.28-5.62c-1 4.28-8.26 7.89-11.57 8.63l-.84 4.36c.16 2.32.34 4.76.52 7.27 1 13.85 2.05 28.17 1.3 31.4-2 8.5-1.4 13.9-.34 23.69.11 1 .23 2 .34 3.14.61 5.69 1.28 11.26 1.72 14.84l-.71-.15c-.44-3.58-1.09-9-1.68-14.61-.12-1.1-.23-2.15-.34-3.15-1.08-9.85-1.67-15.28.34-23.89.74-3.14-.35-18.06-1.31-31.22-.11-1.59-.23-3.16-.34-4.68L151.65 327l.42 20.21Zm-30.73 70.09c-1.21-19.89 1.44-31.41 3.22-39.12.18-.74.34-1.45.49-2.13 1.35-6 2-18.22 1.94-28.2v-9.44c.12-13 1.19-27.53 8.19-36.91l.57.37c-4.71 6.31-6.7 15-7.52 24 7-.87 8.48-7.31 10.55-16.17.28-1.22.58-2.47.89-3.76l.68.15c-.32 1.28-.61 2.54-.9 3.74-2.07 8.85-3.71 15.86-11.28 16.71-.33 4-.46 8-.49 11.84v9.43c0 10-.59 22.24-2 28.33-.15.68-.32 1.39-.49 2.14-1.79 7.73-4.45 19.29-3.19 39.33Z" style="fill:#37474f"/><path d="M121.36 221.15a7.31 7.31 0 0 0 3.84-5.15 39.6 39.6 0 0 0 .65-6.62 16.46 16.46 0 0 1 3.08-9.1c2-2.54 5.5-4.11 8.62-3.2l2.08.25a38.93 38.93 0 0 1 4 8.34 45.24 45.24 0 0 1 2.37 12.64 29.17 29.17 0 0 1-2 13.14c-1.81 4.09-5.21 7.63-9.52 8.83a8.8 8.8 0 0 1-5.49-.11 9.24 9.24 0 0 1-4.38-4.07 13.58 13.58 0 0 1 .11-14.06 4.52 4.52 0 0 1-3.36-.89Z" style="fill:#263238"/><path d="M134.25 197a7.15 7.15 0 0 0-1.56 2.83 2.8 2.8 0 0 0 0 2.57 2.24 2.24 0 0 0 2.49.48 4.36 4.36 0 0 0 2.79-3 4.14 4.14 0 0 0-.73-3.62c-.81-.85-2.33.02-2.99.74Z" style="fill:#90caf9"/><path d="M171 240.8c3.13 3.82 12.54 16.75 16.16 20.93l13.43-12c1.12-1.66.87-4.93 2.76-8.19 2.09-3.6.88-6.9 2.6-6.57a2.51 2.51 0 0 1 1.66 2.34c.13 2-.61 4.53.16 4.32 1.14-.5 1.92-1.88 3.33-4 .59-.87 1.88-4.26 2.58-5.78a1.3 1.3 0 0 1 2.29-.32c.26.43.48 1.47.73 1.89a4.59 4.59 0 0 0 1 .83 4.2 4.2 0 0 1 1 .79c.72.95.2 2.08.52 3.13a9.12 9.12 0 0 1-.81 6.41c-.41.89-.8 1.82-1.24 2.68a18.51 18.51 0 0 1-3.83 4.81c-1.33 1.28-3 2.06-4.26 3.41s-4.86 6.18-7.6 9.61c-4.51 5.67-8.62 10.76-9.95 12-5.38 5.14-7.28 4-11.85-.6-5.5-5.48-17.61-19.77-17.61-19.77l-.6-20.72a14.47 14.47 0 0 1 9.53 4.8Z" style="fill:#c8856a"/><path d="M187.2 261.73c-2.16 1.82-4.38 7.36-3.62 10.34-2.21-3.83 0-9.28 2.3-11.93Z" style="fill:#f0997a"/><path d="M178.6 264.79a24.41 24.41 0 0 0 4.77-8.16c-2.48-3.3-10-14.37-12.65-17-3-2.95-6.84-3.86-10-4.23l.57 21.48s6.46 7.51 10.13 11.84a13 13 0 0 0 7.18-3.93Z" style="fill:#e0e0e0"/><path d="m214.07 396.8-3.75-1.92-5.25 3.41.55 10.38 5.69 5.19 3.75 1.91-.99-18.97z" style="fill:#90caf9"/><path d="m214.07 396.8-3.75-1.92-5.25 3.41.55 10.38 5.69 5.19 3.75 1.91-.99-18.97z" style="opacity:.1"/><path d="m208.83 400.2.54 10.38 5.69 5.19-.99-18.97-5.24 3.4z" style="fill:#90caf9"/><path d="m209.37 410.58-3.75-1.91 5.69 5.19 3.75 1.91-5.69-5.19z" style="opacity:.1"/><path d="M195.12 371.56c.24 4.42 2.77 7.86 5.35 12.13s2.78 8.68 3.14 15.64a3 3 0 0 0 1.88 2.35 9.35 9.35 0 0 0 8.46-.44 3 3 0 0 0 1.62-2.54c-.36-7-.59-11.45 1.49-15.88s4.28-8.21 4.05-12.62Z" style="fill:#263238"/><path d="m195.12 371.56-.05-1.06-6.48-123.5-.51-9.67 3.06-.17 2.48-.14 5-.27 2.49-.14 5-.28 5-.27 3-.17.17 3.12 6.84 130.3a.11.11 0 0 1 0 .08v.57a.11.11 0 0 1 0 .08 6.19 6.19 0 0 1-2.83 4.64 7.55 7.55 0 0 1-.71.51 15.37 15.37 0 0 1-4.15 1.85 21.18 21.18 0 0 1-4.94.83 18.85 18.85 0 0 1-9.33-1.71c-2.38-1.23-3.73-2.86-4.04-4.6Z" style="fill:#37474f"/><path d="M213.42 377a21.18 21.18 0 0 1-4.94.83l-7.4-141.26 5-.28 5-.27 3-.17.17 3.12 6.84 130.3a.11.11 0 0 1 0 .08v.57a.11.11 0 0 1 0 .08 6.19 6.19 0 0 1-2.83 4.64 7.55 7.55 0 0 1-.71.51 15.37 15.37 0 0 1-4.13 1.85Z" style="fill:#455a64"/><path d="m211 236.05 7.26 138.62a7.55 7.55 0 0 1-.71.51 15.37 15.37 0 0 1-4.15 1.85l-7.37-140.7Z" style="fill:#fff;opacity:.2"/><path d="M210.55 241.42a20.39 20.39 0 0 1-18.39 1c-5.23-2.67-5.48-7.42-.56-10.62a20.34 20.34 0 0 1 18.39-1c5.23 2.67 5.48 7.42.56 10.62Z" style="fill:#e0e0e0"/><path d="M191.43 242.86c5.66 2.88 14.56 2.41 19.89-1.05 2.66-1.72 3.92-3.87 3.81-5.95l-2.45-46.61-28.11 1.62 2.43 46.46c.12 2.08 1.6 4.09 4.43 5.53Z" style="fill:#90caf9"/><path d="M206.44 243.92 204 197.39a16.86 16.86 0 0 0 4.87-2.11l2.45 46.53a17.2 17.2 0 0 1-4.88 2.11Z" style="fill:#fff;opacity:.30000000000000004"/><path d="M191.44 242.86c-2.84-1.44-4.32-3.45-4.43-5.54l-2.44-46.44c.13 2 1.61 4 4.4 5.45a19.14 19.14 0 0 0 7.57 1.86l2.46 46.52a18.76 18.76 0 0 1-7.56-1.85Z" style="opacity:.1"/><path d="M208.87 195.28c-5.32 3.46-14.22 3.93-19.88 1s-5.93-8-.6-11.48 14.22-3.92 19.88-1 5.93 8.02.6 11.48Z" style="fill:#90caf9"/><path d="M208.87 195.28c-5.32 3.46-14.22 3.93-19.88 1s-5.93-8-.6-11.48 14.22-3.92 19.88-1 5.93 8.02.6 11.48Z" style="fill:#fff;opacity:.5"/><path d="M204.84 186a14.21 14.21 0 0 0-12.82.67c-1.73 1.13-2.55 2.55-2.45 3.9s1.05 2.6 2.85 3.51a14.19 14.19 0 0 0 12.81-.67c1.73-1.13 2.55-2.53 2.46-3.89s-1.05-2.58-2.85-3.52Zm-1.59 6.39a9.9 9.9 0 0 1-9 .48 2.73 2.73 0 0 1-.27-5.18 9.91 9.91 0 0 1 9-.47 2.73 2.73 0 0 1 .26 5.17Z" style="fill:#90caf9;opacity:.6000000000000001"/><path d="m194.56 207.54-.15-2.87-2.4 1.57.14 2.87 2.41-1.57zM190.71 247l2.41-1.57a2.22 2.22 0 0 0 .84-2.08l-2-37.12-7.69-3.92 2 37.12a7 7 0 0 0 3.47 5.35l.28.14-.29.18Z" style="fill:#90caf9"/><path d="m188.46 246.93-1.14-.58a7 7 0 0 1-3.46-5.34l-2-37.12 7.69 3.92 1.95 37.11c.13 2.08-1.24 2.93-3.04 2.01Z" style="fill:#90caf9"/><path d="m188.46 246.93-1.14-.58a7 7 0 0 1-3.46-5.34l-2-37.12 7.69 3.92 1.95 37.11c.13 2.08-1.24 2.93-3.04 2.01Z" style="opacity:.15"/><path d="m186.73 200.76 7.68 3.91-4.82 3.13-7.68-3.91 4.82-3.13z" style="fill:#90caf9"/><path d="m186.73 200.76 7.68 3.91-4.82 3.13-7.68-3.91 4.82-3.13z" style="opacity:.2"/><path d="M123 290.83c1.62-7.43 4.24-15.29 4.41-19.24.4-9.52-1.27-10.5-2.5-16.76-2.28-11.57 2.93-17.09 5-18.86 0 0 2.18-.5 4.78-1.12a36.91 36.91 0 0 1 4.49-.81 53.87 53.87 0 0 1 12-.33c1 .1 2.88.49 5.26.91 2.16.37 4.29.78 4.3.78a32.75 32.75 0 0 1 8.54 9.25c2.28 4.08 4.24 7 3.35 14.52-1.31 11.05 1.59 24 1.59 31.81-9.22 5.66-39.7 9.73-51.22-.15Zm16.54-63.98c-.43-3.7-13.11-19.84-5.48-23.86 2-20.3 42.14-12.51 31.64 8.21a3.51 3.51 0 0 0-.53-2.62c.3 2.74-2.52 6-5.38 5.43-6.79 4.13-13.46 8.65-20.25 12.84Z" style="fill:#263238"/><path d="M139.3 231.27c0-1.48.13-10.35.13-10.35a3.45 3.45 0 0 1-5.72 0c-1.57-2.09-2-5.15-.53-7.07 1.6-2.13 5.76-2.08 6.15 1.52 2.07-.08 3.07-1 2.25-4.37.22-2.38 2.92-3.07 2.85-8.26 6.79-4.49 13.68-4.17 17.8-.6a32.29 32.29 0 0 1 2.07 12.29c-.3 7.85-1.37 10.59-3.56 12.4A11.76 11.76 0 0 1 153 229l-.06 2.44c.05 1.24-.09 2.35 1.11 2.76.5.8 3.34 5.6-1.05 9.35-9.43-1.78-15.19-8-15.72-9.2 1.99-.65 2-1.61 2.02-3.08Z" style="fill:#c8856a"/><path d="m151.06 219.42 4.64 1.49a2.39 2.39 0 0 1-3 1.66 2.56 2.56 0 0 1-1.64-3.15Z" style="fill:#af6152"/><path d="M151.36 220.49a2.69 2.69 0 0 1 2.67 2.1 2.3 2.3 0 0 1-1.35 0 2.51 2.51 0 0 1-1.68-2Z" style="fill:#f0997a"/><path d="m162.1 208.73-2.91-1.62a1.6 1.6 0 0 1 2.22-.68 1.74 1.74 0 0 1 .69 2.3Zm-14.05.27 3.09-1.35a1.62 1.62 0 0 0-2.17-.91 1.78 1.78 0 0 0-.92 2.26Zm10.57 2a1.43 1.43 0 0 0 1.27 1.52 1.34 1.34 0 0 0 1.49-1.22 1.43 1.43 0 0 0-1.27-1.52 1.34 1.34 0 0 0-1.49 1.22Zm-9.62.62a1.43 1.43 0 0 0 1.28 1.51 1.34 1.34 0 0 0 1.49-1.22 1.42 1.42 0 0 0-1.28-1.51 1.34 1.34 0 0 0-1.49 1.22Z" style="fill:#263238"/><path d="M153 229c-5.27-.55-9.52-2-12.19-7.21a8.15 8.15 0 0 0 2.53 5.77c3.68 3.31 9.61 3.31 9.61 3.31Z" style="fill:#af6152"/><path d="M121.49 303.3c-.86.95-2.84-.52-3.56-1-1.44-1-1.71-2-1.69-3.82a3.24 3.24 0 0 1 .4-1.85c.15-.22.35-.4.51-.62.51-.7.41-1.67.77-2.46 1.66-3.68 4.39.54 5 2.44a7.28 7.28 0 0 1-1.43 7.31Z" style="fill:#f0997a"/><path d="M128.92 236.84c-7.21 1.51-7.92 1.29-11.33 8.14-4 8-8.67 17.18-10.09 20.21s-2 4.69.61 9.6c1.36 2.56 7 11.82 10.15 17.8.71 1.35.26 3.11 1 4.44.56 1 2.77 2.49 2.6 3.76s-2.82 2-4 1.44a17.39 17.39 0 0 0 2.85 2 6 6 0 0 0 3.54.92c1-.2 1.51-1.14 2.39-1.54s2.16-.2 2.69-1c.35-.54.19-1.28.53-1.82s1.12-.73 1.49-1.28a2.31 2.31 0 0 0-.06-2 74.16 74.16 0 0 0-3.39-8.28c-1.5-3.07-4.7-11.91-6.81-17.82l8.76-18.47s4.35-10.6-.93-16.1Z" style="fill:#c8856a"/><path d="M123.15 268.34c.31-.64.69-1.35 1.14-2.16 1.79-3.23 5.17-10.18 6.37-12.56S135 242 129.89 236a39.33 39.33 0 0 0-6.89 1.8c-1.51.68-2.72 1.23-5 5.55-2.06 3.85-7.74 15.32-9.57 19 3.93 3.75 9.3 6.48 14.72 5.99Z" style="fill:#e0e0e0"/><path d="m160.58 215.87-4.51 2.23-1.32-8.87 5.83 6.64z" style="fill:#af6152"/></svg>